<svg xmlns="http://www.w3.org/2000/svg" xmlns:xlink="http://www.w3.org/1999/xlink" width="375" zoomAndPan="magnify" viewBox="0 0 281.25 449.999982" height="600" preserveAspectRatio="xMidYMid meet" version="1.0"><defs><clipPath id="id1"><path d="M 0 0.597656 L 280.503906 0.597656 L 280.503906 449.402344 L 0 449.402344 Z M 0 0.597656 " clip-rule="nonzero"/></clipPath><clipPath id="id2"><path d="M 204 165 L 280.503906 165 L 280.503906 218 L 204 218 Z M 204 165 " clip-rule="nonzero"/></clipPath><clipPath id="id3"><path d="M 202 194 L 280.503906 194 L 280.503906 218 L 202 218 Z M 202 194 " clip-rule="nonzero"/></clipPath><clipPath id="id4"><path d="M 254 193 L 280.503906 193 L 280.503906 214 L 254 214 Z M 254 193 " clip-rule="nonzero"/></clipPath><clipPath id="id5"><path d="M 244 165 L 280.503906 165 L 280.503906 214 L 244 214 Z M 244 165 " clip-rule="nonzero"/></clipPath><clipPath id="id6"><path d="M 244 146 L 280.503906 146 L 280.503906 214 L 244 214 Z M 244 146 " clip-rule="nonzero"/></clipPath><clipPath id="id7"><path d="M 241 135 L 280.503906 135 L 280.503906 197 L 241 197 Z M 241 135 " clip-rule="nonzero"/></clipPath><clipPath id="id8"><path d="M 227 31 L 280.503906 31 L 280.503906 97 L 227 97 Z M 227 31 " clip-rule="nonzero"/></clipPath><clipPath id="id9"><path d="M 227 30 L 280.503906 30 L 280.503906 106 L 227 106 Z M 227 30 " clip-rule="nonzero"/></clipPath><clipPath id="id10"><path d="M 227 19 L 280.503906 19 L 280.503906 107 L 227 107 Z M 227 19 " clip-rule="nonzero"/></clipPath><clipPath id="id11"><path d="M 211 5 L 280.503906 5 L 280.503906 61 L 211 61 Z M 211 5 " clip-rule="nonzero"/></clipPath><clipPath id="id12"><path d="M 209 5 L 280.503906 5 L 280.503906 37 L 209 37 Z M 209 5 " clip-rule="nonzero"/></clipPath><clipPath id="id13"><path d="M 226 19 L 280.503906 19 L 280.503906 37 L 226 37 Z M 226 19 " clip-rule="nonzero"/></clipPath><clipPath id="id14"><path d="M 274 94 L 280.503906 94 L 280.503906 148 L 274 148 Z M 274 94 " clip-rule="nonzero"/></clipPath><clipPath id="id15"><path d="M 263 117 L 280.503906 117 L 280.503906 148 L 263 148 Z M 263 117 " clip-rule="nonzero"/></clipPath><clipPath id="id16"><path d="M 200.910156 210 L 213 210 L 213 223 L 200.910156 223 Z M 200.910156 210 " clip-rule="nonzero"/></clipPath><clipPath id="id17"><path d="M 270 140 L 280.503906 140 L 280.503906 153 L 270 153 Z M 270 140 " clip-rule="nonzero"/></clipPath><clipPath id="id18"><path d="M 272 142 L 280.503906 142 L 280.503906 151 L 272 151 Z M 272 142 " clip-rule="nonzero"/></clipPath><clipPath id="id19"><path d="M 268 89 L 280.503906 89 L 280.503906 102 L 268 102 Z M 268 89 " clip-rule="nonzero"/></clipPath><clipPath id="id20"><path d="M 206 0.613281 L 218 0.613281 L 218 12.523438 L 206 12.523438 Z M 206 0.613281 " clip-rule="nonzero"/></clipPath><clipPath id="id21"><path d="M 208 210 L 280.503906 210 L 280.503906 285 L 208 285 Z M 208 210 " clip-rule="nonzero"/></clipPath><clipPath id="id22"><path d="M 204 211 L 280.503906 211 L 280.503906 256 L 204 256 Z M 204 211 " clip-rule="nonzero"/></clipPath><clipPath id="id23"><path d="M 259 209 L 280.503906 209 L 280.503906 257 L 259 257 Z M 259 209 " clip-rule="nonzero"/></clipPath><clipPath id="id24"><path d="M 247 211 L 280.503906 211 L 280.503906 286 L 247 286 Z M 247 211 " clip-rule="nonzero"/></clipPath><clipPath id="id25"><path d="M 248 209 L 280.503906 209 L 280.503906 304 L 248 304 Z M 248 209 " clip-rule="nonzero"/></clipPath><clipPath id="id26"><path d="M 248 253 L 280.503906 253 L 280.503906 305 L 248 305 Z M 248 253 " clip-rule="nonzero"/></clipPath><clipPath id="id27"><path d="M 211 282 L 280.503906 282 L 280.503906 325 L 211 325 Z M 211 282 " clip-rule="nonzero"/></clipPath><clipPath id="id28"><path d="M 233 282 L 280.503906 282 L 280.503906 336 L 233 336 Z M 233 282 " clip-rule="nonzero"/></clipPath><clipPath id="id29"><path d="M 248 282 L 280.503906 282 L 280.503906 331 L 248 331 Z M 248 282 " clip-rule="nonzero"/></clipPath><clipPath id="id30"><path d="M 246 282 L 280.503906 282 L 280.503906 315 L 246 315 Z M 246 282 " clip-rule="nonzero"/></clipPath><clipPath id="id31"><path d="M 245 253 L 280.503906 253 L 280.503906 315 L 245 315 Z M 245 253 " clip-rule="nonzero"/></clipPath><clipPath id="id32"><path d="M 211 302 L 280.503906 302 L 280.503906 356 L 211 356 Z M 211 302 " clip-rule="nonzero"/></clipPath><clipPath id="id33"><path d="M 245 302 L 280.503906 302 L 280.503906 356 L 245 356 Z M 245 302 " clip-rule="nonzero"/></clipPath><clipPath id="id34"><path d="M 231 352 L 280.503906 352 L 280.503906 432 L 231 432 Z M 231 352 " clip-rule="nonzero"/></clipPath><clipPath id="id35"><path d="M 230 353 L 280.503906 353 L 280.503906 419 L 230 419 Z M 230 353 " clip-rule="nonzero"/></clipPath><clipPath id="id36"><path d="M 230 344 L 280.503906 344 L 280.503906 420 L 230 420 Z M 230 344 " clip-rule="nonzero"/></clipPath><clipPath id="id37"><path d="M 230 343 L 280.503906 343 L 280.503906 431 L 230 431 Z M 230 343 " clip-rule="nonzero"/></clipPath><clipPath id="id38"><path d="M 214 389 L 280.503906 389 L 280.503906 445 L 214 445 Z M 214 389 " clip-rule="nonzero"/></clipPath><clipPath id="id39"><path d="M 213 413 L 280.503906 413 L 280.503906 445 L 213 445 Z M 213 413 " clip-rule="nonzero"/></clipPath><clipPath id="id40"><path d="M 229 413 L 280.503906 413 L 280.503906 431 L 229 431 Z M 229 413 " clip-rule="nonzero"/></clipPath><clipPath id="id41"><path d="M 277 302 L 280.503906 302 L 280.503906 356 L 277 356 Z M 277 302 " clip-rule="nonzero"/></clipPath><clipPath id="id42"><path d="M 266.667969 302.164062 L 280.503906 302.164062 L 280.503906 333 L 266.667969 333 Z M 266.667969 302.164062 " clip-rule="nonzero"/></clipPath><clipPath id="id43"><path d="M 274 297 L 280.503906 297 L 280.503906 310 L 274 310 Z M 274 297 " clip-rule="nonzero"/></clipPath><clipPath id="id44"><path d="M 275 299 L 280.503906 299 L 280.503906 308 L 275 308 Z M 275 299 " clip-rule="nonzero"/></clipPath><clipPath id="id45"><path d="M 272 348 L 280.503906 348 L 280.503906 361 L 272 361 Z M 272 348 " clip-rule="nonzero"/></clipPath><clipPath id="id46"><path d="M 274 350 L 280.503906 350 L 280.503906 359 L 274 359 Z M 274 350 " clip-rule="nonzero"/></clipPath><clipPath id="id47"><path d="M 209 437 L 222 437 L 222 449.402344 L 209 449.402344 Z M 209 437 " clip-rule="nonzero"/></clipPath></defs><g clip-path="url(#id1)"><path fill="#ffffff" d="M 0 0.597656 L 281.25 0.597656 L 281.25 458.378906 L 0 458.378906 Z M 0 0.597656 " fill-opacity="1" fill-rule="nonzero"/><path fill="#172852" d="M 0 0.597656 L 280.503906 0.597656 L 280.503906 449.402344 L 0 449.402344 Z M 0 0.597656 " fill-opacity="1" fill-rule="nonzero"/><path fill="#ffffff" d="M 0 0.597656 L 280.503906 0.597656 L 280.503906 449.402344 L 0 449.402344 Z M 0 0.597656 " fill-opacity="1" fill-rule="nonzero"/><path fill="#172852" d="M 0 0.597656 L 280.503906 0.597656 L 280.503906 449.402344 L 0 449.402344 Z M 0 0.597656 " fill-opacity="1" fill-rule="nonzero"/></g><g clip-path="url(#id2)"><path fill="#ec5242" d="M 206.609375 216.238281 L 312.988281 211.347656 L 245.558594 167.125 Z M 316.011719 212.175781 L 204.535156 217.300781 L 245.351562 165.832031 L 316.011719 212.175781 " fill-opacity="1" fill-rule="nonzero"/></g><g clip-path="url(#id3)"><path fill="#ec5242" d="M 208.28125 216.164062 L 311.558594 211.414062 L 257.25 195.710938 Z M 317.441406 212.109375 L 202.863281 217.378906 L 257.191406 194.6875 L 317.441406 212.109375 " fill-opacity="1" fill-rule="nonzero"/></g><g clip-path="url(#id4)"><path fill="#ec5242" d="M 260.308594 195.589844 L 311.554688 210.410156 L 287.710938 194.769531 Z M 317.445312 213.117188 L 254.132812 194.808594 L 287.988281 193.796875 L 317.445312 213.117188 " fill-opacity="1" fill-rule="nonzero"/></g><g clip-path="url(#id5)"><path fill="#ec5242" d="M 257.582031 194.800781 L 311.554688 210.410156 L 246.492188 167.734375 Z M 317.445312 213.117188 L 256.863281 195.597656 L 244.417969 165.21875 L 317.445312 213.117188 " fill-opacity="1" fill-rule="nonzero"/></g><g clip-path="url(#id6)"><path fill="#ec5242" d="M 246.347656 166.484375 L 313.03125 210.222656 L 276.164062 147.648438 Z M 315.96875 213.304688 L 244.5625 166.472656 L 276.488281 146.300781 L 315.96875 213.304688 " fill-opacity="1" fill-rule="nonzero"/></g><path fill="#ec5242" d="M 257.214844 193.90625 L 275.328125 148.175781 L 246.058594 166.671875 Z M 277.320312 145.773438 L 257.230469 196.492188 L 244.855469 166.285156 L 277.320312 145.773438 " fill-opacity="1" fill-rule="nonzero"/><path fill="#ec5242" d="M 245.542969 165.851562 L 275.179688 147.128906 L 210.902344 127.257812 Z M 277.46875 146.824219 L 245.367188 167.105469 L 207.851562 125.304688 L 277.46875 146.824219 " fill-opacity="1" fill-rule="nonzero"/><path fill="#ec5242" d="M 245.742188 165.726562 L 275.445312 146.960938 L 231.859375 117.136719 Z M 277.203125 146.992188 L 245.167969 167.230469 L 230.191406 114.824219 L 277.203125 146.992188 " fill-opacity="1" fill-rule="nonzero"/><path fill="#ec5242" d="M 246.464844 165.269531 L 275.707031 146.792969 L 264.027344 121.679688 Z M 276.941406 147.15625 L 244.449219 167.6875 L 263.964844 119.25 L 276.941406 147.15625 " fill-opacity="1" fill-rule="nonzero"/><path fill="#ec5242" d="M 245.867188 165.648438 L 275.179688 147.128906 L 243.394531 137.304688 Z M 277.46875 146.824219 L 245.042969 167.308594 L 242.304688 135.953125 L 277.46875 146.824219 " fill-opacity="1" fill-rule="nonzero"/><g clip-path="url(#id7)"><path fill="#ec5242" d="M 244.179688 137.542969 L 286.851562 192.214844 L 275.921875 147.355469 Z M 288.851562 196.351562 L 241.523438 135.714844 L 276.730469 146.59375 L 288.851562 196.351562 " fill-opacity="1" fill-rule="nonzero"/></g><path fill="#ec5242" d="M 210.710938 126.191406 L 275.820312 146.316406 L 274.328125 96.308594 Z M 276.828125 147.636719 L 208.042969 126.375 L 275.25 94.804688 L 276.828125 147.636719 " fill-opacity="1" fill-rule="nonzero"/><path fill="#ec5242" d="M 243.660156 136.375 L 275.820312 146.316406 L 274.34375 96.914062 Z M 276.828125 147.636719 L 242.039062 136.882812 L 275.230469 94.203125 L 276.828125 147.636719 " fill-opacity="1" fill-rule="nonzero"/><path fill="#ec5242" d="M 210.125 125.394531 L 273.867188 95.457031 L 228.277344 60.324219 Z M 275.710938 95.660156 L 208.628906 127.167969 L 227.730469 58.683594 L 275.710938 95.660156 " fill-opacity="1" fill-rule="nonzero"/><path fill="#ec5242" d="M 210.125 125.394531 L 273.867188 95.457031 L 228.277344 60.324219 Z M 275.710938 95.660156 L 208.628906 127.167969 L 227.730469 58.683594 L 275.710938 95.660156 " fill-opacity="1" fill-rule="nonzero"/><path fill="#ec5242" d="M 210.125 125.394531 L 273.867188 95.457031 L 228.277344 60.324219 Z M 275.710938 95.660156 L 208.628906 127.167969 L 227.730469 58.683594 L 275.710938 95.660156 " fill-opacity="1" fill-rule="nonzero"/><path fill="#ec5242" d="M 231.472656 115.238281 L 273.859375 95.667969 L 228.765625 60.445312 Z M 275.703125 95.882812 L 230.578125 116.71875 L 227.699219 58.382812 L 275.703125 95.882812 " fill-opacity="1" fill-rule="nonzero"/><path fill="#ec5242" d="M 228.484375 59.265625 L 272.976562 93.550781 L 228.484375 21.726562 Z M 276.597656 97.5625 L 227.519531 59.738281 L 227.519531 18.328125 L 276.597656 97.5625 " fill-opacity="1" fill-rule="nonzero"/><path fill="#ec5242" d="M 263.929688 119.398438 L 274.195312 95.710938 L 229.691406 61.414062 Z M 275.378906 95.40625 L 264.0625 121.527344 L 226.3125 57.589844 L 275.378906 95.40625 " fill-opacity="1" fill-rule="nonzero"/><path fill="#ec5242" d="M 264.167969 118.847656 L 274.257812 95.566406 L 248.527344 40.078125 Z M 275.316406 95.550781 L 263.824219 122.078125 L 246.003906 32.34375 L 275.316406 95.550781 " fill-opacity="1" fill-rule="nonzero"/><g clip-path="url(#id8)"><path fill="#ec5242" d="M 274.523438 94.746094 L 292.875 32.753906 L 228.953125 59.625 Z M 294.378906 31.074219 L 275.050781 96.371094 L 227.050781 59.378906 L 294.378906 31.074219 " fill-opacity="1" fill-rule="nonzero"/></g><g clip-path="url(#id9)"><path fill="#ec5242" d="M 254.6875 103.804688 L 292.558594 32.886719 L 228.699219 59.734375 Z M 294.695312 30.941406 L 254.726562 105.78125 L 227.304688 59.273438 L 294.695312 30.941406 " fill-opacity="1" fill-rule="nonzero"/></g><g clip-path="url(#id10)"><path fill="#ec5242" d="M 254.820312 103.550781 L 292.886719 32.269531 L 228.703125 20.648438 Z M 294.363281 31.554688 L 294.050781 32.140625 L 254.589844 106.035156 L 227.300781 19.414062 L 294.363281 31.554688 " fill-opacity="1" fill-rule="nonzero"/></g><g clip-path="url(#id11)"><path fill="#ec5242" d="M 228.308594 58.851562 L 292.21875 31.980469 L 212.675781 7.273438 Z M 295.035156 31.84375 L 227.695312 60.15625 L 211.222656 5.8125 L 295.035156 31.84375 " fill-opacity="1" fill-rule="nonzero"/></g><g clip-path="url(#id12)"><path fill="#ec5242" d="M 247.421875 35.710938 L 291.171875 31.65625 L 214.09375 7.714844 Z M 296.082031 32.171875 L 247.105469 36.710938 L 209.800781 5.371094 L 296.082031 32.171875 " fill-opacity="1" fill-rule="nonzero"/></g><g clip-path="url(#id13)"><path fill="#ec5242" d="M 247.421875 35.710938 L 290.0625 31.757812 L 229.703125 20.828125 Z M 297.191406 32.066406 L 247.105469 36.710938 L 226.300781 19.230469 L 297.191406 32.066406 " fill-opacity="1" fill-rule="nonzero"/></g><g clip-path="url(#id14)"><path fill="#ec5242" d="M 276.78125 146.085938 L 318.726562 117.878906 L 275.296875 96.347656 Z M 320.648438 117.753906 L 275.867188 147.863281 L 274.28125 94.765625 L 320.648438 117.753906 " fill-opacity="1" fill-rule="nonzero"/></g><g clip-path="url(#id15)"><path fill="#ec5242" d="M 276.523438 146.257812 L 317.980469 118.382812 L 264.738281 120.910156 Z M 321.394531 117.253906 L 276.125 147.691406 L 263.253906 120.015625 L 321.394531 117.253906 " fill-opacity="1" fill-rule="nonzero"/></g><g clip-path="url(#id16)"><path fill="#ec5242" d="M 211.824219 216.773438 C 211.824219 219.511719 209.597656 221.734375 206.855469 221.734375 C 204.109375 221.734375 201.882812 219.511719 201.882812 216.773438 C 201.882812 214.03125 204.109375 211.808594 206.855469 211.808594 C 209.597656 211.808594 211.824219 214.03125 211.824219 216.773438 Z M 200.917969 216.773438 C 200.917969 220.046875 203.574219 222.699219 206.855469 222.699219 C 210.132812 222.699219 212.789062 220.046875 212.789062 216.773438 C 212.789062 213.496094 210.132812 210.84375 206.855469 210.84375 C 203.574219 210.84375 200.917969 213.496094 200.917969 216.773438 " fill-opacity="1" fill-rule="nonzero"/></g><path fill="#ec5242" d="M 202.550781 216.773438 C 202.550781 219.144531 204.476562 221.070312 206.855469 221.070312 C 209.230469 221.070312 211.160156 219.144531 211.160156 216.773438 C 211.160156 214.398438 209.230469 212.472656 206.855469 212.472656 C 204.476562 212.472656 202.550781 214.398438 202.550781 216.773438 " fill-opacity="1" fill-rule="nonzero"/><path fill="#ec5242" d="M 214.347656 126.28125 C 214.347656 129.023438 212.121094 131.242188 209.375 131.242188 C 206.632812 131.242188 204.40625 129.023438 204.40625 126.28125 C 204.40625 123.539062 206.632812 121.320312 209.375 121.320312 C 212.121094 121.320312 214.347656 123.539062 214.347656 126.28125 Z M 203.441406 126.28125 C 203.441406 129.554688 206.097656 132.210938 209.375 132.210938 C 212.65625 132.210938 215.3125 129.554688 215.3125 126.28125 C 215.3125 123.007812 212.65625 120.355469 209.375 120.355469 C 206.097656 120.355469 203.441406 123.007812 203.441406 126.28125 " fill-opacity="1" fill-rule="nonzero"/><path fill="#ec5242" d="M 205.070312 126.28125 C 205.070312 128.65625 207 130.582031 209.375 130.582031 C 211.753906 130.582031 213.679688 128.65625 213.679688 126.28125 C 213.679688 123.910156 211.753906 121.984375 209.375 121.984375 C 207 121.984375 205.070312 123.910156 205.070312 126.28125 " fill-opacity="1" fill-rule="nonzero"/><g clip-path="url(#id17)"><path fill="#ec5242" d="M 281.292969 146.378906 C 281.292969 149.121094 279.070312 151.34375 276.324219 151.34375 C 273.582031 151.34375 271.355469 149.121094 271.355469 146.378906 C 271.355469 143.640625 273.582031 141.417969 276.324219 141.417969 C 279.070312 141.417969 281.292969 143.640625 281.292969 146.378906 Z M 270.386719 146.378906 C 270.386719 149.652344 273.046875 152.308594 276.324219 152.308594 C 279.601562 152.308594 282.261719 149.652344 282.261719 146.378906 C 282.261719 143.105469 279.601562 140.453125 276.324219 140.453125 C 273.046875 140.453125 270.386719 143.105469 270.386719 146.378906 " fill-opacity="1" fill-rule="nonzero"/></g><g clip-path="url(#id18)"><path fill="#ec5242" d="M 272.019531 146.378906 C 272.019531 148.753906 273.945312 150.679688 276.324219 150.679688 C 278.703125 150.679688 280.628906 148.753906 280.628906 146.378906 C 280.628906 144.007812 278.703125 142.082031 276.324219 142.082031 C 273.945312 142.082031 272.019531 144.007812 272.019531 146.378906 " fill-opacity="1" fill-rule="nonzero"/></g><path fill="#ec5242" d="M 232.972656 59.503906 C 232.972656 62.242188 230.746094 64.464844 228.003906 64.464844 C 225.257812 64.464844 223.03125 62.242188 223.03125 59.503906 C 223.03125 56.761719 225.257812 54.542969 228.003906 54.542969 C 230.746094 54.542969 232.972656 56.761719 232.972656 59.503906 Z M 222.066406 59.503906 C 222.066406 62.777344 224.722656 65.429688 228.003906 65.429688 C 231.28125 65.429688 233.941406 62.777344 233.941406 59.503906 C 233.941406 56.230469 231.28125 53.574219 228.003906 53.574219 C 224.722656 53.574219 222.066406 56.230469 222.066406 59.503906 " fill-opacity="1" fill-rule="nonzero"/><path fill="#ec5242" d="M 223.699219 59.503906 C 223.699219 61.875 225.625 63.800781 228.003906 63.800781 C 230.378906 63.800781 232.304688 61.875 232.304688 59.503906 C 232.304688 57.128906 230.378906 55.203125 228.003906 55.203125 C 225.625 55.203125 223.699219 57.128906 223.699219 59.503906 " fill-opacity="1" fill-rule="nonzero"/><g clip-path="url(#id19)"><path fill="#ec5242" d="M 279.757812 95.558594 C 279.757812 98.300781 277.53125 100.519531 274.789062 100.519531 C 272.042969 100.519531 269.816406 98.300781 269.816406 95.558594 C 269.816406 92.816406 272.042969 90.597656 274.789062 90.597656 C 277.53125 90.597656 279.757812 92.816406 279.757812 95.558594 Z M 268.851562 95.558594 C 268.851562 98.832031 271.507812 101.484375 274.789062 101.484375 C 278.066406 101.484375 280.722656 98.832031 280.722656 95.558594 C 280.722656 92.285156 278.066406 89.628906 274.789062 89.628906 C 271.507812 89.628906 268.851562 92.285156 268.851562 95.558594 " fill-opacity="1" fill-rule="nonzero"/></g><path fill="#ec5242" d="M 270.484375 95.558594 C 270.484375 97.929688 272.410156 99.855469 274.789062 99.855469 C 277.164062 99.855469 279.089844 97.929688 279.089844 95.558594 C 279.089844 93.183594 277.164062 91.257812 274.789062 91.257812 C 272.410156 91.257812 270.484375 93.183594 270.484375 95.558594 " fill-opacity="1" fill-rule="nonzero"/><g clip-path="url(#id20)"><path fill="#ec5242" d="M 216.917969 6.542969 C 216.917969 9.285156 214.695312 11.503906 211.949219 11.503906 C 209.203125 11.503906 206.980469 9.285156 206.980469 6.542969 C 206.980469 3.800781 209.203125 1.582031 211.949219 1.582031 C 214.695312 1.582031 216.917969 3.800781 216.917969 6.542969 Z M 206.011719 6.542969 C 206.011719 9.816406 208.667969 12.472656 211.949219 12.472656 C 215.226562 12.472656 217.886719 9.816406 217.886719 6.542969 C 217.886719 3.269531 215.226562 0.617188 211.949219 0.617188 C 208.667969 0.617188 206.011719 3.269531 206.011719 6.542969 " fill-opacity="1" fill-rule="nonzero"/></g><path fill="#ec5242" d="M 207.644531 6.542969 C 207.644531 8.917969 209.574219 10.839844 211.949219 10.839844 C 214.324219 10.839844 216.253906 8.917969 216.253906 6.542969 C 216.253906 4.171875 214.324219 2.246094 211.949219 2.246094 C 209.574219 2.246094 207.644531 4.171875 207.644531 6.542969 " fill-opacity="1" fill-rule="nonzero"/><path fill="#ec5242" d="M 257.222656 193.421875 C 258.203125 193.421875 259 194.21875 259 195.199219 C 259 196.179688 258.203125 196.972656 257.222656 196.972656 C 256.238281 196.972656 255.441406 196.179688 255.441406 195.199219 C 255.441406 194.21875 256.238281 193.421875 257.222656 193.421875 " fill-opacity="1" fill-rule="nonzero"/><path fill="#ec5242" d="M 263.996094 177.082031 C 264.792969 177.082031 265.4375 177.726562 265.4375 178.523438 C 265.4375 179.316406 264.792969 179.964844 263.996094 179.964844 C 263.199219 179.964844 262.550781 179.316406 262.550781 178.523438 C 262.550781 177.726562 263.199219 177.082031 263.996094 177.082031 " fill-opacity="1" fill-rule="nonzero"/><path fill="#ec5242" d="M 242.664062 135.1875 C 243.464844 135.1875 244.109375 135.832031 244.109375 136.628906 C 244.109375 137.425781 243.464844 138.070312 242.664062 138.070312 C 241.867188 138.070312 241.222656 137.425781 241.222656 136.628906 C 241.222656 135.832031 241.867188 135.1875 242.664062 135.1875 " fill-opacity="1" fill-rule="nonzero"/><path fill="#ec5242" d="M 263.996094 119.019531 C 264.792969 119.019531 265.4375 119.667969 265.4375 120.464844 C 265.4375 121.257812 264.792969 121.902344 263.996094 121.902344 C 263.199219 121.902344 262.550781 121.257812 262.550781 120.464844 C 262.550781 119.667969 263.199219 119.019531 263.996094 119.019531 " fill-opacity="1" fill-rule="nonzero"/><path fill="#ec5242" d="M 254.703125 103.734375 C 255.292969 103.734375 255.765625 104.207031 255.765625 104.792969 C 255.765625 105.378906 255.292969 105.851562 254.703125 105.851562 C 254.121094 105.851562 253.644531 105.378906 253.644531 104.792969 C 253.644531 104.207031 254.121094 103.734375 254.703125 103.734375 " fill-opacity="1" fill-rule="nonzero"/><path fill="#ec5242" d="M 231.027344 114.109375 C 232.0625 114.109375 232.898438 114.945312 232.898438 115.980469 C 232.898438 117.011719 232.0625 117.851562 231.027344 117.851562 C 229.992188 117.851562 229.152344 117.011719 229.152344 115.980469 C 229.152344 114.945312 229.992188 114.109375 231.027344 114.109375 " fill-opacity="1" fill-rule="nonzero"/><path fill="#ec5242" d="M 247.265625 34.769531 C 248.0625 34.769531 248.707031 35.414062 248.707031 36.210938 C 248.707031 37.007812 248.0625 37.652344 247.265625 37.652344 C 246.46875 37.652344 245.820312 37.007812 245.820312 36.210938 C 245.820312 35.414062 246.46875 34.769531 247.265625 34.769531 " fill-opacity="1" fill-rule="nonzero"/><path fill="#ec5242" d="M 228.003906 18.128906 C 229.054688 18.128906 229.90625 18.980469 229.90625 20.027344 C 229.90625 21.078125 229.054688 21.929688 228.003906 21.929688 C 226.949219 21.929688 226.097656 21.078125 226.097656 20.027344 C 226.097656 18.980469 226.949219 18.128906 228.003906 18.128906 " fill-opacity="1" fill-rule="nonzero"/><path fill="#ec5242" d="M 245.453125 163.691406 C 246.996094 163.691406 248.246094 164.941406 248.246094 166.476562 C 248.246094 168.015625 246.996094 169.261719 245.453125 169.261719 C 243.914062 169.261719 242.664062 168.015625 242.664062 166.476562 C 242.664062 164.941406 243.914062 163.691406 245.453125 163.691406 " fill-opacity="1" fill-rule="nonzero"/><g clip-path="url(#id21)"><path fill="#ec5242" d="M 249.175781 282.792969 L 313.144531 212.53125 L 210.132812 233.5625 Z M 315.851562 210.992188 L 249.125 284.285156 L 208.398438 232.929688 L 315.851562 210.992188 " fill-opacity="1" fill-rule="nonzero"/></g><g clip-path="url(#id22)"><path fill="#ec5242" d="M 260.890625 254.214844 L 313.042969 212.3125 L 207.03125 217.1875 Z M 315.953125 211.210938 L 260.9375 255.417969 L 204.113281 216.355469 L 315.953125 211.210938 " fill-opacity="1" fill-rule="nonzero"/></g><g clip-path="url(#id23)"><path fill="#ec5242" d="M 291.253906 255.238281 L 313.003906 213.585938 L 262.238281 254.375 Z M 315.996094 209.941406 L 291.832031 256.222656 L 259.589844 255.261719 L 315.996094 209.941406 " fill-opacity="1" fill-rule="nonzero"/></g><g clip-path="url(#id24)"><path fill="#ec5242" d="M 250.632812 281.191406 L 309.964844 216.027344 L 261.316406 255.117188 Z M 314.855469 212.085938 L 247.664062 285.886719 L 260.515625 254.519531 L 260.613281 254.441406 L 314.195312 211.386719 L 314.855469 212.085938 " fill-opacity="1" fill-rule="nonzero"/></g><g clip-path="url(#id25)"><path fill="#ec5242" d="M 279.773438 302.316406 L 313.152344 213.960938 L 249.894531 283.4375 Z M 315.847656 209.566406 L 280.261719 303.765625 L 248.40625 283.640625 L 248.792969 283.210938 L 315.847656 209.566406 " fill-opacity="1" fill-rule="nonzero"/></g><g clip-path="url(#id26)"><path fill="#ec5242" d="M 249.75 283.347656 L 279.023438 301.839844 L 260.90625 256.113281 Z M 281.011719 304.242188 L 248.546875 283.730469 L 260.921875 253.523438 L 281.011719 304.242188 " fill-opacity="1" fill-rule="nonzero"/></g><g clip-path="url(#id27)"><path fill="#ec5242" d="M 214.597656 322.757812 L 278.871094 302.890625 L 249.234375 284.164062 Z M 281.160156 303.195312 L 211.542969 324.710938 L 249.0625 282.910156 L 281.160156 303.195312 " fill-opacity="1" fill-rule="nonzero"/></g><g clip-path="url(#id28)"><path fill="#ec5242" d="M 235.554688 332.882812 L 279.140625 303.058594 L 249.4375 284.292969 Z M 280.898438 303.027344 L 233.886719 335.191406 L 248.863281 282.785156 L 280.898438 303.027344 " fill-opacity="1" fill-rule="nonzero"/></g><g clip-path="url(#id29)"><path fill="#ec5242" d="M 267.71875 328.339844 L 279.398438 303.222656 L 250.15625 284.746094 Z M 280.632812 302.859375 L 267.65625 330.769531 L 248.140625 282.332031 L 280.632812 302.859375 " fill-opacity="1" fill-rule="nonzero"/></g><g clip-path="url(#id30)"><path fill="#ec5242" d="M 247.089844 312.714844 L 278.871094 302.890625 L 249.5625 284.371094 Z M 281.160156 303.195312 L 246 314.0625 L 248.738281 282.707031 L 281.160156 303.195312 " fill-opacity="1" fill-rule="nonzero"/></g><g clip-path="url(#id31)"><path fill="#ec5242" d="M 279.613281 302.660156 L 290.542969 257.800781 L 247.871094 312.472656 Z M 292.546875 253.664062 L 280.421875 303.421875 L 245.214844 314.304688 L 292.546875 253.664062 " fill-opacity="1" fill-rule="nonzero"/></g><g clip-path="url(#id32)"><path fill="#ec5242" d="M 278.019531 353.710938 L 279.515625 303.703125 L 214.402344 323.828125 Z M 280.519531 302.382812 L 278.941406 355.207031 L 211.734375 323.640625 L 280.519531 302.382812 " fill-opacity="1" fill-rule="nonzero"/></g><g clip-path="url(#id33)"><path fill="#ec5242" d="M 278.039062 353.101562 L 279.515625 303.703125 L 247.355469 313.640625 Z M 280.519531 302.382812 L 278.921875 355.816406 L 245.734375 313.132812 L 280.519531 302.382812 " fill-opacity="1" fill-rule="nonzero"/></g><path fill="#ec5242" d="M 231.96875 389.691406 L 277.558594 354.558594 L 213.816406 324.617188 Z M 279.402344 354.359375 L 231.421875 391.335938 L 212.320312 322.847656 L 279.402344 354.359375 " fill-opacity="1" fill-rule="nonzero"/><path fill="#ec5242" d="M 231.96875 389.691406 L 277.558594 354.558594 L 213.816406 324.617188 Z M 279.402344 354.359375 L 231.421875 391.335938 L 212.320312 322.847656 L 279.402344 354.359375 " fill-opacity="1" fill-rule="nonzero"/><path fill="#ec5242" d="M 231.96875 389.691406 L 277.558594 354.558594 L 213.816406 324.617188 Z M 279.402344 354.359375 L 231.421875 391.335938 L 212.320312 322.847656 L 279.402344 354.359375 " fill-opacity="1" fill-rule="nonzero"/><path fill="#ec5242" d="M 232.460938 389.570312 L 277.550781 354.347656 L 235.167969 334.773438 Z M 279.394531 354.136719 L 231.390625 391.632812 L 234.269531 333.300781 L 279.394531 354.136719 " fill-opacity="1" fill-rule="nonzero"/><g clip-path="url(#id34)"><path fill="#ec5242" d="M 232.179688 428.289062 L 276.671875 356.464844 L 232.179688 390.75 Z M 280.289062 352.453125 L 231.210938 431.683594 L 231.210938 390.277344 L 280.289062 352.453125 " fill-opacity="1" fill-rule="nonzero"/></g><path fill="#ec5242" d="M 233.386719 388.601562 L 277.886719 354.304688 L 267.621094 330.617188 Z M 279.074219 354.609375 L 230.003906 392.425781 L 267.753906 328.492188 L 279.074219 354.609375 " fill-opacity="1" fill-rule="nonzero"/><path fill="#ec5242" d="M 252.21875 409.9375 L 277.949219 354.453125 L 267.863281 331.167969 Z M 279.011719 354.464844 L 278.917969 354.660156 L 249.695312 417.675781 L 267.515625 327.941406 L 279.011719 354.464844 " fill-opacity="1" fill-rule="nonzero"/><g clip-path="url(#id35)"><path fill="#ec5242" d="M 232.648438 390.390625 L 296.566406 417.261719 L 278.21875 355.273438 Z M 298.074219 418.945312 L 230.742188 390.636719 L 278.742188 353.644531 L 298.074219 418.945312 " fill-opacity="1" fill-rule="nonzero"/></g><g clip-path="url(#id36)"><path fill="#ec5242" d="M 232.394531 390.28125 L 296.253906 417.132812 L 258.378906 346.210938 Z M 298.386719 419.074219 L 230.996094 390.746094 L 258.417969 344.238281 L 298.386719 419.074219 " fill-opacity="1" fill-rule="nonzero"/></g><g clip-path="url(#id37)"><path fill="#ec5242" d="M 232.398438 429.371094 L 296.582031 417.746094 L 258.515625 346.464844 Z M 298.058594 418.460938 L 230.992188 430.605469 L 258.285156 343.980469 L 298.058594 418.460938 " fill-opacity="1" fill-rule="nonzero"/></g><g clip-path="url(#id38)"><path fill="#ec5242" d="M 216.371094 442.742188 L 295.910156 418.035156 L 232.003906 391.167969 Z M 298.726562 418.171875 L 214.914062 444.203125 L 231.390625 389.859375 L 298.726562 418.171875 " fill-opacity="1" fill-rule="nonzero"/></g><g clip-path="url(#id39)"><path fill="#ec5242" d="M 217.789062 442.300781 L 294.863281 418.359375 L 251.113281 414.304688 Z M 299.773438 417.847656 L 213.496094 444.644531 L 250.800781 413.308594 L 299.773438 417.847656 " fill-opacity="1" fill-rule="nonzero"/></g><g clip-path="url(#id40)"><path fill="#ec5242" d="M 233.398438 429.1875 L 293.757812 418.257812 L 251.113281 414.304688 Z M 300.882812 417.949219 L 229.992188 430.785156 L 250.800781 413.308594 L 300.882812 417.949219 " fill-opacity="1" fill-rule="nonzero"/></g><g clip-path="url(#id41)"><path fill="#ec5242" d="M 278.988281 353.667969 L 322.421875 332.136719 L 280.472656 303.929688 Z M 324.339844 332.261719 L 277.972656 355.25 L 279.558594 302.152344 L 324.339844 332.261719 " fill-opacity="1" fill-rule="nonzero"/></g><g clip-path="url(#id42)"><path fill="#ec5242" d="M 268.429688 329.105469 L 321.675781 331.636719 L 280.21875 303.757812 Z M 325.085938 332.761719 L 266.945312 330 L 279.820312 302.328125 L 325.085938 332.761719 " fill-opacity="1" fill-rule="nonzero"/></g><path fill="#ec5242" d="M 210.546875 238.207031 C 207.800781 238.207031 205.578125 235.984375 205.578125 233.246094 C 205.578125 230.503906 207.800781 228.28125 210.546875 228.28125 C 213.292969 228.28125 215.515625 230.503906 215.515625 233.246094 C 215.515625 235.984375 213.292969 238.207031 210.546875 238.207031 Z M 210.546875 239.175781 C 213.824219 239.175781 216.484375 236.519531 216.484375 233.246094 C 216.484375 229.972656 213.824219 227.316406 210.546875 227.316406 C 207.269531 227.316406 204.609375 229.972656 204.609375 233.246094 C 204.609375 236.519531 207.269531 239.175781 210.546875 239.175781 " fill-opacity="1" fill-rule="nonzero"/><path fill="#ec5242" d="M 206.242188 233.246094 C 206.242188 230.875 208.171875 228.949219 210.546875 228.949219 C 212.925781 228.949219 214.851562 230.875 214.851562 233.246094 C 214.851562 235.621094 212.925781 237.542969 210.546875 237.542969 C 208.171875 237.542969 206.242188 235.621094 206.242188 233.246094 " fill-opacity="1" fill-rule="nonzero"/><path fill="#ec5242" d="M 213.070312 328.699219 C 210.324219 328.699219 208.097656 326.472656 208.097656 323.734375 C 208.097656 320.996094 210.324219 318.769531 213.070312 318.769531 C 215.8125 318.769531 218.039062 320.996094 218.039062 323.734375 C 218.039062 326.472656 215.8125 328.699219 213.070312 328.699219 Z M 213.070312 329.664062 C 216.347656 329.664062 219.003906 327.007812 219.003906 323.734375 C 219.003906 320.460938 216.347656 317.804688 213.070312 317.804688 C 209.789062 317.804688 207.132812 320.460938 207.132812 323.734375 C 207.132812 327.007812 209.789062 329.664062 213.070312 329.664062 " fill-opacity="1" fill-rule="nonzero"/><path fill="#ec5242" d="M 208.765625 323.734375 C 208.765625 321.359375 210.691406 319.4375 213.070312 319.4375 C 215.445312 319.4375 217.371094 321.359375 217.371094 323.734375 C 217.371094 326.105469 215.445312 328.03125 213.070312 328.03125 C 210.691406 328.03125 208.765625 326.105469 208.765625 323.734375 " fill-opacity="1" fill-rule="nonzero"/><g clip-path="url(#id43)"><path fill="#ec5242" d="M 280.015625 308.597656 C 277.273438 308.597656 275.046875 306.375 275.046875 303.636719 C 275.046875 300.894531 277.273438 298.671875 280.015625 298.671875 C 282.761719 298.671875 284.988281 300.894531 284.988281 303.636719 C 284.988281 306.375 282.761719 308.597656 280.015625 308.597656 Z M 280.015625 309.5625 C 283.296875 309.5625 285.953125 306.910156 285.953125 303.636719 C 285.953125 300.363281 283.296875 297.707031 280.015625 297.707031 C 276.738281 297.707031 274.082031 300.363281 274.082031 303.636719 C 274.082031 306.910156 276.738281 309.5625 280.015625 309.5625 " fill-opacity="1" fill-rule="nonzero"/></g><g clip-path="url(#id44)"><path fill="#ec5242" d="M 275.714844 303.636719 C 275.714844 301.261719 277.640625 299.339844 280.015625 299.339844 C 282.394531 299.339844 284.320312 301.261719 284.320312 303.636719 C 284.320312 306.007812 282.394531 307.933594 280.015625 307.933594 C 277.640625 307.933594 275.714844 306.007812 275.714844 303.636719 " fill-opacity="1" fill-rule="nonzero"/></g><path fill="#ec5242" d="M 231.695312 395.476562 C 228.949219 395.476562 226.726562 393.253906 226.726562 390.515625 C 226.726562 387.773438 228.949219 385.550781 231.695312 385.550781 C 234.441406 385.550781 236.664062 387.773438 236.664062 390.515625 C 236.664062 393.253906 234.441406 395.476562 231.695312 395.476562 Z M 231.695312 396.441406 C 234.976562 396.441406 237.632812 393.789062 237.632812 390.515625 C 237.632812 387.238281 234.976562 384.585938 231.695312 384.585938 C 228.417969 384.585938 225.757812 387.238281 225.757812 390.515625 C 225.757812 393.789062 228.417969 396.441406 231.695312 396.441406 " fill-opacity="1" fill-rule="nonzero"/><path fill="#ec5242" d="M 227.394531 390.515625 C 227.394531 388.140625 229.320312 386.21875 231.695312 386.21875 C 234.074219 386.21875 236 388.140625 236 390.515625 C 236 392.886719 234.074219 394.808594 231.695312 394.808594 C 229.320312 394.808594 227.394531 392.886719 227.394531 390.515625 " fill-opacity="1" fill-rule="nonzero"/><g clip-path="url(#id45)"><path fill="#ec5242" d="M 278.480469 359.421875 C 275.734375 359.421875 273.511719 357.199219 273.511719 354.457031 C 273.511719 351.71875 275.734375 349.496094 278.480469 349.496094 C 281.226562 349.496094 283.449219 351.71875 283.449219 354.457031 C 283.449219 357.199219 281.226562 359.421875 278.480469 359.421875 Z M 278.480469 360.386719 C 281.757812 360.386719 284.417969 357.734375 284.417969 354.457031 C 284.417969 351.183594 281.757812 348.53125 278.480469 348.53125 C 275.199219 348.53125 272.542969 351.183594 272.542969 354.457031 C 272.542969 357.734375 275.199219 360.386719 278.480469 360.386719 " fill-opacity="1" fill-rule="nonzero"/></g><g clip-path="url(#id46)"><path fill="#ec5242" d="M 274.175781 354.457031 C 274.175781 352.085938 276.105469 350.164062 278.480469 350.164062 C 280.855469 350.164062 282.785156 352.085938 282.785156 354.457031 C 282.785156 356.832031 280.855469 358.753906 278.480469 358.753906 C 276.105469 358.753906 274.175781 356.832031 274.175781 354.457031 " fill-opacity="1" fill-rule="nonzero"/></g><g clip-path="url(#id47)"><path fill="#ec5242" d="M 215.640625 448.4375 C 212.898438 448.4375 210.671875 446.214844 210.671875 443.472656 C 210.671875 440.734375 212.898438 438.511719 215.640625 438.511719 C 218.386719 438.511719 220.609375 440.734375 220.609375 443.472656 C 220.609375 446.214844 218.386719 448.4375 215.640625 448.4375 Z M 215.640625 449.402344 C 218.921875 449.402344 221.578125 446.75 221.578125 443.472656 C 221.578125 440.199219 218.921875 437.546875 215.640625 437.546875 C 212.363281 437.546875 209.703125 440.199219 209.703125 443.472656 C 209.703125 446.75 212.363281 449.402344 215.640625 449.402344 " fill-opacity="1" fill-rule="nonzero"/></g><path fill="#ec5242" d="M 211.339844 443.472656 C 211.339844 441.101562 213.265625 439.175781 215.640625 439.175781 C 218.019531 439.175781 219.945312 441.101562 219.945312 443.472656 C 219.945312 445.847656 218.019531 447.769531 215.640625 447.769531 C 213.265625 447.769531 211.339844 445.847656 211.339844 443.472656 " fill-opacity="1" fill-rule="nonzero"/><path fill="#ec5242" d="M 260.914062 256.59375 C 261.894531 256.59375 262.691406 255.796875 262.691406 254.816406 C 262.691406 253.835938 261.894531 253.042969 260.914062 253.042969 C 259.933594 253.042969 259.136719 253.835938 259.136719 254.816406 C 259.136719 255.796875 259.933594 256.59375 260.914062 256.59375 " fill-opacity="1" fill-rule="nonzero"/><path fill="#ec5242" d="M 267.6875 272.9375 C 268.484375 272.9375 269.132812 272.289062 269.132812 271.496094 C 269.132812 270.699219 268.484375 270.050781 267.6875 270.050781 C 266.890625 270.050781 266.246094 270.699219 266.246094 271.496094 C 266.246094 272.289062 266.890625 272.9375 267.6875 272.9375 " fill-opacity="1" fill-rule="nonzero"/><path fill="#ec5242" d="M 246.359375 314.832031 C 247.15625 314.832031 247.800781 314.183594 247.800781 313.386719 C 247.800781 312.59375 247.15625 311.945312 246.359375 311.945312 C 245.5625 311.945312 244.917969 312.59375 244.917969 313.386719 C 244.917969 314.183594 245.5625 314.832031 246.359375 314.832031 " fill-opacity="1" fill-rule="nonzero"/><path fill="#ec5242" d="M 267.6875 330.996094 C 268.484375 330.996094 269.132812 330.351562 269.132812 329.554688 C 269.132812 328.757812 268.484375 328.109375 267.6875 328.109375 C 266.890625 328.109375 266.246094 328.757812 266.246094 329.554688 C 266.246094 330.351562 266.890625 330.996094 267.6875 330.996094 " fill-opacity="1" fill-rule="nonzero"/><path fill="#ec5242" d="M 258.398438 346.285156 C 258.984375 346.285156 259.460938 345.808594 259.460938 345.222656 C 259.460938 344.640625 258.984375 344.164062 258.398438 344.164062 C 257.8125 344.164062 257.335938 344.640625 257.335938 345.222656 C 257.335938 345.808594 257.8125 346.285156 258.398438 346.285156 " fill-opacity="1" fill-rule="nonzero"/><path fill="#ec5242" d="M 234.71875 335.910156 C 235.753906 335.910156 236.59375 335.070312 236.59375 334.039062 C 236.59375 333.003906 235.753906 332.164062 234.71875 332.164062 C 233.683594 332.164062 232.84375 333.003906 232.84375 334.039062 C 232.84375 335.070312 233.683594 335.910156 234.71875 335.910156 " fill-opacity="1" fill-rule="nonzero"/><path fill="#ec5242" d="M 250.957031 415.246094 C 251.753906 415.246094 252.402344 414.601562 252.402344 413.808594 C 252.402344 413.007812 251.753906 412.363281 250.957031 412.363281 C 250.160156 412.363281 249.511719 413.007812 249.511719 413.808594 C 249.511719 414.601562 250.160156 415.246094 250.957031 415.246094 " fill-opacity="1" fill-rule="nonzero"/><path fill="#ec5242" d="M 231.695312 431.890625 C 232.75 431.890625 233.601562 431.039062 233.601562 429.988281 C 233.601562 428.9375 232.75 428.085938 231.695312 428.085938 C 230.644531 428.085938 229.792969 428.9375 229.792969 429.988281 C 229.792969 431.039062 230.644531 431.890625 231.695312 431.890625 " fill-opacity="1" fill-rule="nonzero"/><path fill="#ec5242" d="M 249.148438 286.324219 C 250.691406 286.324219 251.9375 285.074219 251.9375 283.539062 C 251.9375 282 250.691406 280.75 249.148438 280.75 C 247.609375 280.75 246.359375 282 246.359375 283.539062 C 246.359375 285.074219 247.609375 286.324219 249.148438 286.324219 " fill-opacity="1" fill-rule="nonzero"/></svg>