<svg xmlns="http://www.w3.org/2000/svg" xmlns:xlink="http://www.w3.org/1999/xlink" width="1024" zoomAndPan="magnify" viewBox="0 0 768 449.999984" height="600" preserveAspectRatio="xMidYMid meet" version="1.0"><defs><clipPath id="id1"><path d="M 622.277344 132.195312 L 628.277344 132.195312 L 628.277344 138.195312 L 622.277344 138.195312 Z M 622.277344 132.195312 " clip-rule="nonzero"/></clipPath><clipPath id="id2"><path d="M 569.765625 102.730469 L 575.765625 102.730469 L 575.765625 108.730469 L 569.765625 108.730469 Z M 569.765625 102.730469 " clip-rule="nonzero"/></clipPath><clipPath id="id3"><path d="M 545.710938 26.753906 L 551.710938 26.753906 L 551.710938 32.753906 L 545.710938 32.753906 Z M 545.710938 26.753906 " clip-rule="nonzero"/></clipPath><clipPath id="id4"><path d="M 653.660156 19.367188 L 659.660156 19.367188 L 659.660156 25.367188 L 653.660156 25.367188 Z M 653.660156 19.367188 " clip-rule="nonzero"/></clipPath><clipPath id="id5"><path d="M 654.117188 43.304688 L 660.117188 43.304688 L 660.117188 49.304688 L 654.117188 49.304688 Z M 654.117188 43.304688 " clip-rule="nonzero"/></clipPath><clipPath id="id6"><path d="M 732.332031 67.558594 L 739.832031 67.558594 L 739.832031 75.058594 L 732.332031 75.058594 Z M 732.332031 67.558594 " clip-rule="nonzero"/></clipPath><clipPath id="id7"><path d="M 705.035156 23.371094 L 709.535156 23.371094 L 709.535156 27.871094 L 705.035156 27.871094 Z M 705.035156 23.371094 " clip-rule="nonzero"/></clipPath><clipPath id="id8"><path d="M 609.9375 17.867188 L 613.6875 17.867188 L 613.6875 21.617188 L 609.9375 21.617188 Z M 609.9375 17.867188 " clip-rule="nonzero"/></clipPath><clipPath id="id9"><path d="M 627.878906 168.949219 L 633.878906 168.949219 L 633.878906 174.949219 L 627.878906 174.949219 Z M 627.878906 168.949219 " clip-rule="nonzero"/></clipPath><clipPath id="id10"><path d="M 643.75 220.753906 L 652 220.753906 L 652 229.003906 L 643.75 229.003906 Z M 643.75 220.753906 " clip-rule="nonzero"/></clipPath><clipPath id="id11"><path d="M 606.992188 295.332031 L 612.992188 295.332031 L 612.992188 301.332031 L 606.992188 301.332031 Z M 606.992188 295.332031 " clip-rule="nonzero"/></clipPath><clipPath id="id12"><path d="M 662.148438 298.023438 L 670.398438 298.023438 L 670.398438 306.273438 L 662.148438 306.273438 Z M 662.148438 298.023438 " clip-rule="nonzero"/></clipPath><clipPath id="id13"><path d="M 570.652344 328.160156 L 575.902344 328.160156 L 575.902344 333.410156 L 570.652344 333.410156 Z M 570.652344 328.160156 " clip-rule="nonzero"/></clipPath><clipPath id="id14"><path d="M 622.878906 358.121094 L 627.378906 358.121094 L 627.378906 362.621094 L 622.878906 362.621094 Z M 622.878906 358.121094 " clip-rule="nonzero"/></clipPath><clipPath id="id15"><path d="M 586.75 384.320312 L 592 384.320312 L 592 389.570312 L 586.75 389.570312 Z M 586.75 384.320312 " clip-rule="nonzero"/></clipPath><clipPath id="id16"><path d="M 563.828125 389.019531 L 568.328125 389.019531 L 568.328125 393.519531 L 563.828125 393.519531 Z M 563.828125 389.019531 " clip-rule="nonzero"/></clipPath><clipPath id="id17"><path d="M 541.027344 392.976562 L 544.777344 392.976562 L 544.777344 396.726562 L 541.027344 396.726562 Z M 541.027344 392.976562 " clip-rule="nonzero"/></clipPath><clipPath id="id18"><path d="M 583.289062 411.164062 L 587.789062 411.164062 L 587.789062 415.664062 L 583.289062 415.664062 Z M 583.289062 411.164062 " clip-rule="nonzero"/></clipPath><clipPath id="id19"><path d="M 545.882812 433.644531 L 550.382812 433.644531 L 550.382812 438.144531 L 545.882812 438.144531 Z M 545.882812 433.644531 " clip-rule="nonzero"/></clipPath><clipPath id="id20"><path d="M 626.085938 432.660156 L 632.835938 432.660156 L 632.835938 439.410156 L 626.085938 439.410156 Z M 626.085938 432.660156 " clip-rule="nonzero"/></clipPath><clipPath id="id21"><path d="M 704.5 414.652344 L 709.746094 414.652344 L 709.746094 419.902344 L 704.5 419.902344 Z M 704.5 414.652344 " clip-rule="nonzero"/></clipPath><clipPath id="id22"><path d="M 661.671875 410.386719 L 667.671875 410.386719 L 667.671875 416.386719 L 661.671875 416.386719 Z M 661.671875 410.386719 " clip-rule="nonzero"/></clipPath><clipPath id="id23"><path d="M 732.125 440.582031 L 735.875 440.582031 L 735.875 444.332031 L 732.125 444.332031 Z M 732.125 440.582031 " clip-rule="nonzero"/></clipPath><clipPath id="id24"><path d="M 760.113281 401.75 L 764.613281 401.75 L 764.613281 406.25 L 760.113281 406.25 Z M 760.113281 401.75 " clip-rule="nonzero"/></clipPath><clipPath id="id25"><path d="M 740.597656 377.328125 L 744.347656 377.328125 L 744.347656 381.078125 L 740.597656 381.078125 Z M 740.597656 377.328125 " clip-rule="nonzero"/></clipPath><clipPath id="id26"><path d="M 765.503906 393.089844 L 768 393.089844 L 768 396.839844 L 765.503906 396.839844 Z M 765.503906 393.089844 " clip-rule="nonzero"/></clipPath><clipPath id="id27"><path d="M 750.816406 347.90625 L 756.066406 347.90625 L 756.066406 353.15625 L 750.816406 353.15625 Z M 750.816406 347.90625 " clip-rule="nonzero"/></clipPath><clipPath id="id28"><path d="M 714.414062 326.839844 L 719.664062 326.839844 L 719.664062 332.089844 L 714.414062 332.089844 Z M 714.414062 326.839844 " clip-rule="nonzero"/></clipPath><clipPath id="id29"><path d="M 682.261719 356.980469 L 686.011719 356.980469 L 686.011719 360.730469 L 682.261719 360.730469 Z M 682.261719 356.980469 " clip-rule="nonzero"/></clipPath><clipPath id="id30"><path d="M 697.292969 316.457031 L 703.292969 316.457031 L 703.292969 322.457031 L 697.292969 322.457031 Z M 697.292969 316.457031 " clip-rule="nonzero"/></clipPath><clipPath id="id31"><path d="M 732.457031 293.289062 L 739.207031 293.289062 L 739.207031 300.039062 L 732.457031 300.039062 Z M 732.457031 293.289062 " clip-rule="nonzero"/></clipPath><clipPath id="id32"><path d="M 696.769531 217.175781 L 702.769531 217.175781 L 702.769531 223.175781 L 696.769531 223.175781 Z M 696.769531 217.175781 " clip-rule="nonzero"/></clipPath><clipPath id="id33"><path d="M 710.191406 153.949219 L 715.441406 153.949219 L 715.441406 159.199219 L 710.191406 159.199219 Z M 710.191406 153.949219 " clip-rule="nonzero"/></clipPath><clipPath id="id34"><path d="M 765.476562 167.84375 L 768 167.84375 L 768 172.34375 L 765.476562 172.34375 Z M 765.476562 167.84375 " clip-rule="nonzero"/></clipPath><clipPath id="id35"><path d="M 739.503906 150.910156 L 744.753906 150.910156 L 744.753906 156.160156 L 739.503906 156.160156 Z M 739.503906 150.910156 " clip-rule="nonzero"/></clipPath><clipPath id="id36"><path d="M 681.828125 176.300781 L 687.078125 176.300781 L 687.078125 181.550781 L 681.828125 181.550781 Z M 681.828125 176.300781 " clip-rule="nonzero"/></clipPath><clipPath id="id37"><path d="M 682.277344 131.214844 L 686.777344 131.214844 L 686.777344 135.714844 L 682.277344 135.714844 Z M 682.277344 131.214844 " clip-rule="nonzero"/></clipPath><clipPath id="id38"><path d="M 655.71875 116.945312 L 661.71875 116.945312 L 661.71875 122.945312 L 655.71875 122.945312 Z M 655.71875 116.945312 " clip-rule="nonzero"/></clipPath><clipPath id="id39"><path d="M 731.445312 214.582031 L 735.945312 214.582031 L 735.945312 219.082031 L 731.445312 219.082031 Z M 731.445312 214.582031 " clip-rule="nonzero"/></clipPath><clipPath id="id40"><path d="M 626.917969 392.867188 L 634.417969 392.867188 L 634.417969 400.367188 L 626.917969 400.367188 Z M 626.917969 392.867188 " clip-rule="nonzero"/></clipPath></defs><path stroke-linecap="round" transform="matrix(0.43379, 0.611631, -0.611758, 0.43388, 505.902623, 11.421347)" fill="none" stroke-linejoin="miter" d="M 0.500563 -0.00217728 L 149.536509 0.000832795 " stroke="#f4f6fc" stroke-width="1" stroke-opacity="1" stroke-miterlimit="4"/><path stroke-linecap="round" transform="matrix(-0.0965828, 0.732883, -0.743571, -0.0979913, 507.382294, 0.0025953)" fill="none" stroke-linejoin="miter" d="M 0.497178 -0.00223509 L 14.723073 -0.000859411 " stroke="#f4f6fc" stroke-width="1" stroke-opacity="1" stroke-miterlimit="4"/><path stroke-linecap="round" transform="matrix(0.688315, 0.294999, -0.295445, 0.689356, 505.837535, 11.203579)" fill="none" stroke-linejoin="miter" d="M 0.502588 -0.000405725 L 61.600353 -0.000914007 " stroke="#f4f6fc" stroke-width="1" stroke-opacity="1" stroke-miterlimit="4"/><path stroke-linecap="round" transform="matrix(0.377796, -0.654362, 0.649519, 0.375, 505.941311, 11.785466)" fill="none" stroke-linejoin="miter" d="M 0.500575 -0.00233971 L 18.362948 0.000222642 " stroke="#f4f6fc" stroke-width="1" stroke-opacity="1" stroke-miterlimit="4"/><path stroke-linecap="round" transform="matrix(0.603251, 0.443167, -0.444032, 0.60443, 517.659694, -0.838874)" fill="none" stroke-linejoin="miter" d="M 0.499671 0.000412729 L 151.801009 -0.00111598 " stroke="#f4f6fc" stroke-width="1" stroke-opacity="1" stroke-miterlimit="4"/><path stroke-linecap="round" transform="matrix(0.0955862, 0.751341, -0.744003, 0.0946528, 544.671235, 0.0507599)" fill="none" stroke-linejoin="miter" d="M 0.499104 0.000259308 L 39.117581 0.000243863 " stroke="#f4f6fc" stroke-width="1" stroke-opacity="1" stroke-miterlimit="4"/><path stroke-linecap="round" transform="matrix(-0.455929, 0.609175, -0.60045, -0.449399, 550.013299, -1.442613)" fill="none" stroke-linejoin="miter" d="M 0.501515 -0.000853511 L 11.33165 -0.00130975 " stroke="#f4f6fc" stroke-width="1" stroke-opacity="1" stroke-miterlimit="4"/><path stroke-linecap="round" transform="matrix(-0.413906, 0.623928, -0.624982, -0.414605, 633.897085, 12.618216)" fill="none" stroke-linejoin="miter" d="M 0.49851 -0.00105331 L 147.758672 0.000910708 " stroke="#f4f6fc" stroke-width="1" stroke-opacity="1" stroke-miterlimit="4"/><path stroke-linecap="round" transform="matrix(0.602957, 0.445332, -0.445578, 0.603291, 545.510659, 5.661525)" fill="none" stroke-linejoin="miter" d="M 0.499296 -0.001765 L 140.582756 -0.00303466 " stroke="#f4f6fc" stroke-width="1" stroke-opacity="1" stroke-miterlimit="4"/><path stroke-linecap="round" transform="matrix(0.215656, 0.718506, -0.718341, 0.215606, 577.346753, 53.066098)" fill="none" stroke-linejoin="miter" d="M 0.499991 0.00202409 L 67.496022 0.000459465 " stroke="#f4f6fc" stroke-width="1" stroke-opacity="1" stroke-miterlimit="4"/><path stroke-linecap="round" transform="matrix(-0.670075, 0.32631, -0.328366, -0.674296, 633.729685, 81.905166)" fill="none" stroke-linejoin="miter" d="M 0.499015 0.00236271 L 61.903488 -0.00083092 " stroke="#f4f6fc" stroke-width="1" stroke-opacity="1" stroke-miterlimit="4"/><path stroke-linecap="round" transform="matrix(0.529246, 0.529246, -0.53033, 0.53033, 591.464032, 101.54313)" fill="none" stroke-linejoin="miter" d="M 0.502508 -0.000917966 L 60.626421 -0.000917966 " stroke="#f4f6fc" stroke-width="1" stroke-opacity="1" stroke-miterlimit="4"/><path stroke-linecap="round" transform="matrix(0.658497, 0.36086, -0.360431, 0.657715, 572.119889, 105.783301)" fill="none" stroke-linejoin="miter" d="M 0.500807 0.00124892 L 78.418469 0.00101968 " stroke="#f4f6fc" stroke-width="1" stroke-opacity="1" stroke-miterlimit="4"/><path stroke-linecap="round" transform="matrix(-0.118652, 0.738954, -0.740515, -0.118903, 633.788941, 81.540162)" fill="none" stroke-linejoin="miter" d="M 0.500502 -0.00123422 L 73.661919 0.00256089 " stroke="#f4f6fc" stroke-width="1" stroke-opacity="1" stroke-miterlimit="4"/><path stroke-linecap="round" transform="matrix(0.714151, 0.20533, -0.207242, 0.720799, 622.144189, 108.998063)" fill="none" stroke-linejoin="miter" d="M 0.498674 0.00153554 L 46.947197 -0.00142764 " stroke="#f4f6fc" stroke-width="1" stroke-opacity="1" stroke-miterlimit="4"/><path stroke-linecap="round" transform="matrix(0.2187, 0.714508, -0.717157, 0.219511, 622.587565, 109.001828)" fill="none" stroke-linejoin="miter" d="M 0.499746 0.00215811 L 58.730615 -0.00225134 " stroke="#f4f6fc" stroke-width="1" stroke-opacity="1" stroke-miterlimit="4"/><path stroke-linecap="round" transform="matrix(0.433374, 0.610921, -0.611717, 0.433938, 622.581061, 109.024993)" fill="none" stroke-linejoin="miter" d="M 0.501043 0.00216685 L 23.539075 0.00169443 " stroke="#f4f6fc" stroke-width="1" stroke-opacity="1" stroke-miterlimit="4"/><path stroke-linecap="round" transform="matrix(-0.47634, 0.592821, -0.584648, -0.469773, 633.313093, 124.749614)" fill="none" stroke-linejoin="miter" d="M 0.501451 0.000021442 L 16.277375 0.00159288 " stroke="#f4f6fc" stroke-width="1" stroke-opacity="1" stroke-miterlimit="4"/><path stroke-linecap="round" transform="matrix(0.280143, -0.696115, 0.695771, 0.280005, 633.609925, 124.665619)" fill="none" stroke-linejoin="miter" d="M 0.50143 -0.000570442 L 157.426659 -0.00147332 " stroke="#f4f6fc" stroke-width="1" stroke-opacity="1" stroke-miterlimit="4"/><path stroke-linecap="round" transform="matrix(0.72437, 0.208672, -0.207612, 0.720692, 545.984803, 5.360215)" fill="none" stroke-linejoin="miter" d="M 0.500958 0.000128269 L 39.306235 0.00023611 " stroke="#f4f6fc" stroke-width="1" stroke-opacity="1" stroke-miterlimit="4"/><path stroke-linecap="round" transform="matrix(-0.633283, 0.39676, -0.39819, -0.635566, 574.526633, 13.984824)" fill="none" stroke-linejoin="miter" d="M 0.499205 -0.00111048 L 38.642713 0.000451074 " stroke="#f4f6fc" stroke-width="1" stroke-opacity="1" stroke-miterlimit="4"/><path stroke-linecap="round" transform="matrix(0.735943, -0.197195, 0.194114, 0.724444, 610.157654, 73.258516)" fill="none" stroke-linejoin="miter" d="M 0.502097 0.000899366 L 28.060005 0.00186607 " stroke="#f4f6fc" stroke-width="1" stroke-opacity="1" stroke-miterlimit="4"/><path stroke-linecap="round" transform="matrix(0.700945, 0.247367, -0.249593, 0.707251, 610.060694, 73.428429)" fill="none" stroke-linejoin="miter" d="M 0.498122 -0.00122517 L 32.799259 0.00152601 " stroke="#f4f6fc" stroke-width="1" stroke-opacity="1" stroke-miterlimit="4"/><path stroke-linecap="round" transform="matrix(0.191422, 0.714398, -0.724444, 0.194114, 630.018133, 67.395537)" fill="none" stroke-linejoin="miter" d="M 0.501331 0.00112858 L 19.79297 -0.00226863 " stroke="#f4f6fc" stroke-width="1" stroke-opacity="1" stroke-miterlimit="4"/><path stroke-linecap="round" transform="matrix(-0.538545, 0.519583, -0.520743, -0.539747, 611.06903, 20.377656)" fill="none" stroke-linejoin="miter" d="M 0.49834 -0.000247955 L 62.643792 0.00101114 " stroke="#f4f6fc" stroke-width="1" stroke-opacity="1" stroke-miterlimit="4"/><path stroke-linecap="round" transform="matrix(0.210857, 0.71464, -0.719342, 0.212244, 570.655505, -0.0919126)" fill="none" stroke-linejoin="miter" d="M 0.500578 -0.00092157 L 18.625373 0.00106031 " stroke="#f4f6fc" stroke-width="1" stroke-opacity="1" stroke-miterlimit="4"/><path stroke-linecap="round" transform="matrix(0.732819, 0.127529, -0.128586, 0.738895, 574.820057, 13.772972)" fill="none" stroke-linejoin="miter" d="M 0.501185 -0.00128499 L 48.917889 0.000423694 " stroke="#f4f6fc" stroke-width="1" stroke-opacity="1" stroke-miterlimit="4"/><path stroke-linecap="round" transform="matrix(0.679112, 0.321417, -0.320847, 0.677907, 574.603385, 13.668107)" fill="none" stroke-linejoin="miter" d="M 0.49776 0.0000429902 L 87.353562 0.00152292 " stroke="#f4f6fc" stroke-width="1" stroke-opacity="1" stroke-miterlimit="4"/><path stroke-linecap="round" transform="matrix(0.414577, 0.626491, -0.625455, 0.413892, 574.442321, 13.662525)" fill="none" stroke-linejoin="miter" d="M 0.500018 0.00188605 L 84.363946 -0.000421104 " stroke="#f4f6fc" stroke-width="1" stroke-opacity="1" stroke-miterlimit="4"/><path stroke-linecap="round" transform="matrix(-0.374833, 0.649229, -0.649519, -0.375, 648.942923, -1.141486)" fill="none" stroke-linejoin="miter" d="M 0.501605 0.00153807 L 104.548963 0.00100315 " stroke="#f4f6fc" stroke-width="1" stroke-opacity="1" stroke-miterlimit="4"/><path stroke-linecap="round" transform="matrix(0.28562, 0.696452, -0.693913, 0.284579, 616.49423, -0.0445022)" fill="none" stroke-linejoin="miter" d="M 0.501023 0.000883994 L 59.292828 -0.000317201 " stroke="#f4f6fc" stroke-width="1" stroke-opacity="1" stroke-miterlimit="4"/><path stroke-linecap="round" transform="matrix(0.651215, 0.375979, -0.375, 0.649519, 610.285166, -0.650513)" fill="none" stroke-linejoin="miter" d="M 0.499444 0.00276414 L 35.414192 -0.000645611 " stroke="#f4f6fc" stroke-width="1" stroke-opacity="1" stroke-miterlimit="4"/><path stroke-linecap="round" transform="matrix(0.686624, 0.276594, -0.280241, 0.695676, 633.166549, 12.515448)" fill="none" stroke-linejoin="miter" d="M 0.501621 -0.00265908 L 31.922657 -0.00189008 " stroke="#f4f6fc" stroke-width="1" stroke-opacity="1" stroke-miterlimit="4"/><path stroke-linecap="round" transform="matrix(-0.566848, 0.501498, -0.496961, -0.56172, 655.855811, 23.122595)" fill="none" stroke-linejoin="miter" d="M 0.499637 -0.00327198 L 37.169552 0.00236626 " stroke="#f4f6fc" stroke-width="1" stroke-opacity="1" stroke-miterlimit="4"/><path stroke-linecap="round" transform="matrix(0.736488, 0.131024, -0.131365, 0.738406, 633.900661, 41.812358)" fill="none" stroke-linejoin="miter" d="M 0.501068 0.00121444 L 29.581883 -0.00108062 " stroke="#f4f6fc" stroke-width="1" stroke-opacity="1" stroke-miterlimit="4"/><path stroke-linecap="round" transform="matrix(-0.194794, 0.726982, -0.724444, -0.194114, 647.840291, 0.0030628)" fill="none" stroke-linejoin="miter" d="M 0.501056 0.000691645 L 93.179277 0.00276636 " stroke="#f4f6fc" stroke-width="1" stroke-opacity="1" stroke-miterlimit="4"/><path stroke-linecap="round" transform="matrix(-0.580892, 0.47875, -0.476999, -0.578768, 656.761955, 46.133735)" fill="none" stroke-linejoin="miter" d="M 0.500421 -0.00291803 L 46.333474 -0.000922988 " stroke="#f4f6fc" stroke-width="1" stroke-opacity="1" stroke-miterlimit="4"/><path stroke-linecap="round" transform="matrix(0.179794, 0.728288, -0.72814, 0.179757, 656.706227, 22.840534)" fill="none" stroke-linejoin="miter" d="M 0.49823 -0.00146911 L 152.475788 -0.000942808 " stroke="#f4f6fc" stroke-width="1" stroke-opacity="1" stroke-miterlimit="4"/><path stroke-linecap="round" transform="matrix(0.698026, -0.262831, 0.264287, 0.701892, 659.236667, 20.994875)" fill="none" stroke-linejoin="miter" d="M 0.500408 -0.000101284 L 78.94164 -0.000645346 " stroke="#f4f6fc" stroke-width="1" stroke-opacity="1" stroke-miterlimit="4"/><path stroke-linecap="round" transform="matrix(-0.392954, 0.644103, -0.640255, -0.390607, 670.478866, -0.647474)" fill="none" stroke-linejoin="miter" d="M 0.502148 0.000460006 L 33.310393 -0.00190592 " stroke="#f4f6fc" stroke-width="1" stroke-opacity="1" stroke-miterlimit="4"/><path stroke-linecap="round" transform="matrix(0.629158, 0.391321, -0.396113, 0.636863, 653.405939, -0.191229)" fill="none" stroke-linejoin="miter" d="M 0.4976 0.000650851 L 36.958871 -0.00316905 " stroke="#f4f6fc" stroke-width="1" stroke-opacity="1" stroke-miterlimit="4"/><path stroke-linecap="round" transform="matrix(0.437271, 0.599285, -0.605865, 0.442072, 639.231756, -1.668043)" fill="none" stroke-linejoin="miter" d="M 0.500389 0.00221664 L 36.907186 -0.00146557 " stroke="#f4f6fc" stroke-width="1" stroke-opacity="1" stroke-miterlimit="4"/><path stroke-linecap="round" transform="matrix(0.702936, 0.265925, -0.265375, 0.701481, 658.841555, 22.748764)" fill="none" stroke-linejoin="miter" d="M 0.4985 0.00211731 L 150.192758 -0.00188671 " stroke="#f4f6fc" stroke-width="1" stroke-opacity="1" stroke-miterlimit="4"/><path stroke-linecap="round" transform="matrix(0.743025, 0.0475831, -0.0479316, 0.748467, 658.546547, 22.748066)" fill="none" stroke-linejoin="miter" d="M 0.500015 0.0021102 L 63.970477 0.00132039 " stroke="#f4f6fc" stroke-width="1" stroke-opacity="1" stroke-miterlimit="4"/><path stroke-linecap="round" transform="matrix(0.251048, 0.70716, -0.706783, 0.250914, 487.401576, 381.041397)" fill="none" stroke-linejoin="miter" d="M 0.49955 -0.000505237 L 87.46674 0.000728922 " stroke="#f4f6fc" stroke-width="1" stroke-opacity="1" stroke-miterlimit="4"/><path stroke-linecap="round" transform="matrix(0.558565, 0.49652, -0.498283, 0.560548, 486.91536, 381.31708)" fill="none" stroke-linejoin="miter" d="M 0.501618 0.000469063 L 109.893692 0.00241003 " stroke="#f4f6fc" stroke-width="1" stroke-opacity="1" stroke-miterlimit="4"/><path stroke-linecap="round" transform="matrix(0.742158, -0.109698, 0.109666, 0.741939, 509.477662, 441.968582)" fill="none" stroke-linejoin="miter" d="M 0.498505 0.000223797 L 52.495167 0.00132195 " stroke="#f4f6fc" stroke-width="1" stroke-opacity="1" stroke-miterlimit="4"/><path stroke-linecap="round" transform="matrix(-0.360126, 0.652023, -0.656517, -0.362609, 537.14822, 405.000016)" fill="none" stroke-linejoin="miter" d="M 0.497489 0.000474059 L 67.967209 -0.000642171 " stroke="#f4f6fc" stroke-width="1" stroke-opacity="1" stroke-miterlimit="4"/><path stroke-linecap="round" transform="matrix(-0.151891, 0.726917, -0.734144, -0.153401, 509.42107, 441.974966)" fill="none" stroke-linejoin="miter" d="M 0.50225 0.00140714 L 10.615335 0.000142936 " stroke="#f4f6fc" stroke-width="1" stroke-opacity="1" stroke-miterlimit="4"/><path stroke-linecap="round" transform="matrix(0.614255, 0.459856, -0.449478, 0.600391, 508.570414, 442.042766)" fill="none" stroke-linejoin="miter" d="M 0.502005 -0.000296506 L 17.092878 -0.00114857 " stroke="#f4f6fc" stroke-width="1" stroke-opacity="1" stroke-miterlimit="4"/><path stroke-linecap="round" transform="matrix(0.107768, 0.739702, -0.742165, 0.108127, 537.714812, 404.82352)" fill="none" stroke-linejoin="miter" d="M 0.502731 -0.000728662 L 60.714804 0.000173474 " stroke="#f4f6fc" stroke-width="1" stroke-opacity="1" stroke-miterlimit="4"/><path stroke-linecap="round" transform="matrix(0.746853, -0.0585432, 0.0586101, 0.747706, 537.3479, 403.902569)" fill="none" stroke-linejoin="miter" d="M 0.501592 0.00240237 L 122.639368 -0.00028287 " stroke="#f4f6fc" stroke-width="1" stroke-opacity="1" stroke-miterlimit="4"/><path stroke-linecap="round" transform="matrix(-0.137407, 0.729234, -0.73703, -0.138876, 548.562739, 435.792086)" fill="none" stroke-linejoin="miter" d="M 0.499861 0.0025337 L 18.717003 -0.00175002 " stroke="#f4f6fc" stroke-width="1" stroke-opacity="1" stroke-miterlimit="4"/><path stroke-linecap="round" transform="matrix(0.334347, 0.652679, -0.667512, 0.341946, 548.316835, 436.60763)" fill="none" stroke-linejoin="miter" d="M 0.499772 -0.000662966 L 10.762645 0.00184645 " stroke="#f4f6fc" stroke-width="1" stroke-opacity="1" stroke-miterlimit="4"/><path stroke-linecap="round" transform="matrix(0.751874, -0.0736273, 0.0730942, 0.74643, 487.051872, 381.9196)" fill="none" stroke-linejoin="miter" d="M 0.502471 0.000279028 L 40.210335 0.00256793 " stroke="#f4f6fc" stroke-width="1" stroke-opacity="1" stroke-miterlimit="4"/><path stroke-linecap="round" transform="matrix(0.727916, 0.179181, -0.179266, 0.728261, 517.855822, 379.250243)" fill="none" stroke-linejoin="miter" d="M 0.49867 0.000340745 L 65.53828 -0.00178578 " stroke="#f4f6fc" stroke-width="1" stroke-opacity="1" stroke-miterlimit="4"/><path stroke-linecap="round" transform="matrix(0.47616, 0.577345, -0.578604, 0.477198, 517.47391, 379.34121)" fill="none" stroke-linejoin="miter" d="M 0.498099 0.000253391 L 42.596989 -0.00162566 " stroke="#f4f6fc" stroke-width="1" stroke-opacity="1" stroke-miterlimit="4"/><path stroke-linecap="round" transform="matrix(0.640883, 0.393134, -0.392164, 0.639302, 517.474006, 379.341474)" fill="none" stroke-linejoin="miter" d="M 0.499034 0.00219119 L 37.41567 -0.000106763 " stroke="#f4f6fc" stroke-width="1" stroke-opacity="1" stroke-miterlimit="4"/><path stroke-linecap="round" transform="matrix(-0.610819, 0.438889, -0.437637, -0.609076, 613.842446, 344.085794)" fill="none" stroke-linejoin="miter" d="M 0.501603 0.00205976 L 114.178199 -0.00301539 " stroke="#f4f6fc" stroke-width="1" stroke-opacity="1" stroke-miterlimit="4"/><path stroke-linecap="round" transform="matrix(0.739717, -0.123768, 0.123768, 0.739717, 566.039562, 391.012909)" fill="none" stroke-linejoin="miter" d="M 0.501365 -0.00221297 L 33.511321 -0.002695 " stroke="#f4f6fc" stroke-width="1" stroke-opacity="1" stroke-miterlimit="4"/><path stroke-linecap="round" transform="matrix(0.730815, 0.179861, -0.179234, 0.728269, 543.78062, 395.220116)" fill="none" stroke-linejoin="miter" d="M 0.497609 -0.00140365 L 138.026701 0.00158631 " stroke="#f4f6fc" stroke-width="1" stroke-opacity="1" stroke-miterlimit="4"/><path stroke-linecap="round" transform="matrix(-0.104939, 0.736344, -0.742498, -0.105816, 566.033418, 391.288534)" fill="none" stroke-linejoin="miter" d="M 0.499484 0.000719107 L 42.874949 -0.00131479 " stroke="#f4f6fc" stroke-width="1" stroke-opacity="1" stroke-miterlimit="4"/><path stroke-linecap="round" transform="matrix(0.664549, 0.356612, -0.354632, 0.66086, 561.078546, 423.196719)" fill="none" stroke-linejoin="miter" d="M 0.499208 0.000389533 L 75.085261 -0.000541007 " stroke="#f4f6fc" stroke-width="1" stroke-opacity="1" stroke-miterlimit="4"/><path stroke-linecap="round" transform="matrix(-0.549952, 0.500752, -0.504943, -0.554556, 584.316712, 415.327024)" fill="none" stroke-linejoin="miter" d="M 0.499431 -0.00182148 L 55.979376 -0.00102767 " stroke="#f4f6fc" stroke-width="1" stroke-opacity="1" stroke-miterlimit="4"/><path stroke-linecap="round" transform="matrix(0.484545, -0.589401, 0.579355, 0.476286, 547.843507, 450.246709)" fill="none" stroke-linejoin="miter" d="M 0.499001 0.00110801 L 10.327014 0.000424227 " stroke="#f4f6fc" stroke-width="1" stroke-opacity="1" stroke-miterlimit="4"/><path stroke-linecap="round" transform="matrix(-0.724887, 0.194233, -0.194114, -0.724444, 644.659188, 419.969871)" fill="none" stroke-linejoin="miter" d="M 0.499631 0.00070375 L 127.43279 -0.00159493 " stroke="#f4f6fc" stroke-width="1" stroke-opacity="1" stroke-miterlimit="4"/><path stroke-linecap="round" transform="matrix(0.551286, -0.521349, 0.515328, 0.544919, 548.849275, 435.259238)" fill="none" stroke-linejoin="miter" d="M 0.498778 0.0014668 L 22.2436 0.00277185 " stroke="#f4f6fc" stroke-width="1" stroke-opacity="1" stroke-miterlimit="4"/><path stroke-linecap="round" transform="matrix(0.231367, 0.720285, -0.714066, 0.229369, 561.649362, 423.273207)" fill="none" stroke-linejoin="miter" d="M 0.499558 -0.000954692 L 37.187463 -0.000847393 " stroke="#f4f6fc" stroke-width="1" stroke-opacity="1" stroke-miterlimit="4"/><path stroke-linecap="round" transform="matrix(-0.635834, 0.395327, -0.396008, -0.636929, 627.790093, 397.96116)" fill="none" stroke-linejoin="miter" d="M 0.500395 -0.00184695 L 117.715998 0.00216377 " stroke="#f4f6fc" stroke-width="1" stroke-opacity="1" stroke-miterlimit="4"/><path stroke-linecap="round" transform="matrix(0.675609, -0.326175, 0.326077, 0.675406, 574.777985, 450.271453)" fill="none" stroke-linejoin="miter" d="M 0.501093 0.00202235 L 51.486952 -0.00169079 " stroke="#f4f6fc" stroke-width="1" stroke-opacity="1" stroke-miterlimit="4"/><path stroke-linecap="round" transform="matrix(0.583062, 0.460299, -0.464725, 0.588668, 586.705816, 415.048864)" fill="none" stroke-linejoin="miter" d="M 0.497283 -0.000711622 L 38.887116 0.00109673 " stroke="#f4f6fc" stroke-width="1" stroke-opacity="1" stroke-miterlimit="4"/><path stroke-linecap="round" transform="matrix(-0.753366, -0.108023, 0.106452, -0.742407, 630.838141, 436.025102)" fill="none" stroke-linejoin="miter" d="M 0.500384 -0.00216518 L 28.090114 -0.00198765 " stroke="#f4f6fc" stroke-width="1" stroke-opacity="1" stroke-miterlimit="4"/><path stroke-linecap="round" transform="matrix(-0.359709, 0.659139, -0.658347, -0.359277, 609.79907, 432.614534)" fill="none" stroke-linejoin="miter" d="M 0.500215 -0.00296996 L 25.48145 0.000528539 " stroke="#f4f6fc" stroke-width="1" stroke-opacity="1" stroke-miterlimit="4"/><path stroke-linecap="round" transform="matrix(-0.270875, 0.690185, -0.698156, -0.274004, 609.673334, 433.647566)" fill="none" stroke-linejoin="miter" d="M 0.498834 -0.00121732 L 22.775938 -0.0000188003 " stroke="#f4f6fc" stroke-width="1" stroke-opacity="1" stroke-miterlimit="4"/><path stroke-linecap="round" transform="matrix(0.284464, 0.687944, -0.693085, 0.28659, 609.759806, 433.64915)" fill="none" stroke-linejoin="miter" d="M 0.498997 -0.000852286 L 22.689312 -0.00107008 " stroke="#f4f6fc" stroke-width="1" stroke-opacity="1" stroke-miterlimit="4"/><path stroke-linecap="round" transform="matrix(0.577511, 0.471642, -0.474406, 0.580895, 685.241097, 359.386614)" fill="none" stroke-linejoin="miter" d="M 0.500314 -0.00256395 L 47.788943 -0.000219008 " stroke="#f4f6fc" stroke-width="1" stroke-opacity="1" stroke-miterlimit="4"/><path stroke-linecap="round" transform="matrix(-0.394861, 0.637895, -0.637711, -0.394747, 712.665198, 381.03867)" fill="none" stroke-linejoin="miter" d="M 0.501302 -0.00234629 L 107.477017 0.000275837 " stroke="#f4f6fc" stroke-width="1" stroke-opacity="1" stroke-miterlimit="4"/><path stroke-linecap="round" transform="matrix(-0.63134, 0.41143, -0.409482, -0.62835, 761.543211, 404.515576)" fill="none" stroke-linejoin="miter" d="M 0.502076 -0.000812249 L 98.033226 -0.00342148 " stroke="#f4f6fc" stroke-width="1" stroke-opacity="1" stroke-miterlimit="4"/><path stroke-linecap="round" transform="matrix(-0.36221, 0.65521, -0.65638, -0.362856, 763.01345, 404.276489)" fill="none" stroke-linejoin="miter" d="M 0.501811 -0.000520142 L 69.624917 0.00253903 " stroke="#f4f6fc" stroke-width="1" stroke-opacity="1" stroke-miterlimit="4"/><path stroke-linecap="round" transform="matrix(0.745952, -0.118289, 0.117463, 0.740744, 733.425197, 442.33979)" fill="none" stroke-linejoin="miter" d="M 0.498177 0.000525548 L 46.176799 0.00178113 " stroke="#f4f6fc" stroke-width="1" stroke-opacity="1" stroke-miterlimit="4"/><path stroke-linecap="round" transform="matrix(0.0863392, 0.746271, -0.74503, 0.0861957, 763.45109, 404.100065)" fill="none" stroke-linejoin="miter" d="M 0.499562 -0.00251204 L 46.436105 -0.000792327 " stroke="#f4f6fc" stroke-width="1" stroke-opacity="1" stroke-miterlimit="4"/><path stroke-linecap="round" transform="matrix(-0.694999, 0.252949, -0.256506, -0.704773, 734.355485, 442.341998)" fill="none" stroke-linejoin="miter" d="M 0.500348 -0.000269897 L 29.934892 -0.000111535 " stroke="#f4f6fc" stroke-width="1" stroke-opacity="1" stroke-miterlimit="4"/><path stroke-linecap="round" transform="matrix(0.701891, -0.252121, 0.253541, 0.705845, 706.823815, 417.108016)" fill="none" stroke-linejoin="miter" d="M 0.501962 -0.0014047 L 85.991342 -0.0028015 " stroke="#f4f6fc" stroke-width="1" stroke-opacity="1" stroke-miterlimit="4"/><path stroke-linecap="round" transform="matrix(0.256312, 0.708231, -0.705236, 0.255228, 712.758534, 382.294804)" fill="none" stroke-linejoin="miter" d="M 0.499411 -0.00025403 L 84.146412 0.00292383 " stroke="#f4f6fc" stroke-width="1" stroke-opacity="1" stroke-miterlimit="4"/><path stroke-linecap="round" transform="matrix(0.551997, 0.507033, -0.507356, 0.552349, 707.712799, 417.462855)" fill="none" stroke-linejoin="miter" d="M 0.498114 -0.00103477 L 48.533681 -0.00126145 " stroke="#f4f6fc" stroke-width="1" stroke-opacity="1" stroke-miterlimit="4"/><path stroke-linecap="round" transform="matrix(0.571948, 0.456578, -0.467908, 0.586142, 734.496173, 442.15307)" fill="none" stroke-linejoin="miter" d="M 0.500282 0.00226119 L 16.922864 -0.00130276 " stroke="#f4f6fc" stroke-width="1" stroke-opacity="1" stroke-miterlimit="4"/><path stroke-linecap="round" transform="matrix(-0.196539, 0.733492, -0.724444, -0.194114, 706.821631, 417.10096)" fill="none" stroke-linejoin="miter" d="M 0.501569 0.000547924 L 37.034668 -0.000113639 " stroke="#f4f6fc" stroke-width="1" stroke-opacity="1" stroke-miterlimit="4"/><path stroke-linecap="round" transform="matrix(-0.599655, 0.458346, -0.455453, -0.595871, 706.696183, 416.827984)" fill="none" stroke-linejoin="miter" d="M 0.503077 -0.0000456743 L 51.169913 0.000393957 " stroke="#f4f6fc" stroke-width="1" stroke-opacity="1" stroke-miterlimit="4"/><path stroke-linecap="round" transform="matrix(0.732081, 0.114332, -0.115728, 0.741017, 675.587193, 440.660462)" fill="none" stroke-linejoin="miter" d="M 0.500089 0.00150059 L 31.896091 0.00185402 " stroke="#f4f6fc" stroke-width="1" stroke-opacity="1" stroke-miterlimit="4"/><path stroke-linecap="round" transform="matrix(0.142998, 0.710277, -0.735247, 0.148025, 699.422647, 444.115549)" fill="none" stroke-linejoin="miter" d="M 0.497909 -0.00305549 L 7.795731 -0.00223561 " stroke="#f4f6fc" stroke-width="1" stroke-opacity="1" stroke-miterlimit="4"/><path stroke-linecap="round" transform="matrix(-0.318626, 0.684211, -0.679893, -0.316615, 664.353994, 414.75748)" fill="none" stroke-linejoin="miter" d="M 0.49733 0.000322844 L 51.189154 0.00125478 " stroke="#f4f6fc" stroke-width="1" stroke-opacity="1" stroke-miterlimit="4"/><path stroke-linecap="round" transform="matrix(0.642701, 0.386569, -0.386569, 0.642701, 631.991461, 437.343638)" fill="none" stroke-linejoin="miter" d="M 0.498431 -0.0018043 L 31.503972 0.00208188 " stroke="#f4f6fc" stroke-width="1" stroke-opacity="1" stroke-miterlimit="4"/><path stroke-linecap="round" transform="matrix(0.447738, 0.605352, -0.602987, 0.445989, 630.846949, 437.701478)" fill="none" stroke-linejoin="miter" d="M 0.499336 0.000345176 L 19.42451 0.00177354 " stroke="#f4f6fc" stroke-width="1" stroke-opacity="1" stroke-miterlimit="4"/><path stroke-linecap="round" transform="matrix(0.633277, 0.414046, -0.410423, 0.627736, 644.666508, 420.019167)" fill="none" stroke-linejoin="miter" d="M 0.501628 -0.000481153 L 49.070501 -0.00108355 " stroke="#f4f6fc" stroke-width="1" stroke-opacity="1" stroke-miterlimit="4"/><path stroke-linecap="round" transform="matrix(-0.498012, 0.559465, -0.560204, -0.49867, 666.396178, 394.577518)" fill="none" stroke-linejoin="miter" d="M 0.4971 0.000319423 L 70.596904 -0.000370071 " stroke="#f4f6fc" stroke-width="1" stroke-opacity="1" stroke-miterlimit="4"/><path stroke-linecap="round" transform="matrix(0.680453, 0.320197, -0.319335, 0.67862, 665.771338, 394.857039)" fill="none" stroke-linejoin="miter" d="M 0.501209 -0.00279922 L 28.435768 -0.00170473 " stroke="#f4f6fc" stroke-width="1" stroke-opacity="1" stroke-miterlimit="4"/><path stroke-linecap="round" transform="matrix(-0.342665, 0.677126, -0.669191, -0.33865, 685.046793, 404.205881)" fill="none" stroke-linejoin="miter" d="M 0.49854 0.001435 L 27.185262 0.00131318 " stroke="#f4f6fc" stroke-width="1" stroke-opacity="1" stroke-miterlimit="4"/><path stroke-linecap="round" transform="matrix(0.751365, 0.0654269, -0.0650618, 0.747173, 644.461788, 419.980695)" fill="none" stroke-linejoin="miter" d="M 0.497781 -0.00206752 L 41.277688 -0.00224769 " stroke="#f4f6fc" stroke-width="1" stroke-opacity="1" stroke-miterlimit="4"/><path stroke-linecap="round" transform="matrix(0.0333193, 0.744082, -0.749249, 0.0335507, 675.428217, 422.870271)" fill="none" stroke-linejoin="miter" d="M 0.499859 -0.000587562 L 35.762535 -0.00172569 " stroke="#f4f6fc" stroke-width="1" stroke-opacity="1" stroke-miterlimit="4"/><path stroke-linecap="round" transform="matrix(0.562337, 0.495024, -0.495565, 0.562952, 711.69483, 381.294374)" fill="none" stroke-linejoin="miter" d="M 0.50152 0.000587674 L 99.620645 0.000714385 " stroke="#f4f6fc" stroke-width="1" stroke-opacity="1" stroke-miterlimit="4"/><path stroke-linecap="round" transform="matrix(0.226803, 0.708783, -0.71432, 0.228575, 754.047555, 350.815079)" fill="none" stroke-linejoin="miter" d="M 0.49775 0.000406525 L 59.980788 -0.00131504 " stroke="#f4f6fc" stroke-width="1" stroke-opacity="1" stroke-miterlimit="4"/><path stroke-linecap="round" transform="matrix(-0.278512, 0.696054, -0.696326, -0.278621, 753.695235, 350.702286)" fill="none" stroke-linejoin="miter" d="M 0.501219 0.0013674 L 39.530861 -0.00298662 " stroke="#f4f6fc" stroke-width="1" stroke-opacity="1" stroke-miterlimit="4"/><path stroke-linecap="round" transform="matrix(0.634057, 0.397212, -0.398167, 0.635581, 743.024476, 379.102149)" fill="none" stroke-linejoin="miter" d="M 0.498138 0.00120529 L 38.595968 0.00104292 " stroke="#f4f6fc" stroke-width="1" stroke-opacity="1" stroke-miterlimit="4"/><path stroke-linecap="round" transform="matrix(-0.749833, 0.0650157, -0.0647872, -0.747196, 742.189948, 379.199766)" fill="none" stroke-linejoin="miter" d="M 0.497973 0.00224014 L 39.376402 0.00272972 " stroke="#f4f6fc" stroke-width="1" stroke-opacity="1" stroke-miterlimit="4"/><path stroke-linecap="round" transform="matrix(0.46849, 0.586025, -0.585812, 0.46832, 742.82446, 378.84832)" fill="none" stroke-linejoin="miter" d="M 0.49917 -0.00047327 L 42.491401 0.00136159 " stroke="#f4f6fc" stroke-width="1" stroke-opacity="1" stroke-miterlimit="4"/><path stroke-linecap="round" transform="matrix(-0.10165, 0.738987, -0.743004, -0.102203, 711.980694, 382.161006)" fill="none" stroke-linejoin="miter" d="M 0.501029 0.000103827 L 45.764702 0.000768435 " stroke="#f4f6fc" stroke-width="1" stroke-opacity="1" stroke-miterlimit="4"/><path stroke-linecap="round" transform="matrix(0.148727, 0.73405, -0.735064, 0.148933, 679.948089, 281.814002)" fill="none" stroke-linejoin="miter" d="M 0.498508 -0.00164183 L 180.753738 -0.00130175 " stroke="#f4f6fc" stroke-width="1" stroke-opacity="1" stroke-miterlimit="4"/><path stroke-linecap="round" transform="matrix(-0.416715, 0.625837, -0.624272, -0.415673, 654.341867, 93.081614)" fill="none" stroke-linejoin="miter" d="M 0.500512 0.000774679 L 49.385191 0.000970754 " stroke="#f4f6fc" stroke-width="1" stroke-opacity="1" stroke-miterlimit="4"/><path stroke-linecap="round" transform="matrix(0.282553, 0.698477, -0.695267, 0.281254, 654.606707, 93.223368)" fill="none" stroke-linejoin="miter" d="M 0.501043 0.00314166 L 67.198705 0.000180929 " stroke="#f4f6fc" stroke-width="1" stroke-opacity="1" stroke-miterlimit="4"/><path stroke-linecap="round" transform="matrix(0.73179, -0.137119, 0.138128, 0.737171, 633.263749, 124.109594)" fill="none" stroke-linejoin="miter" d="M 0.498548 0.00235363 L 33.764851 0.000935129 " stroke="#f4f6fc" stroke-width="1" stroke-opacity="1" stroke-miterlimit="4"/><path stroke-linecap="round" transform="matrix(0.371986, 0.644299, -0.649519, 0.375, 633.192397, 124.096147)" fill="none" stroke-linejoin="miter" d="M 0.499965 -0.000815064 L 26.73315 0.0000625426 " stroke="#f4f6fc" stroke-width="1" stroke-opacity="1" stroke-miterlimit="4"/><path stroke-linecap="round" transform="matrix(-0.425316, 0.61385, -0.616483, -0.42714, 657.543011, 120.006744)" fill="none" stroke-linejoin="miter" d="M 0.497433 -0.000951532 L 50.729658 -0.00301253 " stroke="#f4f6fc" stroke-width="1" stroke-opacity="1" stroke-miterlimit="4"/><path stroke-linecap="round" transform="matrix(0.0947226, 0.738398, -0.743904, 0.095429, 625.766677, 137.45955)" fill="none" stroke-linejoin="miter" d="M 0.498906 0.00192878 L 43.836076 0.00131114 " stroke="#f4f6fc" stroke-width="1" stroke-opacity="1" stroke-miterlimit="4"/><path stroke-linecap="round" transform="matrix(-0.155492, 0.730969, -0.733586, -0.156049, 624.602485, 138.159731)" fill="none" stroke-linejoin="miter" d="M 0.498036 0.00219079 L 95.844143 0.000350955 " stroke="#f4f6fc" stroke-width="1" stroke-opacity="1" stroke-miterlimit="4"/><g clip-path="url(#id1)"><path fill="#233dff" d="M 625.277344 132.195312 C 623.621094 132.195312 622.277344 133.539062 622.277344 135.195312 C 622.277344 136.851562 623.621094 138.195312 625.277344 138.195312 C 626.933594 138.195312 628.277344 136.851562 628.277344 135.195312 C 628.277344 133.539062 626.933594 132.195312 625.277344 132.195312 " fill-opacity="1" fill-rule="nonzero"/></g><path stroke-linecap="round" transform="matrix(-0.757196, -0.0923108, 0.0907616, -0.744488, 629.655085, 210.753821)" fill="none" stroke-linejoin="miter" d="M 0.498986 0.000978066 L 26.050824 0.00187126 " stroke="#f4f6fc" stroke-width="1" stroke-opacity="1" stroke-miterlimit="4"/><path stroke-linecap="round" transform="matrix(-0.288106, -0.690496, 0.692166, -0.288802, 633.733453, 266.616541)" fill="none" stroke-linejoin="miter" d="M 0.501944 0.00145082 L 83.707884 0.000641798 " stroke="#f4f6fc" stroke-width="1" stroke-opacity="1" stroke-miterlimit="4"/><path stroke-linecap="round" transform="matrix(-0.68662, -0.30527, 0.304692, -0.685319, 656.836187, 247.836835)" fill="none" stroke-linejoin="miter" d="M 0.501166 0.000365318 L 32.444583 -0.00163226 " stroke="#f4f6fc" stroke-width="1" stroke-opacity="1" stroke-miterlimit="4"/><path stroke-linecap="round" transform="matrix(0.414623, -0.626111, 0.625318, 0.414098, 572.683505, 330.441507)" fill="none" stroke-linejoin="miter" d="M 0.499354 0.000121382 L 147.326699 0.00148779 " stroke="#f4f6fc" stroke-width="1" stroke-opacity="1" stroke-miterlimit="4"/><path stroke-linecap="round" transform="matrix(0.142681, -0.738928, 0.736397, 0.142192, 613.472006, 344.792083)" fill="none" stroke-linejoin="miter" d="M 0.500875 -0.000682471 L 144.998647 -0.000479288 " stroke="#f4f6fc" stroke-width="1" stroke-opacity="1" stroke-miterlimit="4"/><path stroke-linecap="round" transform="matrix(-0.711776, 0.246341, -0.245295, -0.708753, 664.701826, 302.153619)" fill="none" stroke-linejoin="miter" d="M 0.498085 -0.00144753 L 102.064843 -0.000655571 " stroke="#f4f6fc" stroke-width="1" stroke-opacity="1" stroke-miterlimit="4"/><path stroke-linecap="round" transform="matrix(-0.539838, -0.520649, 0.520649, -0.539838, 624.965365, 359.51467)" fill="none" stroke-linejoin="miter" d="M 0.500535 0.000298285 L 61.505868 -0.000858891 " stroke="#f4f6fc" stroke-width="1" stroke-opacity="1" stroke-miterlimit="4"/><path stroke-linecap="round" transform="matrix(-0.655189, -0.362185, 0.362846, -0.656386, 625.430173, 359.80333)" fill="none" stroke-linejoin="miter" d="M 0.501927 0.000679944 L 76.648081 -0.000604118 " stroke="#f4f6fc" stroke-width="1" stroke-opacity="1" stroke-miterlimit="4"/><path stroke-linecap="round" transform="matrix(-0.212472, -0.720705, 0.719389, -0.212084, 589.565248, 386.883133)" fill="none" stroke-linejoin="miter" d="M 0.498437 0.00221457 L 76.363505 -0.000458447 " stroke="#f4f6fc" stroke-width="1" stroke-opacity="1" stroke-miterlimit="4"/><path stroke-linecap="round" transform="matrix(0.0749885, -0.750982, 0.746289, 0.0745198, 566.446602, 391.228153)" fill="none" stroke-linejoin="miter" d="M 0.501486 0.0002245 L 79.007983 -0.000266404 " stroke="#f4f6fc" stroke-width="1" stroke-opacity="1" stroke-miterlimit="4"/><path stroke-linecap="round" transform="matrix(-0.728223, 0.168891, -0.169444, -0.730608, 635.951628, 376.345077)" fill="none" stroke-linejoin="miter" d="M 0.502108 0.000261387 L 61.700994 0.000235528 " stroke="#f4f6fc" stroke-width="1" stroke-opacity="1" stroke-miterlimit="4"/><path stroke-linecap="round" transform="matrix(-0.638327, -0.387753, 0.389379, -0.641002, 643.202532, 419.636367)" fill="none" stroke-linejoin="miter" d="M 0.50139 0.000850841 L 81.860136 0.000466292 " stroke="#f4f6fc" stroke-width="1" stroke-opacity="1" stroke-miterlimit="4"/><path stroke-linecap="round" transform="matrix(-0.732166, -0.170573, 0.170171, -0.730439, 628.549309, 396.355193)" fill="none" stroke-linejoin="miter" d="M 0.499637 0.000598813 L 52.389902 0.00126784 " stroke="#f4f6fc" stroke-width="1" stroke-opacity="1" stroke-miterlimit="4"/><path stroke-linecap="round" transform="matrix(-0.489399, -0.576482, 0.571753, -0.485385, 586.2442, 414.490936)" fill="none" stroke-linejoin="miter" d="M 0.499139 0.000136348 L 39.170159 -0.000230061 " stroke="#f4f6fc" stroke-width="1" stroke-opacity="1" stroke-miterlimit="4"/><path stroke-linecap="round" transform="matrix(0.152804, -0.73439, 0.734274, 0.15278, 609.84383, 433.230518)" fill="none" stroke-linejoin="miter" d="M 0.500501 0.00213299 L 98.492924 0.000844429 " stroke="#f4f6fc" stroke-width="1" stroke-opacity="1" stroke-miterlimit="4"/><path stroke-linecap="round" transform="matrix(-0.747894, 0.0822353, -0.0819728, -0.745507, 753.681579, 351.025432)" fill="none" stroke-linejoin="miter" d="M 0.498709 0.0000497162 L 92.219813 -0.000295756 " stroke="#f4f6fc" stroke-width="1" stroke-opacity="1" stroke-miterlimit="4"/><path stroke-linecap="round" transform="matrix(-0.735153, 0.142025, -0.142263, -0.736384, 684.518217, 358.692922)" fill="none" stroke-linejoin="miter" d="M 0.498194 -0.00264346 L 55.60924 0.0013226 " stroke="#f4f6fc" stroke-width="1" stroke-opacity="1" stroke-miterlimit="4"/><path stroke-linecap="round" transform="matrix(-0.343373, -0.668288, 0.667095, -0.34276, 742.226668, 378.100898)" fill="none" stroke-linejoin="miter" d="M 0.501515 0.000338914 L 69.386111 0.00148176 " stroke="#f4f6fc" stroke-width="1" stroke-opacity="1" stroke-miterlimit="4"/><path stroke-linecap="round" transform="matrix(0.378212, -0.655082, 0.649519, 0.375, 717.94407, 327.971283)" fill="none" stroke-linejoin="miter" d="M 0.498857 0.000106398 L 45.114672 0.001302 " stroke="#f4f6fc" stroke-width="1" stroke-opacity="1" stroke-miterlimit="4"/><path stroke-linecap="round" transform="matrix(-0.628504, 0.400884, -0.40332, -0.632323, 735.374669, 297.227761)" fill="none" stroke-linejoin="miter" d="M 0.503132 -0.000362027 L 53.830116 -0.00189519 " stroke="#f4f6fc" stroke-width="1" stroke-opacity="1" stroke-miterlimit="4"/><path stroke-linecap="round" transform="matrix(-0.654619, -0.360471, 0.361771, -0.656979, 717.615606, 329.171283)" fill="none" stroke-linejoin="miter" d="M 0.498366 -0.000839018 L 25.603394 0.000889782 " stroke="#f4f6fc" stroke-width="1" stroke-opacity="1" stroke-miterlimit="4"/><path stroke-linecap="round" transform="matrix(-0.674306, 0.335192, -0.333847, -0.6716, 715.117758, 330.51554)" fill="none" stroke-linejoin="miter" d="M 0.499504 -0.000929155 L 108.075347 -0.000900872 " stroke="#f4f6fc" stroke-width="1" stroke-opacity="1" stroke-miterlimit="4"/><path stroke-linecap="round" transform="matrix(-0.394317, 0.640739, -0.638736, -0.393085, 716.274966, 330.178275)" fill="none" stroke-linejoin="miter" d="M 0.501313 -0.00130767 L 129.094755 -0.000606115 " stroke="#f4f6fc" stroke-width="1" stroke-opacity="1" stroke-miterlimit="4"/><path stroke-linecap="round" transform="matrix(-0.14251, -0.735028, 0.736289, -0.142754, 712.543734, 382.290205)" fill="none" stroke-linejoin="miter" d="M 0.501025 0.000438481 L 81.647518 -0.00260264 " stroke="#f4f6fc" stroke-width="1" stroke-opacity="1" stroke-miterlimit="4"/><path stroke-linecap="round" transform="matrix(-0.346499, 0.66094, -0.664253, -0.348235, 684.158049, 359.791407)" fill="none" stroke-linejoin="miter" d="M 0.499334 0.000986114 L 52.779144 -0.00143859 " stroke="#f4f6fc" stroke-width="1" stroke-opacity="1" stroke-miterlimit="4"/><path stroke-linecap="round" transform="matrix(-0.651916, 0.376384, -0.375, -0.649519, 684.998337, 358.632277)" fill="none" stroke-linejoin="miter" d="M 0.500476 0.000516201 L 16.44681 -0.00250973 " stroke="#f4f6fc" stroke-width="1" stroke-opacity="1" stroke-miterlimit="4"/><path stroke-linecap="round" transform="matrix(0.419135, -0.622215, 0.622035, 0.419014, 652.261475, 397.636433)" fill="none" stroke-linejoin="miter" d="M 0.502425 0.000959667 L 53.499111 -0.00201115 " stroke="#f4f6fc" stroke-width="1" stroke-opacity="1" stroke-miterlimit="4"/><path stroke-linecap="round" transform="matrix(0.174763, -0.729354, 0.729354, 0.174763, 666.376306, 394.123973)" fill="none" stroke-linejoin="miter" d="M 0.502283 0.0010383 L 37.504664 -0.00143275 " stroke="#f4f6fc" stroke-width="1" stroke-opacity="1" stroke-miterlimit="4"/><path stroke-linecap="round" transform="matrix(-0.730971, -0.195863, 0.194114, -0.724444, 662.144194, 372.155361)" fill="none" stroke-linejoin="miter" d="M 0.501344 -0.00197004 L 27.25886 -0.0000663916 " stroke="#f4f6fc" stroke-width="1" stroke-opacity="1" stroke-miterlimit="4"/><path stroke-linecap="round" transform="matrix(-0.528453, -0.528453, 0.53033, -0.53033, 697.061912, 407.119)" fill="none" stroke-linejoin="miter" d="M 0.500109 -0.001419 L 65.740601 -0.001419 " stroke="#f4f6fc" stroke-width="1" stroke-opacity="1" stroke-miterlimit="4"/><path stroke-linecap="round" transform="matrix(-0.4317, 0.618185, -0.614904, -0.429409, 658.589027, 343.909867)" fill="none" stroke-linejoin="miter" d="M 0.498388 -0.00183365 L 52.226187 -0.00000461604 " stroke="#f4f6fc" stroke-width="1" stroke-opacity="1" stroke-miterlimit="4"/><path stroke-linecap="round" transform="matrix(-0.457768, -0.596618, 0.595031, -0.45655, 657.043091, 404.090849)" fill="none" stroke-linejoin="miter" d="M 0.500929 -0.00215373 L 46.388584 0.00118542 " stroke="#f4f6fc" stroke-width="1" stroke-opacity="1" stroke-miterlimit="4"/><path stroke-linecap="round" transform="matrix(-0.195003, 0.727761, -0.724444, -0.194114, 635.482572, 375.982413)" fill="none" stroke-linejoin="miter" d="M 0.501181 -0.00259247 L 23.400143 0.00208005 " stroke="#f4f6fc" stroke-width="1" stroke-opacity="1" stroke-miterlimit="4"/><path stroke-linecap="round" transform="matrix(-0.755875, -0.0323638, 0.0320829, -0.749313, 651.854075, 397.806941)" fill="none" stroke-linejoin="miter" d="M 0.499535 0.00228428 L 26.266346 -0.000227038 " stroke="#f4f6fc" stroke-width="1" stroke-opacity="1" stroke-miterlimit="4"/><path stroke-linecap="round" transform="matrix(-0.336373, -0.681563, 0.672551, -0.331925, 642.036636, 366.750293)" fill="none" stroke-linejoin="miter" d="M 0.499975 -0.0018893 L 25.167194 -0.00114165 " stroke="#f4f6fc" stroke-width="1" stroke-opacity="1" stroke-miterlimit="4"/><path stroke-linecap="round" transform="matrix(0.231114, 0.720026, -0.714115, 0.229216, 622.275661, 334.255637)" fill="none" stroke-linejoin="miter" d="M 0.501696 0.00137972 L 58.019117 0.0015168 " stroke="#f4f6fc" stroke-width="1" stroke-opacity="1" stroke-miterlimit="4"/><path stroke-linecap="round" transform="matrix(-0.743421, 0.148577, -0.146986, -0.735456, 658.705211, 344.263449)" fill="none" stroke-linejoin="miter" d="M 0.501435 0.00273782 L 34.130688 -0.00195567 " stroke="#f4f6fc" stroke-width="1" stroke-opacity="1" stroke-miterlimit="4"/><path stroke-linecap="round" transform="matrix(-0.6461, 0.373026, -0.375, -0.649519, 699.050647, 320.690805)" fill="none" stroke-linejoin="miter" d="M 0.502266 -0.0011444 L 61.837292 -0.000157051 " stroke="#f4f6fc" stroke-width="1" stroke-opacity="1" stroke-miterlimit="4"/><path stroke-linecap="round" transform="matrix(-0.722181, -0.216746, 0.215594, -0.718345, 657.856547, 344.433168)" fill="none" stroke-linejoin="miter" d="M 0.49941 0.000980087 L 49.233941 0.000296308 " stroke="#f4f6fc" stroke-width="1" stroke-opacity="1" stroke-miterlimit="4"/><path stroke-linecap="round" transform="matrix(0.130794, -0.737187, 0.738467, 0.131021, 658.306595, 344.389543)" fill="none" stroke-linejoin="miter" d="M 0.501655 -0.00150894 L 53.59642 -0.000364785 " stroke="#f4f6fc" stroke-width="1" stroke-opacity="1" stroke-miterlimit="4"/><path stroke-linecap="round" transform="matrix(-0.285011, 0.694779, -0.693886, -0.284645, 678.179193, 239.991061)" fill="none" stroke-linejoin="miter" d="M 0.502491 0.00118366 L 157.301469 -0.00161397 " stroke="#f4f6fc" stroke-width="1" stroke-opacity="1" stroke-miterlimit="4"/><path stroke-linecap="round" transform="matrix(0.748909, -0.0557038, 0.0556312, 0.747934, 677.460249, 240.004508)" fill="none" stroke-linejoin="miter" d="M 0.501648 -0.00000206781 L 71.417201 0.00139362 " stroke="#f4f6fc" stroke-width="1" stroke-opacity="1" stroke-miterlimit="4"/><path stroke-linecap="round" transform="matrix(-0.254856, 0.705891, -0.705431, -0.25469, 731.443325, 235.765234)" fill="none" stroke-linejoin="miter" d="M 0.498526 -0.000189159 L 119.424941 -0.000846785 " stroke="#f4f6fc" stroke-width="1" stroke-opacity="1" stroke-miterlimit="4"/><path stroke-linecap="round" transform="matrix(-0.74985, -0.0554875, 0.0553472, -0.747955, 707.180167, 250.946143)" fill="none" stroke-linejoin="miter" d="M 0.500777 0.000517743 L 67.336887 -0.00153334 " stroke="#f4f6fc" stroke-width="1" stroke-opacity="1" stroke-miterlimit="4"/><path stroke-linecap="round" transform="matrix(-0.504351, 0.562612, -0.558456, -0.500626, 707.183287, 251.247813)" fill="none" stroke-linejoin="miter" d="M 0.499508 0.00299371 L 54.098 0.000817775 " stroke="#f4f6fc" stroke-width="1" stroke-opacity="1" stroke-miterlimit="4"/><path stroke-linecap="round" transform="matrix(-0.681614, -0.305186, 0.306487, -0.684519, 680.034153, 281.364002)" fill="none" stroke-linejoin="miter" d="M 0.502628 -0.000483053 L 32.64848 0.00248443 " stroke="#f4f6fc" stroke-width="1" stroke-opacity="1" stroke-miterlimit="4"/><path stroke-linecap="round" transform="matrix(-0.179324, -0.729345, 0.728309, -0.179069, 684.495441, 358.909659)" fill="none" stroke-linejoin="miter" d="M 0.497409 0.00000928869 L 153.288375 0.000918999 " stroke="#f4f6fc" stroke-width="1" stroke-opacity="1" stroke-miterlimit="4"/><path stroke-linecap="round" transform="matrix(0.155323, -0.733576, 0.733733, 0.155356, 684.497193, 358.116565)" fill="none" stroke-linejoin="miter" d="M 0.499533 -0.000766919 L 145.534968 -0.000701884 " stroke="#f4f6fc" stroke-width="1" stroke-opacity="1" stroke-miterlimit="4"/><path stroke-linecap="round" transform="matrix(-0.748549, -0.124875, 0.123412, -0.739777, 657.194675, 270.90206)" fill="none" stroke-linejoin="miter" d="M 0.500066 -0.000310662 L 31.126969 -0.000738136 " stroke="#f4f6fc" stroke-width="1" stroke-opacity="1" stroke-miterlimit="4"/><path stroke-linecap="round" transform="matrix(0.569475, -0.490308, 0.48935, 0.568363, 633.899917, 266.90535)" fill="none" stroke-linejoin="miter" d="M 0.498965 -0.000962501 L 39.429677 0.0027086 " stroke="#f4f6fc" stroke-width="1" stroke-opacity="1" stroke-miterlimit="4"/><path stroke-linecap="round" transform="matrix(-0.0167783, -0.757066, 0.749816, -0.0166176, 657.349643, 271.271052)" fill="none" stroke-linejoin="miter" d="M 0.502542 -0.0018233 L 30.206995 0.00124039 " stroke="#f4f6fc" stroke-width="1" stroke-opacity="1" stroke-miterlimit="4"/><path stroke-linecap="round" transform="matrix(-0.591992, 0.471059, -0.466987, -0.586875, 657.715403, 271.005653)" fill="none" stroke-linejoin="miter" d="M 0.502314 0.000145436 L 46.111 0.000163653 " stroke="#f4f6fc" stroke-width="1" stroke-opacity="1" stroke-miterlimit="4"/><path stroke-linecap="round" transform="matrix(-0.213446, -0.71706, 0.718829, -0.213973, 665.605978, 298.667876)" fill="none" stroke-linejoin="miter" d="M 0.500679 0.00123838 L 37.605078 -0.00164327 " stroke="#f4f6fc" stroke-width="1" stroke-opacity="1" stroke-miterlimit="4"/><path stroke-linecap="round" transform="matrix(-0.406239, -0.625632, 0.629026, -0.408443, 736.434797, 296.907632)" fill="none" stroke-linejoin="miter" d="M 0.502081 -0.000577063 L 71.902896 0.0024424 " stroke="#f4f6fc" stroke-width="1" stroke-opacity="1" stroke-miterlimit="4"/><path stroke-linecap="round" transform="matrix(0.0756185, -0.746864, 0.746185, 0.0755498, 700.816063, 316.304272)" fill="none" stroke-linejoin="miter" d="M 0.501742 0.00196254 L 85.434967 0.00108933 " stroke="#f4f6fc" stroke-width="1" stroke-opacity="1" stroke-miterlimit="4"/><path stroke-linecap="round" transform="matrix(-0.679578, -0.33219, 0.329369, -0.673807, 699.426055, 318.787768)" fill="none" stroke-linejoin="miter" d="M 0.500727 0.00050128 L 45.112006 0.00182998 " stroke="#f4f6fc" stroke-width="1" stroke-opacity="1" stroke-miterlimit="4"/><path stroke-linecap="round" transform="matrix(-0.400406, -0.631241, 0.633333, -0.401733, 644.666508, 420.312447)" fill="none" stroke-linejoin="miter" d="M 0.501875 -0.00112149 L 32.611199 0.000911846 " stroke="#f4f6fc" stroke-width="1" stroke-opacity="1" stroke-miterlimit="4"/><path stroke-linecap="round" transform="matrix(-0.097438, -0.748401, 0.743723, -0.096829, 629.909029, 394.824168)" fill="none" stroke-linejoin="miter" d="M 0.501145 -0.00110704 L 44.224163 0.00221459 " stroke="#f4f6fc" stroke-width="1" stroke-opacity="1" stroke-miterlimit="4"/><path stroke-linecap="round" transform="matrix(-0.459555, 0.60855, -0.598513, -0.451976, 633.996349, 348.639465)" fill="none" stroke-linejoin="miter" d="M 0.502393 -0.000257405 L 17.211862 0.00101237 " stroke="#f4f6fc" stroke-width="1" stroke-opacity="1" stroke-miterlimit="4"/><path stroke-linecap="round" transform="matrix(-0.444877, -0.599167, 0.602163, -0.447101, 633.464845, 349.138802)" fill="none" stroke-linejoin="miter" d="M 0.499501 -0.000731498 L 24.632362 0.00221495 " stroke="#f4f6fc" stroke-width="1" stroke-opacity="1" stroke-miterlimit="4"/><path stroke-linecap="round" transform="matrix(-0.1161, 0.743642, -0.741023, -0.115691, 633.830653, 307.178354)" fill="none" stroke-linejoin="miter" d="M 0.500624 -0.00122459 L 70.259223 0.00226677 " stroke="#f4f6fc" stroke-width="1" stroke-opacity="1" stroke-miterlimit="4"/><path stroke-linecap="round" transform="matrix(-0.606003, 0.446303, -0.444753, -0.603899, 665.605402, 302.025269)" fill="none" stroke-linejoin="miter" d="M 0.502976 -0.000415173 L 71.259147 0.000542435 " stroke="#f4f6fc" stroke-width="1" stroke-opacity="1" stroke-miterlimit="4"/><path stroke-linecap="round" transform="matrix(-0.69652, -0.267481, 0.268875, -0.700147, 634.075621, 307.261294)" fill="none" stroke-linejoin="miter" d="M 0.500348 -0.00206598 L 29.663324 -0.00174154 " stroke="#f4f6fc" stroke-width="1" stroke-opacity="1" stroke-miterlimit="4"/><path stroke-linecap="round" transform="matrix(-0.744865, -0.0504168, 0.0506485, -0.748288, 663.861178, 301.989996)" fill="none" stroke-linejoin="miter" d="M 0.500616 -0.000115881 L 67.826201 0.000140632 " stroke="#f4f6fc" stroke-width="1" stroke-opacity="1" stroke-miterlimit="4"/><path stroke-linecap="round" transform="matrix(-0.713738, 0.191246, -0.194114, -0.724444, 630.660901, 292.867331)" fill="none" stroke-linejoin="miter" d="M 0.499805 -0.00266068 L 24.880797 0.00092934 " stroke="#f4f6fc" stroke-width="1" stroke-opacity="1" stroke-miterlimit="4"/><path stroke-linecap="round" transform="matrix(-0.721992, -0.193457, 0.194114, -0.724444, 663.576058, 301.68355)" fill="none" stroke-linejoin="miter" d="M 0.500589 0.00106312 L 45.655206 -0.000467061 " stroke="#f4f6fc" stroke-width="1" stroke-opacity="1" stroke-miterlimit="4"/><path stroke-linecap="round" transform="matrix(-0.1954, -0.729242, 0.724444, -0.194114, 634.079269, 307.109887)" fill="none" stroke-linejoin="miter" d="M 0.499318 -0.00170206 L 18.384058 0.00173119 " stroke="#f4f6fc" stroke-width="1" stroke-opacity="1" stroke-miterlimit="4"/><path stroke-linecap="round" transform="matrix(-0.193672, 0.722795, -0.724444, -0.194114, 647.497571, 228.252066)" fill="none" stroke-linejoin="miter" d="M 0.499208 -0.00200854 L 88.710063 0.000674278 " stroke="#f4f6fc" stroke-width="1" stroke-opacity="1" stroke-miterlimit="4"/><path stroke-linecap="round" transform="matrix(-0.701727, 0.265024, -0.264987, -0.701628, 734.259221, 217.780061)" fill="none" stroke-linejoin="miter" d="M 0.498458 -0.00270558 L 110.488549 -0.000404816 " stroke="#f4f6fc" stroke-width="1" stroke-opacity="1" stroke-miterlimit="4"/><path stroke-linecap="round" transform="matrix(-0.175989, -0.733792, 0.729318, -0.174916, 707.464951, 251.937813)" fill="none" stroke-linejoin="miter" d="M 0.500177 0.00271634 L 40.249999 0.00195256 " stroke="#f4f6fc" stroke-width="1" stroke-opacity="1" stroke-miterlimit="4"/><path stroke-linecap="round" transform="matrix(-0.736587, -0.151265, 0.150871, -0.734669, 697.326872, 219.600744)" fill="none" stroke-linejoin="miter" d="M 0.502463 0.00177125 L 29.425961 0.0016292 " stroke="#f4f6fc" stroke-width="1" stroke-opacity="1" stroke-miterlimit="4"/><path stroke-linecap="round" transform="matrix(-0.444431, -0.600627, 0.602897, -0.446111, 657.348299, 247.807598)" fill="none" stroke-linejoin="miter" d="M 0.500295 -0.00157958 L 61.737412 -0.000234714 " stroke="#f4f6fc" stroke-width="1" stroke-opacity="1" stroke-miterlimit="4"/><path stroke-linecap="round" transform="matrix(-0.638952, -0.384063, 0.386383, -0.642813, 678.414801, 239.940099)" fill="none" stroke-linejoin="miter" d="M 0.500475 -0.00329028 L 74.953738 0.00126346 " stroke="#f4f6fc" stroke-width="1" stroke-opacity="1" stroke-miterlimit="4"/><path stroke-linecap="round" transform="matrix(-0.631953, -0.408733, 0.407314, -0.629758, 764.398322, 63.087578)" fill="none" stroke-linejoin="miter" d="M 0.500639 0.000219193 L 89.193504 -0.0024545 " stroke="#f4f6fc" stroke-width="1" stroke-opacity="1" stroke-miterlimit="4"/><path stroke-linecap="round" transform="matrix(0.0712061, -0.749991, 0.746642, 0.0708882, 700.887439, 93.855631)" fill="none" stroke-linejoin="miter" d="M 0.500074 -0.00157059 L 90.10051 0.00206404 " stroke="#f4f6fc" stroke-width="1" stroke-opacity="1" stroke-miterlimit="4"/><path stroke-linecap="round" transform="matrix(0.153334, -0.733503, 0.734131, 0.153465, 684.496305, 133.812266)" fill="none" stroke-linejoin="miter" d="M 0.500604 0.00157272 L 145.63054 0.00233487 " stroke="#f4f6fc" stroke-width="1" stroke-opacity="1" stroke-miterlimit="4"/><path stroke-linecap="round" transform="matrix(-0.71127, -0.233381, 0.233823, -0.71262, 754.049067, 125.854313)" fill="none" stroke-linejoin="miter" d="M 0.497339 -0.0000531483 L 139.767783 0.00120404 " stroke="#f4f6fc" stroke-width="1" stroke-opacity="1" stroke-miterlimit="4"/><path stroke-linecap="round" transform="matrix(-0.744773, 0.0828216, -0.0828919, -0.745405, 753.685323, 125.951577)" fill="none" stroke-linejoin="miter" d="M 0.500461 0.00112539 L 91.588281 0.00255595 " stroke="#f4f6fc" stroke-width="1" stroke-opacity="1" stroke-miterlimit="4"/><path stroke-linecap="round" transform="matrix(-0.738875, -0.197981, 0.194114, -0.724444, 768.256298, 129.863543)" fill="none" stroke-linejoin="miter" d="M 0.499816 -0.00142957 L 19.115191 0.00134168 " stroke="#f4f6fc" stroke-width="1" stroke-opacity="1" stroke-miterlimit="4"/><path stroke-linecap="round" transform="matrix(-0.641646, 0.390088, -0.389611, -0.640861, 733.362389, 73.822305)" fill="none" stroke-linejoin="miter" d="M 0.497211 0.000991852 L 114.371474 -0.000449677 " stroke="#f4f6fc" stroke-width="1" stroke-opacity="1" stroke-miterlimit="4"/><path stroke-linecap="round" transform="matrix(-0.620269, -0.425483, 0.424251, -0.618474, 717.470454, 104.95078)" fill="none" stroke-linejoin="miter" d="M 0.499996 -0.000389927 L 26.422877 0.00206136 " stroke="#f4f6fc" stroke-width="1" stroke-opacity="1" stroke-miterlimit="4"/><path stroke-linecap="round" transform="matrix(0.13194, 0.734263, -0.738177, 0.132643, 701.019151, 93.933501)" fill="none" stroke-linejoin="miter" d="M 0.500389 -0.00103607 L 84.960295 -0.00223231 " stroke="#f4f6fc" stroke-width="1" stroke-opacity="1" stroke-miterlimit="4"/><path stroke-linecap="round" transform="matrix(-0.748495, 0.0474885, -0.0474885, -0.748495, 732.100397, 11.563638)" fill="none" stroke-linejoin="miter" d="M 0.499328 0.00188732 L 72.503404 -0.00146937 " stroke="#f4f6fc" stroke-width="1" stroke-opacity="1" stroke-miterlimit="4"/><path stroke-linecap="round" transform="matrix(-0.684158, -0.296399, 0.298147, -0.688192, 768.357914, 27.416797)" fill="none" stroke-linejoin="miter" d="M 0.499761 -0.00125368 L 52.812373 0.0022144 " stroke="#f4f6fc" stroke-width="1" stroke-opacity="1" stroke-miterlimit="4"/><path stroke-linecap="round" transform="matrix(0.25608, -0.702676, 0.704664, 0.256804, 701.018407, 93.551784)" fill="none" stroke-linejoin="miter" d="M 0.500664 -0.00296042 L 115.842164 0.000472805 " stroke="#f4f6fc" stroke-width="1" stroke-opacity="1" stroke-miterlimit="4"/><path stroke-linecap="round" transform="matrix(0.346513, -0.660309, 0.66411, 0.348508, 731.292605, 11.36606)" fill="none" stroke-linejoin="miter" d="M 0.500256 -0.00166589 L 18.621826 0.0011863 " stroke="#f4f6fc" stroke-width="1" stroke-opacity="1" stroke-miterlimit="4"/><path stroke-linecap="round" transform="matrix(0.0998883, -0.731675, 0.743107, 0.101449, 731.340005, 11.369506)" fill="none" stroke-linejoin="miter" d="M 0.499805 0.000935821 L 14.738261 0.000424089 " stroke="#f4f6fc" stroke-width="1" stroke-opacity="1" stroke-miterlimit="4"/><path stroke-linecap="round" transform="matrix(-0.171766, -0.735772, 0.730362, -0.170503, 706.817719, 25.558134)" fill="none" stroke-linejoin="miter" d="M 0.498918 -0.00212632 L 33.265365 0.00219412 " stroke="#f4f6fc" stroke-width="1" stroke-opacity="1" stroke-miterlimit="4"/><path stroke-linecap="round" transform="matrix(-0.599421, 0.454038, -0.45285, -0.597852, 768.50645, 6.431778)" fill="none" stroke-linejoin="miter" d="M 0.500782 -0.00167965 L 190.00347 0.00237609 " stroke="#f4f6fc" stroke-width="1" stroke-opacity="1" stroke-miterlimit="4"/><path stroke-linecap="round" transform="matrix(-0.681038, -0.333462, 0.329814, -0.673589, 679.591065, 56.571276)" fill="none" stroke-linejoin="miter" d="M 0.499658 -0.00236109 L 29.180148 0.00144746 " stroke="#f4f6fc" stroke-width="1" stroke-opacity="1" stroke-miterlimit="4"/><path stroke-linecap="round" transform="matrix(-0.595509, -0.456574, 0.456334, -0.595197, 768.23561, 124.479146)" fill="none" stroke-linejoin="miter" d="M 0.501073 0.000620859 L 148.422388 -0.00244909 " stroke="#f4f6fc" stroke-width="1" stroke-opacity="1" stroke-miterlimit="4"/><path stroke-linecap="round" transform="matrix(-0.742159, 0.12671, -0.126222, -0.739302, 768.350522, 95.599533)" fill="none" stroke-linejoin="miter" d="M 0.498919 -0.00177339 L 68.24317 0.000735511 " stroke="#f4f6fc" stroke-width="1" stroke-opacity="1" stroke-miterlimit="4"/><path stroke-linecap="round" transform="matrix(-0.344406, -0.666781, 0.666359, -0.344188, 742.527724, 153.580183)" fill="none" stroke-linejoin="miter" d="M 0.500859 0.000365737 L 73.461557 -0.000810193 " stroke="#f4f6fc" stroke-width="1" stroke-opacity="1" stroke-miterlimit="4"/><path stroke-linecap="round" transform="matrix(0.283286, -0.701492, 0.695434, 0.28084, 742.824916, 152.410183)" fill="none" stroke-linejoin="miter" d="M 0.500185 -0.00254192 L 37.17495 -0.000845558 " stroke="#f4f6fc" stroke-width="1" stroke-opacity="1" stroke-miterlimit="4"/><path stroke-linecap="round" transform="matrix(-0.146562, -0.733521, 0.735463, -0.14695, 706.924879, 191.200972)" fill="none" stroke-linejoin="miter" d="M 0.497747 -0.000497197 L 182.996762 0.00126715 " stroke="#f4f6fc" stroke-width="1" stroke-opacity="1" stroke-miterlimit="4"/><path stroke-linecap="round" transform="matrix(-0.569256, 0.491915, -0.490377, -0.567477, 764.680802, 62.872723)" fill="none" stroke-linejoin="miter" d="M 0.500355 0.0029386 L 84.237513 0.00315293 " stroke="#f4f6fc" stroke-width="1" stroke-opacity="1" stroke-miterlimit="4"/><path stroke-linecap="round" transform="matrix(-0.675884, -0.309833, 0.312535, -0.681778, 767.864906, 86.21653)" fill="none" stroke-linejoin="miter" d="M 0.499039 -0.00086347 L 42.885678 -0.000818455 " stroke="#f4f6fc" stroke-width="1" stroke-opacity="1" stroke-miterlimit="4"/><path stroke-linecap="round" transform="matrix(-0.391548, 0.639526, -0.639638, -0.391616, 734.933501, 74.374571)" fill="none" stroke-linejoin="miter" d="M 0.500727 -0.00131159 L 178.545576 0.00148356 " stroke="#f4f6fc" stroke-width="1" stroke-opacity="1" stroke-miterlimit="4"/><path stroke-linecap="round" transform="matrix(-0.53033, -0.53033, 0.53033, -0.53033, 706.550167, 191.470005)" fill="none" stroke-linejoin="miter" d="M 0.501471 0.00176254 L 83.505502 0.00176254 " stroke="#f4f6fc" stroke-width="1" stroke-opacity="1" stroke-miterlimit="4"/><path stroke-linecap="round" transform="matrix(-0.630709, 0.40651, -0.406314, -0.630404, 763.082714, 179.073999)" fill="none" stroke-linejoin="miter" d="M 0.502008 0.00115285 L 96.45331 -0.00299066 " stroke="#f4f6fc" stroke-width="1" stroke-opacity="1" stroke-miterlimit="4"/><path stroke-linecap="round" transform="matrix(-0.702595, 0.252036, -0.253241, -0.705953, 767.86841, 170.02191)" fill="none" stroke-linejoin="miter" d="M 0.502107 0.0000305177 L 84.914946 0.00238204 " stroke="#f4f6fc" stroke-width="1" stroke-opacity="1" stroke-miterlimit="4"/><path stroke-linecap="round" transform="matrix(-0.465139, -0.581264, 0.585589, -0.4686, 762.773498, 179.018964)" fill="none" stroke-linejoin="miter" d="M 0.503423 -0.000468495 L 41.820455 -0.00146776 " stroke="#f4f6fc" stroke-width="1" stroke-opacity="1" stroke-miterlimit="4"/><path stroke-linecap="round" transform="matrix(-0.257009, -0.703996, 0.70452, -0.257201, 734.391461, 216.680798)" fill="none" stroke-linejoin="miter" d="M 0.501413 -0.00124087 L 83.569877 0.00118579 " stroke="#f4f6fc" stroke-width="1" stroke-opacity="1" stroke-miterlimit="4"/><path stroke-linecap="round" transform="matrix(-0.751369, -0.0620535, 0.0617303, -0.747455, 707.708455, 191.997232)" fill="none" stroke-linejoin="miter" d="M 0.501126 0.00172834 L 56.211963 0.00169662 " stroke="#f4f6fc" stroke-width="1" stroke-opacity="1" stroke-miterlimit="4"/><path stroke-linecap="round" transform="matrix(0.108147, -0.746724, 0.742256, 0.1075, 707.169679, 192.003779)" fill="none" stroke-linejoin="miter" d="M 0.501774 -0.00173536 L 46.217324 0.0000125444 " stroke="#f4f6fc" stroke-width="1" stroke-opacity="1" stroke-miterlimit="4"/><path stroke-linecap="round" transform="matrix(-0.573414, 0.481879, -0.482518, -0.574175, 767.867306, 141.007153)" fill="none" stroke-linejoin="miter" d="M 0.500175 -0.00317579 L 105.651293 0.000474581 " stroke="#f4f6fc" stroke-width="1" stroke-opacity="1" stroke-miterlimit="4"/><path stroke-linecap="round" transform="matrix(-0.198857, 0.742143, -0.724444, -0.194114, 768.069626, 49.650303)" fill="none" stroke-linejoin="miter" d="M 0.49817 0.0025008 L 18.051039 -0.000570834 " stroke="#f4f6fc" stroke-width="1" stroke-opacity="1" stroke-miterlimit="4"/><path stroke-linecap="round" transform="matrix(-0.305182, 0.686793, -0.685381, -0.304554, 764.629586, 62.721689)" fill="none" stroke-linejoin="miter" d="M 0.501841 -0.000187628 L 189.121549 -0.00128074 " stroke="#f4f6fc" stroke-width="1" stroke-opacity="1" stroke-miterlimit="4"/><path stroke-linecap="round" transform="matrix(-0.196208, 0.732258, -0.724444, -0.194114, 707.464183, 189.954331)" fill="none" stroke-linejoin="miter" d="M 0.499434 -0.00137701 L 40.066444 0.00174655 " stroke="#f4f6fc" stroke-width="1" stroke-opacity="1" stroke-miterlimit="4"/><path stroke-linecap="round" transform="matrix(-0.597987, 0.449375, -0.450568, -0.599574, 706.919671, 192.179707)" fill="none" stroke-linejoin="miter" d="M 0.501045 -0.00231162 L 52.648441 -0.00204481 " stroke="#f4f6fc" stroke-width="1" stroke-opacity="1" stroke-miterlimit="4"/><path stroke-linecap="round" transform="matrix(-0.395639, 0.635627, -0.63673, -0.396326, 711.440286, 157.967844)" fill="none" stroke-linejoin="miter" d="M 0.499629 0.000668929 L 89.669318 -0.0020086 " stroke="#f4f6fc" stroke-width="1" stroke-opacity="1" stroke-miterlimit="4"/><path stroke-linecap="round" transform="matrix(0.336064, -0.660404, 0.66843, 0.340149, 675.710529, 197.965516)" fill="none" stroke-linejoin="miter" d="M 0.498521 0.00125936 L 26.830576 -0.00115277 " stroke="#f4f6fc" stroke-width="1" stroke-opacity="1" stroke-miterlimit="4"/><path stroke-linecap="round" transform="matrix(-0.655566, -0.344185, 0.348635, -0.664043, 685.662969, 179.524616)" fill="none" stroke-linejoin="miter" d="M 0.499704 0.00160036 L 28.890636 -0.00169859 " stroke="#f4f6fc" stroke-width="1" stroke-opacity="1" stroke-miterlimit="4"/><path stroke-linecap="round" transform="matrix(-0.755468, -0.0558815, 0.0553259, -0.747956, 675.906873, 197.765125)" fill="none" stroke-linejoin="miter" d="M 0.502257 -0.00163475 L 43.072091 -0.00158215 " stroke="#f4f6fc" stroke-width="1" stroke-opacity="1" stroke-miterlimit="4"/><path stroke-linecap="round" transform="matrix(-0.637597, -0.398419, 0.397442, -0.636034, 676.136961, 215.574168)" fill="none" stroke-linejoin="miter" d="M 0.501952 -0.00128777 L 50.380388 0.00264449 " stroke="#f4f6fc" stroke-width="1" stroke-opacity="1" stroke-miterlimit="4"/><path stroke-linecap="round" transform="matrix(0.385012, -0.639385, 0.642507, 0.386892, 656.838707, 246.600626)" fill="none" stroke-linejoin="miter" d="M 0.499663 0.000260001 L 47.742221 -0.0019788 " stroke="#f4f6fc" stroke-width="1" stroke-opacity="1" stroke-miterlimit="4"/><path stroke-linecap="round" transform="matrix(0.126014, -0.738388, 0.739311, 0.126171, 731.247725, 236.363713)" fill="none" stroke-linejoin="miter" d="M 0.498324 0.00267726 L 24.541894 -0.000671589 " stroke="#f4f6fc" stroke-width="1" stroke-opacity="1" stroke-miterlimit="4"/><path stroke-linecap="round" transform="matrix(0.360502, -0.653498, 0.656704, 0.362271, 731.139557, 236.280788)" fill="none" stroke-linejoin="miter" d="M 0.501399 0.00000018565 L 85.918917 -0.000375184 " stroke="#f4f6fc" stroke-width="1" stroke-opacity="1" stroke-miterlimit="4"/><path stroke-linecap="round" transform="matrix(-0.330692, 0.666944, -0.671937, -0.333168, 665.331058, 188.429429)" fill="none" stroke-linejoin="miter" d="M 0.499562 0.00267047 L 47.862812 -0.00102332 " stroke="#f4f6fc" stroke-width="1" stroke-opacity="1" stroke-miterlimit="4"/><path stroke-linecap="round" transform="matrix(-0.492938, 0.55981, -0.562883, -0.495644, 666.744394, 168.95193)" fill="none" stroke-linejoin="miter" d="M 0.500248 0.00303633 L 73.917064 -0.00125543 " stroke="#f4f6fc" stroke-width="1" stroke-opacity="1" stroke-miterlimit="4"/><path stroke-linecap="round" transform="matrix(-0.38856, -0.631626, 0.638804, -0.392976, 644.207724, 195.194046)" fill="none" stroke-linejoin="miter" d="M 0.500446 -0.00242903 L 32.886485 0.000532033 " stroke="#f4f6fc" stroke-width="1" stroke-opacity="1" stroke-miterlimit="4"/><path stroke-linecap="round" transform="matrix(-0.467279, -0.586643, 0.586643, -0.467279, 665.331634, 188.554848)" fill="none" stroke-linejoin="miter" d="M 0.50008 -0.000512468 L 62.504465 0.000715911 " stroke="#f4f6fc" stroke-width="1" stroke-opacity="1" stroke-miterlimit="4"/><path stroke-linecap="round" transform="matrix(-0.213818, 0.731754, -0.719897, -0.210353, 635.76798, 150.913771)" fill="none" stroke-linejoin="miter" d="M 0.502353 0.000572205 L 26.072864 0.00239448 " stroke="#f4f6fc" stroke-width="1" stroke-opacity="1" stroke-miterlimit="4"/><path stroke-linecap="round" transform="matrix(-0.34024, 0.67603, -0.669936, -0.337172, 683.828337, 134.793988)" fill="none" stroke-linejoin="miter" d="M 0.499803 -0.00279497 L 51.043539 0.000552441 " stroke="#f4f6fc" stroke-width="1" stroke-opacity="1" stroke-miterlimit="4"/><path stroke-linecap="round" transform="matrix(-0.579304, -0.468979, 0.47191, -0.582925, 711.444966, 155.959221)" fill="none" stroke-linejoin="miter" d="M 0.497479 -0.00111191 L 44.785014 -0.00175036 " stroke="#f4f6fc" stroke-width="1" stroke-opacity="1" stroke-miterlimit="4"/><path stroke-linecap="round" transform="matrix(-0.728661, -0.195244, 0.194114, -0.724444, 662.675362, 147.11533)" fill="none" stroke-linejoin="miter" d="M 0.497494 -0.00184141 L 26.347491 -0.00209856 " stroke="#f4f6fc" stroke-width="1" stroke-opacity="1" stroke-miterlimit="4"/><path stroke-linecap="round" transform="matrix(-0.733381, 0.140224, -0.14085, -0.736655, 684.051105, 134.119955)" fill="none" stroke-linejoin="miter" d="M 0.501416 -0.00154848 L 55.761644 0.00212221 " stroke="#f4f6fc" stroke-width="1" stroke-opacity="1" stroke-miterlimit="4"/><path stroke-linecap="round" transform="matrix(-0.644778, 0.372263, -0.375, -0.649519, 684.165729, 134.00577)" fill="none" stroke-linejoin="miter" d="M 0.49919 0.000298551 L 16.631139 0.00248049 " stroke="#f4f6fc" stroke-width="1" stroke-opacity="1" stroke-miterlimit="4"/><path stroke-linecap="round" transform="matrix(-0.417362, 0.626954, -0.624317, -0.415606, 673.437153, 140.137856)" fill="none" stroke-linejoin="miter" d="M 0.503385 0.00079638 L 51.288053 0.000379953 " stroke="#f4f6fc" stroke-width="1" stroke-opacity="1" stroke-miterlimit="4"/><path stroke-linecap="round" transform="matrix(0.178719, -0.728984, 0.728428, 0.178583, 666.16789, 170.144591)" fill="none" stroke-linejoin="miter" d="M 0.498689 0.00109432 L 40.473095 0.00154763 " stroke="#f4f6fc" stroke-width="1" stroke-opacity="1" stroke-miterlimit="4"/><path stroke-linecap="round" transform="matrix(-0.556612, -0.503769, 0.503277, -0.556068, 734.022197, 216.531677)" fill="none" stroke-linejoin="miter" d="M 0.500379 -0.00296535 L 47.461447 0.00172395 " stroke="#f4f6fc" stroke-width="1" stroke-opacity="1" stroke-miterlimit="4"/><path stroke-linecap="round" transform="matrix(-0.556915, -0.482063, 0.490851, -0.567067, 675.587529, 197.492533)" fill="none" stroke-linejoin="miter" d="M 0.501825 0.00109707 L 17.834021 0.00154972 " stroke="#f4f6fc" stroke-width="1" stroke-opacity="1" stroke-miterlimit="4"/><path stroke-linecap="round" transform="matrix(-0.641956, -0.397853, 0.39509, -0.637498, 766.261706, 168.627174)" fill="none" stroke-linejoin="miter" d="M 0.498233 -0.00115562 L 35.262355 0.000449423 " stroke="#f4f6fc" stroke-width="1" stroke-opacity="1" stroke-miterlimit="4"/><path stroke-linecap="round" transform="matrix(-0.230196, -0.710099, 0.713448, -0.231282, 766.26593, 164.43904)" fill="none" stroke-linejoin="miter" d="M 0.496895 0.00111692 L 52.761871 0.00106203 " stroke="#f4f6fc" stroke-width="1" stroke-opacity="1" stroke-miterlimit="4"/><path stroke-linecap="round" transform="matrix(-0.391191, -0.636221, 0.638892, -0.392833, 734.774189, 69.777746)" fill="none" stroke-linejoin="miter" d="M 0.498843 -0.0014414 L 66.795201 -0.00000879963 " stroke="#f4f6fc" stroke-width="1" stroke-opacity="1" stroke-miterlimit="4"/><g clip-path="url(#id2)"><path fill="#233dff" d="M 572.765625 102.730469 C 571.109375 102.730469 569.765625 104.074219 569.765625 105.730469 C 569.765625 107.386719 571.109375 108.730469 572.765625 108.730469 C 574.421875 108.730469 575.765625 107.386719 575.765625 105.730469 C 575.765625 104.074219 574.421875 102.730469 572.765625 102.730469 " fill-opacity="1" fill-rule="nonzero"/></g><g clip-path="url(#id3)"><path fill="#233dff" d="M 548.710938 26.753906 C 547.050781 26.753906 545.710938 28.097656 545.710938 29.753906 C 545.710938 31.410156 547.050781 32.753906 548.710938 32.753906 C 550.367188 32.753906 551.710938 31.410156 551.710938 29.753906 C 551.710938 28.097656 550.367188 26.753906 548.710938 26.753906 " fill-opacity="1" fill-rule="nonzero"/></g><path stroke-linecap="round" transform="matrix(0.0334307, 0.744935, -0.749246, 0.0336242, 656.342315, 23.979166)" fill="none" stroke-linejoin="miter" d="M 0.499926 -0.000463578 L 26.661006 -0.00101859 " stroke="#f4f6fc" stroke-width="1" stroke-opacity="1" stroke-miterlimit="4"/><g clip-path="url(#id4)"><path fill="#233dff" d="M 656.660156 19.367188 C 655.003906 19.367188 653.660156 20.710938 653.660156 22.367188 C 653.660156 24.023438 655.003906 25.367188 656.660156 25.367188 C 658.316406 25.367188 659.660156 24.023438 659.660156 22.367188 C 659.660156 20.710938 658.316406 19.367188 656.660156 19.367188 " fill-opacity="1" fill-rule="nonzero"/></g><g clip-path="url(#id5)"><path fill="#233dff" d="M 657.117188 43.304688 C 655.460938 43.304688 654.117188 44.648438 654.117188 46.304688 C 654.117188 47.960938 655.460938 49.304688 657.117188 49.304688 C 658.773438 49.304688 660.117188 47.960938 660.117188 46.304688 C 660.117188 44.648438 658.773438 43.304688 657.117188 43.304688 " fill-opacity="1" fill-rule="nonzero"/></g><g clip-path="url(#id6)"><path fill="#233dff" d="M 736.082031 67.558594 C 734.011719 67.558594 732.332031 69.238281 732.332031 71.308594 C 732.332031 73.378906 734.011719 75.058594 736.082031 75.058594 C 738.152344 75.058594 739.832031 73.378906 739.832031 71.308594 C 739.832031 69.238281 738.152344 67.558594 736.082031 67.558594 " fill-opacity="1" fill-rule="nonzero"/></g><g clip-path="url(#id7)"><path fill="#233dff" d="M 707.285156 23.371094 C 706.042969 23.371094 705.035156 24.378906 705.035156 25.621094 C 705.035156 26.863281 706.042969 27.871094 707.285156 27.871094 C 708.527344 27.871094 709.535156 26.863281 709.535156 25.621094 C 709.535156 24.378906 708.527344 23.371094 707.285156 23.371094 " fill-opacity="1" fill-rule="nonzero"/></g><g clip-path="url(#id8)"><path fill="#233dff" d="M 611.8125 17.867188 C 610.777344 17.867188 609.9375 18.707031 609.9375 19.742188 C 609.9375 20.777344 610.777344 21.617188 611.8125 21.617188 C 612.847656 21.617188 613.6875 20.777344 613.6875 19.742188 C 613.6875 18.707031 612.847656 17.867188 611.8125 17.867188 " fill-opacity="1" fill-rule="nonzero"/></g><g clip-path="url(#id9)"><path fill="#233dff" d="M 630.878906 168.949219 C 629.222656 168.949219 627.878906 170.292969 627.878906 171.949219 C 627.878906 173.605469 629.222656 174.949219 630.878906 174.949219 C 632.535156 174.949219 633.878906 173.605469 633.878906 171.949219 C 633.878906 170.292969 632.535156 168.949219 630.878906 168.949219 " fill-opacity="1" fill-rule="nonzero"/></g><path stroke-linecap="round" transform="matrix(0.750953, 0.00604825, -0.00604038, 0.749976, 634.161301, 172.115363)" fill="none" stroke-linejoin="miter" d="M 0.497829 -0.0015815 L 23.479047 0.000590301 " stroke="#f4f6fc" stroke-width="1" stroke-opacity="1" stroke-miterlimit="4"/><g clip-path="url(#id10)"><path fill="#233dff" d="M 647.875 220.753906 C 645.597656 220.753906 643.75 222.601562 643.75 224.878906 C 643.75 227.15625 645.597656 229.003906 647.875 229.003906 C 650.152344 229.003906 652 227.15625 652 224.878906 C 652 222.601562 650.152344 220.753906 647.875 220.753906 " fill-opacity="1" fill-rule="nonzero"/></g><g clip-path="url(#id11)"><path fill="#233dff" d="M 609.992188 295.332031 C 608.335938 295.332031 606.992188 296.671875 606.992188 298.332031 C 606.992188 299.988281 608.335938 301.332031 609.992188 301.332031 C 611.648438 301.332031 612.992188 299.988281 612.992188 298.332031 C 612.992188 296.671875 611.648438 295.332031 609.992188 295.332031 " fill-opacity="1" fill-rule="nonzero"/></g><g clip-path="url(#id12)"><path fill="#233dff" d="M 666.273438 298.023438 C 663.996094 298.023438 662.148438 299.867188 662.148438 302.148438 C 662.148438 304.425781 663.996094 306.273438 666.273438 306.273438 C 668.550781 306.273438 670.398438 304.425781 670.398438 302.148438 C 670.398438 299.867188 668.550781 298.023438 666.273438 298.023438 " fill-opacity="1" fill-rule="nonzero"/></g><g clip-path="url(#id13)"><path fill="#233dff" d="M 573.277344 328.160156 C 571.828125 328.160156 570.652344 329.335938 570.652344 330.785156 C 570.652344 332.234375 571.828125 333.410156 573.277344 333.410156 C 574.726562 333.410156 575.902344 332.234375 575.902344 330.785156 C 575.902344 329.335938 574.726562 328.160156 573.277344 328.160156 " fill-opacity="1" fill-rule="nonzero"/></g><g clip-path="url(#id14)"><path fill="#233dff" d="M 625.128906 358.121094 C 623.886719 358.121094 622.878906 359.128906 622.878906 360.371094 C 622.878906 361.617188 623.886719 362.621094 625.128906 362.621094 C 626.371094 362.621094 627.378906 361.617188 627.378906 360.371094 C 627.378906 359.128906 626.371094 358.121094 625.128906 358.121094 " fill-opacity="1" fill-rule="nonzero"/></g><g clip-path="url(#id15)"><path fill="#233dff" d="M 589.375 384.320312 C 587.925781 384.320312 586.75 385.496094 586.75 386.945312 C 586.75 388.394531 587.925781 389.570312 589.375 389.570312 C 590.824219 389.570312 592 388.394531 592 386.945312 C 592 385.496094 590.824219 384.320312 589.375 384.320312 " fill-opacity="1" fill-rule="nonzero"/></g><g clip-path="url(#id16)"><path fill="#233dff" d="M 566.078125 389.019531 C 564.835938 389.019531 563.828125 390.027344 563.828125 391.269531 C 563.828125 392.511719 564.835938 393.519531 566.078125 393.519531 C 567.324219 393.519531 568.328125 392.511719 568.328125 391.269531 C 568.328125 390.027344 567.324219 389.019531 566.078125 389.019531 " fill-opacity="1" fill-rule="nonzero"/></g><g clip-path="url(#id17)"><path fill="#233dff" d="M 542.902344 392.976562 C 541.867188 392.976562 541.027344 393.816406 541.027344 394.851562 C 541.027344 395.886719 541.867188 396.726562 542.902344 396.726562 C 543.9375 396.726562 544.777344 395.886719 544.777344 394.851562 C 544.777344 393.816406 543.9375 392.976562 542.902344 392.976562 " fill-opacity="1" fill-rule="nonzero"/></g><g clip-path="url(#id18)"><path fill="#233dff" d="M 585.539062 411.164062 C 584.292969 411.164062 583.289062 412.171875 583.289062 413.414062 C 583.289062 414.65625 584.292969 415.664062 585.539062 415.664062 C 586.78125 415.664062 587.789062 414.65625 587.789062 413.414062 C 587.789062 412.171875 586.78125 411.164062 585.539062 411.164062 " fill-opacity="1" fill-rule="nonzero"/></g><path stroke-linecap="round" transform="matrix(0.123506, -0.748979, 0.740006, 0.122026, 585.588136, 411.163672)" fill="none" stroke-linejoin="miter" d="M 0.499845 -0.00193575 L 29.143334 -0.00000230155 " stroke="#f4f6fc" stroke-width="1" stroke-opacity="1" stroke-miterlimit="4"/><g clip-path="url(#id19)"><path fill="#233dff" d="M 548.132812 433.644531 C 546.886719 433.644531 545.882812 434.652344 545.882812 435.894531 C 545.882812 437.136719 546.886719 438.144531 548.132812 438.144531 C 549.375 438.144531 550.382812 437.136719 550.382812 435.894531 C 550.382812 434.652344 549.375 433.644531 548.132812 433.644531 " fill-opacity="1" fill-rule="nonzero"/></g><g clip-path="url(#id20)"><path fill="#233dff" d="M 629.460938 432.660156 C 627.597656 432.660156 626.085938 434.171875 626.085938 436.035156 C 626.085938 437.898438 627.597656 439.410156 629.460938 439.410156 C 631.324219 439.410156 632.835938 437.898438 632.835938 436.035156 C 632.835938 434.171875 631.324219 432.660156 629.460938 432.660156 " fill-opacity="1" fill-rule="nonzero"/></g><g clip-path="url(#id21)"><path fill="#233dff" d="M 707.125 414.652344 C 705.671875 414.652344 704.5 415.828125 704.5 417.277344 C 704.5 418.726562 705.671875 419.902344 707.125 419.902344 C 708.574219 419.902344 709.75 418.726562 709.75 417.277344 C 709.75 415.828125 708.574219 414.652344 707.125 414.652344 " fill-opacity="1" fill-rule="nonzero"/></g><g clip-path="url(#id22)"><path fill="#233dff" d="M 664.671875 410.386719 C 663.015625 410.386719 661.671875 411.730469 661.671875 413.386719 C 661.671875 415.042969 663.015625 416.386719 664.671875 416.386719 C 666.328125 416.386719 667.671875 415.042969 667.671875 413.386719 C 667.671875 411.730469 666.328125 410.386719 664.671875 410.386719 " fill-opacity="1" fill-rule="nonzero"/></g><g clip-path="url(#id23)"><path fill="#233dff" d="M 734 440.582031 C 732.964844 440.582031 732.125 441.421875 732.125 442.457031 C 732.125 443.492188 732.964844 444.332031 734 444.332031 C 735.035156 444.332031 735.875 443.492188 735.875 442.457031 C 735.875 441.421875 735.035156 440.582031 734 440.582031 " fill-opacity="1" fill-rule="nonzero"/></g><g clip-path="url(#id24)"><path fill="#233dff" d="M 762.363281 401.75 C 761.121094 401.75 760.113281 402.757812 760.113281 404 C 760.113281 405.242188 761.121094 406.25 762.363281 406.25 C 763.605469 406.25 764.613281 405.242188 764.613281 404 C 764.613281 402.757812 763.605469 401.75 762.363281 401.75 " fill-opacity="1" fill-rule="nonzero"/></g><g clip-path="url(#id25)"><path fill="#233dff" d="M 742.472656 377.328125 C 741.4375 377.328125 740.597656 378.164062 740.597656 379.203125 C 740.597656 380.238281 741.4375 381.078125 742.472656 381.078125 C 743.507812 381.078125 744.347656 380.238281 744.347656 379.203125 C 744.347656 378.164062 743.507812 377.328125 742.472656 377.328125 " fill-opacity="1" fill-rule="nonzero"/></g><g clip-path="url(#id26)"><path fill="#233dff" d="M 767.378906 393.089844 C 766.34375 393.089844 765.503906 393.929688 765.503906 394.964844 C 765.503906 396 766.34375 396.839844 767.378906 396.839844 C 768.414062 396.839844 769.253906 396 769.253906 394.964844 C 769.253906 393.929688 768.414062 393.089844 767.378906 393.089844 " fill-opacity="1" fill-rule="nonzero"/></g><g clip-path="url(#id27)"><path fill="#233dff" d="M 753.441406 347.90625 C 751.992188 347.90625 750.816406 349.082031 750.816406 350.53125 C 750.816406 351.984375 751.992188 353.15625 753.441406 353.15625 C 754.890625 353.15625 756.066406 351.984375 756.066406 350.53125 C 756.066406 349.082031 754.890625 347.90625 753.441406 347.90625 " fill-opacity="1" fill-rule="nonzero"/></g><g clip-path="url(#id28)"><path fill="#233dff" d="M 717.039062 326.839844 C 715.589844 326.839844 714.414062 328.015625 714.414062 329.464844 C 714.414062 330.914062 715.589844 332.089844 717.039062 332.089844 C 718.488281 332.089844 719.664062 330.914062 719.664062 329.464844 C 719.664062 328.015625 718.488281 326.839844 717.039062 326.839844 " fill-opacity="1" fill-rule="nonzero"/></g><g clip-path="url(#id29)"><path fill="#233dff" d="M 684.136719 356.980469 C 683.101562 356.980469 682.261719 357.820312 682.261719 358.855469 C 682.261719 359.890625 683.101562 360.730469 684.136719 360.730469 C 685.171875 360.730469 686.011719 359.890625 686.011719 358.855469 C 686.011719 357.820312 685.171875 356.980469 684.136719 356.980469 " fill-opacity="1" fill-rule="nonzero"/></g><g clip-path="url(#id30)"><path fill="#233dff" d="M 700.292969 316.457031 C 698.636719 316.457031 697.292969 317.800781 697.292969 319.457031 C 697.292969 321.113281 698.636719 322.457031 700.292969 322.457031 C 701.949219 322.457031 703.292969 321.113281 703.292969 319.457031 C 703.292969 317.800781 701.949219 316.457031 700.292969 316.457031 " fill-opacity="1" fill-rule="nonzero"/></g><g clip-path="url(#id31)"><path fill="#233dff" d="M 735.832031 293.289062 C 733.96875 293.289062 732.457031 294.800781 732.457031 296.664062 C 732.457031 298.53125 733.96875 300.039062 735.832031 300.039062 C 737.695312 300.039062 739.207031 298.53125 739.207031 296.664062 C 739.207031 294.800781 737.695312 293.289062 735.832031 293.289062 " fill-opacity="1" fill-rule="nonzero"/></g><g clip-path="url(#id32)"><path fill="#233dff" d="M 699.769531 217.175781 C 698.113281 217.175781 696.769531 218.519531 696.769531 220.175781 C 696.769531 221.832031 698.113281 223.175781 699.769531 223.175781 C 701.425781 223.175781 702.769531 221.832031 702.769531 220.175781 C 702.769531 218.519531 701.425781 217.175781 699.769531 217.175781 " fill-opacity="1" fill-rule="nonzero"/></g><g clip-path="url(#id33)"><path fill="#233dff" d="M 712.816406 153.949219 C 711.367188 153.949219 710.191406 155.121094 710.191406 156.574219 C 710.191406 158.023438 711.367188 159.199219 712.816406 159.199219 C 714.265625 159.199219 715.441406 158.023438 715.441406 156.574219 C 715.441406 155.121094 714.265625 153.949219 712.816406 153.949219 " fill-opacity="1" fill-rule="nonzero"/></g><g clip-path="url(#id34)"><path fill="#233dff" d="M 767.726562 167.84375 C 766.484375 167.84375 765.476562 168.851562 765.476562 170.09375 C 765.476562 171.335938 766.484375 172.34375 767.726562 172.34375 C 768.972656 172.34375 769.976562 171.335938 769.976562 170.09375 C 769.976562 168.851562 768.972656 167.84375 767.726562 167.84375 " fill-opacity="1" fill-rule="nonzero"/></g><g clip-path="url(#id35)"><path fill="#233dff" d="M 742.128906 150.910156 C 740.679688 150.910156 739.503906 152.085938 739.503906 153.535156 C 739.503906 154.984375 740.679688 156.160156 742.128906 156.160156 C 743.578125 156.160156 744.753906 154.984375 744.753906 153.535156 C 744.753906 152.085938 743.578125 150.910156 742.128906 150.910156 " fill-opacity="1" fill-rule="nonzero"/></g><g clip-path="url(#id36)"><path fill="#233dff" d="M 684.453125 176.300781 C 683.003906 176.300781 681.828125 177.476562 681.828125 178.925781 C 681.828125 180.375 683.003906 181.550781 684.453125 181.550781 C 685.902344 181.550781 687.078125 180.375 687.078125 178.925781 C 687.078125 177.476562 685.902344 176.300781 684.453125 176.300781 " fill-opacity="1" fill-rule="nonzero"/></g><g clip-path="url(#id37)"><path fill="#233dff" d="M 684.527344 131.214844 C 683.285156 131.214844 682.277344 132.222656 682.277344 133.464844 C 682.277344 134.707031 683.285156 135.714844 684.527344 135.714844 C 685.769531 135.714844 686.777344 134.707031 686.777344 133.464844 C 686.777344 132.222656 685.769531 131.214844 684.527344 131.214844 " fill-opacity="1" fill-rule="nonzero"/></g><g clip-path="url(#id38)"><path fill="#233dff" d="M 658.71875 116.945312 C 657.0625 116.945312 655.71875 118.289062 655.71875 119.945312 C 655.71875 121.601562 657.0625 122.945312 658.71875 122.945312 C 660.378906 122.945312 661.71875 121.601562 661.71875 119.945312 C 661.71875 118.289062 660.378906 116.945312 658.71875 116.945312 " fill-opacity="1" fill-rule="nonzero"/></g><path stroke-linecap="round" transform="matrix(-0.063821, -0.743986, 0.747256, -0.0641014, 678.148257, 239.467832)" fill="none" stroke-linejoin="miter" d="M 0.497479 0.000909967 L 31.653536 0.00108231 " stroke="#f4f6fc" stroke-width="1" stroke-opacity="1" stroke-miterlimit="4"/><g clip-path="url(#id39)"><path fill="#233dff" d="M 733.695312 214.582031 C 732.453125 214.582031 731.445312 215.589844 731.445312 216.832031 C 731.445312 218.078125 732.453125 219.082031 733.695312 219.082031 C 734.9375 219.082031 735.945312 218.078125 735.945312 216.832031 C 735.945312 215.589844 734.9375 214.582031 733.695312 214.582031 " fill-opacity="1" fill-rule="nonzero"/></g><g clip-path="url(#id40)"><path fill="#233dff" d="M 630.667969 392.867188 C 628.597656 392.867188 626.917969 394.546875 626.917969 396.617188 C 626.917969 398.6875 628.597656 400.367188 630.667969 400.367188 C 632.742188 400.367188 634.417969 398.6875 634.417969 396.617188 C 634.417969 394.546875 632.742188 392.867188 630.667969 392.867188 " fill-opacity="1" fill-rule="nonzero"/></g><path stroke-linecap="round" transform="matrix(-0.403213, -0.616498, 0.627672, -0.410521, 648.463739, 364.138037)" fill="none" stroke-linejoin="miter" d="M 0.502197 0.000751755 L 24.961102 -0.00105147 " stroke="#f4f6fc" stroke-width="1" stroke-opacity="1" stroke-miterlimit="4"/></svg>