<svg xmlns="http://www.w3.org/2000/svg" xmlns:xlink="http://www.w3.org/1999/xlink" width="1024" zoomAndPan="magnify" viewBox="0 0 768 449.999984" height="600" preserveAspectRatio="xMidYMid meet" version="1.0"><defs><clipPath id="id1"><path d="M 622.277344 132.195312 L 628.277344 132.195312 L 628.277344 138.195312 L 622.277344 138.195312 Z M 622.277344 132.195312 " clip-rule="nonzero"/></clipPath><clipPath id="id2"><path d="M 569.765625 102.730469 L 575.765625 102.730469 L 575.765625 108.730469 L 569.765625 108.730469 Z M 569.765625 102.730469 " clip-rule="nonzero"/></clipPath><clipPath id="id3"><path d="M 545.710938 26.753906 L 551.710938 26.753906 L 551.710938 32.753906 L 545.710938 32.753906 Z M 545.710938 26.753906 " clip-rule="nonzero"/></clipPath><clipPath id="id4"><path d="M 653.660156 19.367188 L 659.660156 19.367188 L 659.660156 25.367188 L 653.660156 25.367188 Z M 653.660156 19.367188 " clip-rule="nonzero"/></clipPath><clipPath id="id5"><path d="M 654.117188 43.304688 L 660.117188 43.304688 L 660.117188 49.304688 L 654.117188 49.304688 Z M 654.117188 43.304688 " clip-rule="nonzero"/></clipPath><clipPath id="id6"><path d="M 732.332031 67.558594 L 739.832031 67.558594 L 739.832031 75.058594 L 732.332031 75.058594 Z M 732.332031 67.558594 " clip-rule="nonzero"/></clipPath><clipPath id="id7"><path d="M 705.035156 23.371094 L 709.535156 23.371094 L 709.535156 27.871094 L 705.035156 27.871094 Z M 705.035156 23.371094 " clip-rule="nonzero"/></clipPath><clipPath id="id8"><path d="M 609.9375 17.867188 L 613.6875 17.867188 L 613.6875 21.617188 L 609.9375 21.617188 Z M 609.9375 17.867188 " clip-rule="nonzero"/></clipPath><clipPath id="id9"><path d="M 627.878906 168.949219 L 633.878906 168.949219 L 633.878906 174.949219 L 627.878906 174.949219 Z M 627.878906 168.949219 " clip-rule="nonzero"/></clipPath><clipPath id="id10"><path d="M 643.75 220.753906 L 652 220.753906 L 652 229.003906 L 643.75 229.003906 Z M 643.75 220.753906 " clip-rule="nonzero"/></clipPath><clipPath id="id11"><path d="M 606.992188 295.332031 L 612.992188 295.332031 L 612.992188 301.332031 L 606.992188 301.332031 Z M 606.992188 295.332031 " clip-rule="nonzero"/></clipPath><clipPath id="id12"><path d="M 662.148438 298.023438 L 670.398438 298.023438 L 670.398438 306.273438 L 662.148438 306.273438 Z M 662.148438 298.023438 " clip-rule="nonzero"/></clipPath><clipPath id="id13"><path d="M 570.652344 328.160156 L 575.902344 328.160156 L 575.902344 333.410156 L 570.652344 333.410156 Z M 570.652344 328.160156 " clip-rule="nonzero"/></clipPath><clipPath id="id14"><path d="M 622.878906 358.121094 L 627.378906 358.121094 L 627.378906 362.621094 L 622.878906 362.621094 Z M 622.878906 358.121094 " clip-rule="nonzero"/></clipPath><clipPath id="id15"><path d="M 586.75 384.320312 L 592 384.320312 L 592 389.570312 L 586.75 389.570312 Z M 586.75 384.320312 " clip-rule="nonzero"/></clipPath><clipPath id="id16"><path d="M 563.828125 389.019531 L 568.328125 389.019531 L 568.328125 393.519531 L 563.828125 393.519531 Z M 563.828125 389.019531 " clip-rule="nonzero"/></clipPath><clipPath id="id17"><path d="M 541.027344 392.976562 L 544.777344 392.976562 L 544.777344 396.726562 L 541.027344 396.726562 Z M 541.027344 392.976562 " clip-rule="nonzero"/></clipPath><clipPath id="id18"><path d="M 583.289062 411.164062 L 587.789062 411.164062 L 587.789062 415.664062 L 583.289062 415.664062 Z M 583.289062 411.164062 " clip-rule="nonzero"/></clipPath><clipPath id="id19"><path d="M 545.882812 433.644531 L 550.382812 433.644531 L 550.382812 438.144531 L 545.882812 438.144531 Z M 545.882812 433.644531 " clip-rule="nonzero"/></clipPath><clipPath id="id20"><path d="M 626.085938 432.660156 L 632.835938 432.660156 L 632.835938 439.410156 L 626.085938 439.410156 Z M 626.085938 432.660156 " clip-rule="nonzero"/></clipPath><clipPath id="id21"><path d="M 704.5 414.652344 L 709.746094 414.652344 L 709.746094 419.902344 L 704.5 419.902344 Z M 704.5 414.652344 " clip-rule="nonzero"/></clipPath><clipPath id="id22"><path d="M 661.671875 410.386719 L 667.671875 410.386719 L 667.671875 416.386719 L 661.671875 416.386719 Z M 661.671875 410.386719 " clip-rule="nonzero"/></clipPath><clipPath id="id23"><path d="M 732.125 440.582031 L 735.875 440.582031 L 735.875 444.332031 L 732.125 444.332031 Z M 732.125 440.582031 " clip-rule="nonzero"/></clipPath><clipPath id="id24"><path d="M 760.113281 401.75 L 764.613281 401.75 L 764.613281 406.25 L 760.113281 406.25 Z M 760.113281 401.75 " clip-rule="nonzero"/></clipPath><clipPath id="id25"><path d="M 740.597656 377.328125 L 744.347656 377.328125 L 744.347656 381.078125 L 740.597656 381.078125 Z M 740.597656 377.328125 " clip-rule="nonzero"/></clipPath><clipPath id="id26"><path d="M 765.503906 393.089844 L 768 393.089844 L 768 396.839844 L 765.503906 396.839844 Z M 765.503906 393.089844 " clip-rule="nonzero"/></clipPath><clipPath id="id27"><path d="M 750.816406 347.90625 L 756.066406 347.90625 L 756.066406 353.15625 L 750.816406 353.15625 Z M 750.816406 347.90625 " clip-rule="nonzero"/></clipPath><clipPath id="id28"><path d="M 714.414062 326.839844 L 719.664062 326.839844 L 719.664062 332.089844 L 714.414062 332.089844 Z M 714.414062 326.839844 " clip-rule="nonzero"/></clipPath><clipPath id="id29"><path d="M 682.261719 356.980469 L 686.011719 356.980469 L 686.011719 360.730469 L 682.261719 360.730469 Z M 682.261719 356.980469 " clip-rule="nonzero"/></clipPath><clipPath id="id30"><path d="M 697.292969 316.457031 L 703.292969 316.457031 L 703.292969 322.457031 L 697.292969 322.457031 Z M 697.292969 316.457031 " clip-rule="nonzero"/></clipPath><clipPath id="id31"><path d="M 732.457031 293.289062 L 739.207031 293.289062 L 739.207031 300.039062 L 732.457031 300.039062 Z M 732.457031 293.289062 " clip-rule="nonzero"/></clipPath><clipPath id="id32"><path d="M 696.769531 217.175781 L 702.769531 217.175781 L 702.769531 223.175781 L 696.769531 223.175781 Z M 696.769531 217.175781 " clip-rule="nonzero"/></clipPath><clipPath id="id33"><path d="M 710.191406 153.949219 L 715.441406 153.949219 L 715.441406 159.199219 L 710.191406 159.199219 Z M 710.191406 153.949219 " clip-rule="nonzero"/></clipPath><clipPath id="id34"><path d="M 765.476562 167.84375 L 768 167.84375 L 768 172.34375 L 765.476562 172.34375 Z M 765.476562 167.84375 " clip-rule="nonzero"/></clipPath><clipPath id="id35"><path d="M 739.503906 150.910156 L 744.753906 150.910156 L 744.753906 156.160156 L 739.503906 156.160156 Z M 739.503906 150.910156 " clip-rule="nonzero"/></clipPath><clipPath id="id36"><path d="M 681.828125 176.300781 L 687.078125 176.300781 L 687.078125 181.550781 L 681.828125 181.550781 Z M 681.828125 176.300781 " clip-rule="nonzero"/></clipPath><clipPath id="id37"><path d="M 682.277344 131.214844 L 686.777344 131.214844 L 686.777344 135.714844 L 682.277344 135.714844 Z M 682.277344 131.214844 " clip-rule="nonzero"/></clipPath><clipPath id="id38"><path d="M 655.71875 116.945312 L 661.71875 116.945312 L 661.71875 122.945312 L 655.71875 122.945312 Z M 655.71875 116.945312 " clip-rule="nonzero"/></clipPath><clipPath id="id39"><path d="M 731.445312 214.582031 L 735.945312 214.582031 L 735.945312 219.082031 L 731.445312 219.082031 Z M 731.445312 214.582031 " clip-rule="nonzero"/></clipPath><clipPath id="id40"><path d="M 626.917969 392.867188 L 634.417969 392.867188 L 634.417969 400.367188 L 626.917969 400.367188 Z M 626.917969 392.867188 " clip-rule="nonzero"/></clipPath></defs><rect x="-76.8" width="921.6" fill="#ffffff" y="-44.999998" height="539.99998" fill-opacity="1"/><rect x="-76.8" width="921.6" fill="#172852" y="-44.999998" height="539.99998" fill-opacity="1"/><rect x="-76.8" width="921.6" fill="#ffffff" y="-44.999998" height="539.99998" fill-opacity="1"/><rect x="-76.8" width="921.6" fill="#172852" y="-44.999998" height="539.99998" fill-opacity="1"/><path stroke-linecap="round" transform="matrix(0.43379, 0.61163, -0.61176, 0.43388, 505.902983, 11.420999)" fill="none" stroke-linejoin="miter" d="M 0.500665 -0.00151646 L 149.536703 0.00158756 " stroke="#235e94" stroke-width="1" stroke-opacity="1" stroke-miterlimit="4"/><path stroke-linecap="round" transform="matrix(-0.09658, 0.73288, -0.74357, -0.098, 507.382006, 0.003)" fill="none" stroke-linejoin="miter" d="M 0.496586 -0.0025437 L 14.722546 -0.00112226 " stroke="#235e94" stroke-width="1" stroke-opacity="1" stroke-miterlimit="4"/><path stroke-linecap="round" transform="matrix(0.68832, 0.295, -0.29545, 0.68936, 505.837991, 11.203999)" fill="none" stroke-linejoin="miter" d="M 0.501805 -0.000680559 L 61.599201 -0.00110761 " stroke="#235e94" stroke-width="1" stroke-opacity="1" stroke-miterlimit="4"/><path stroke-linecap="round" transform="matrix(0.3778, -0.65436, 0.64952, 0.375, 505.940999, 11.784998)" fill="none" stroke-linejoin="miter" d="M 0.500246 -0.00167052 L 18.362617 0.000787597 " stroke="#235e94" stroke-width="1" stroke-opacity="1" stroke-miterlimit="4"/><path stroke-linecap="round" transform="matrix(0.60325, 0.44317, -0.44403, 0.60443, 517.659934, -0.839)" fill="none" stroke-linejoin="miter" d="M 0.499511 0.000734773 L 151.800695 -0.00151012 " stroke="#235e94" stroke-width="1" stroke-opacity="1" stroke-miterlimit="4"/><path stroke-linecap="round" transform="matrix(0.09559, 0.75134, -0.744, 0.09465, 544.670995, 0.05)" fill="none" stroke-linejoin="miter" d="M 0.500139 0.0000722843 L 39.118625 0.000253642 " stroke="#235e94" stroke-width="1" stroke-opacity="1" stroke-miterlimit="4"/><path stroke-linecap="round" transform="matrix(-0.45593, 0.60918, -0.60045, -0.4494, 550.012939, -1.443)" fill="none" stroke-linejoin="miter" d="M 0.501636 -0.00154552 L 11.33171 -0.00197139 " stroke="#235e94" stroke-width="1" stroke-opacity="1" stroke-miterlimit="4"/><path stroke-linecap="round" transform="matrix(-0.4139, 0.62393, -0.62498, -0.4146, 633.896965, 12.617998)" fill="none" stroke-linejoin="miter" d="M 0.498666 -0.00134306 L 147.759178 0.0018647 " stroke="#235e94" stroke-width="1" stroke-opacity="1" stroke-miterlimit="4"/><path stroke-linecap="round" transform="matrix(0.60296, 0.44533, -0.44558, 0.6033, 545.510011, 5.662)" fill="none" stroke-linejoin="miter" d="M 0.499614 -0.00278534 L 140.582775 -0.00347175 " stroke="#235e94" stroke-width="1" stroke-opacity="1" stroke-miterlimit="4"/><path stroke-linecap="round" transform="matrix(0.21566, 0.7185, -0.71834, 0.2156, 577.346921, 53.065997)" fill="none" stroke-linejoin="miter" d="M 0.500058 0.00228102 L 67.49651 0.00121625 " stroke="#235e94" stroke-width="1" stroke-opacity="1" stroke-miterlimit="4"/><path stroke-linecap="round" transform="matrix(-0.67007, 0.32631, -0.32837, -0.6743, 633.729973, 81.904988)" fill="none" stroke-linejoin="miter" d="M 0.49947 0.00231913 L 61.9043 -0.000724756 " stroke="#235e94" stroke-width="1" stroke-opacity="1" stroke-miterlimit="4"/><path stroke-linecap="round" transform="matrix(0.529248, 0.529248, -0.53033, 0.53033, 591.466072, 101.540361)" fill="none" stroke-linejoin="miter" d="M 0.503195 -0.00374913 L 60.626808 -0.00374913 " stroke="#235e94" stroke-width="1" stroke-opacity="1" stroke-miterlimit="4"/><path stroke-linecap="round" transform="matrix(0.6585, 0.36086, -0.36043, 0.65772, 572.119961, 105.782987)" fill="none" stroke-linejoin="miter" d="M 0.500922 0.00166356 L 78.418249 0.00157418 " stroke="#235e94" stroke-width="1" stroke-opacity="1" stroke-miterlimit="4"/><path stroke-linecap="round" transform="matrix(-0.11865, 0.73895, -0.74052, -0.1189, 633.788989, 81.539994)" fill="none" stroke-linejoin="miter" d="M 0.500737 -0.00120537 L 73.662619 0.00276044 " stroke="#235e94" stroke-width="1" stroke-opacity="1" stroke-miterlimit="4"/><path stroke-linecap="round" transform="matrix(0.71415, 0.20533, -0.20724, 0.7208, 622.143949, 108.997998)" fill="none" stroke-linejoin="miter" d="M 0.49901 0.00153018 L 46.947605 -0.00142975 " stroke="#235e94" stroke-width="1" stroke-opacity="1" stroke-miterlimit="4"/><path stroke-linecap="round" transform="matrix(0.2187, 0.7145, -0.71716, 0.21951, 622.587973, 109.001989)" fill="none" stroke-linejoin="miter" d="M 0.499386 0.00261684 L 58.730885 -0.00164006 " stroke="#235e94" stroke-width="1" stroke-opacity="1" stroke-miterlimit="4"/><path stroke-linecap="round" transform="matrix(0.43337, 0.61092, -0.61172, 0.43394, 622.580941, 109.024993)" fill="none" stroke-linejoin="miter" d="M 0.501138 0.00203461 L 23.539276 0.00148283 " stroke="#235e94" stroke-width="1" stroke-opacity="1" stroke-miterlimit="4"/><path stroke-linecap="round" transform="matrix(-0.47634, 0.59282, -0.58465, -0.46977, 633.312925, 124.749981)" fill="none" stroke-linejoin="miter" d="M 0.500937 0.000153111 L 16.276881 0.00171244 " stroke="#235e94" stroke-width="1" stroke-opacity="1" stroke-miterlimit="4"/><path stroke-linecap="round" transform="matrix(0.28014, -0.69612, 0.69577, 0.28, 633.609925, 124.665986)" fill="none" stroke-linejoin="miter" d="M 0.501882 -0.000749885 L 157.426433 -0.000606017 " stroke="#235e94" stroke-width="1" stroke-opacity="1" stroke-miterlimit="4"/><path stroke-linecap="round" transform="matrix(0.72437, 0.20867, -0.20761, 0.7207, 545.984971, 5.36)" fill="none" stroke-linejoin="miter" d="M 0.500824 0.000467636 L 39.306162 0.000671066 " stroke="#235e94" stroke-width="1" stroke-opacity="1" stroke-miterlimit="4"/><path stroke-linecap="round" transform="matrix(-0.63328, 0.39676, -0.39819, -0.63557, 574.526921, 13.984998)" fill="none" stroke-linejoin="miter" d="M 0.499409 -0.000708806 L 38.643034 0.000944056 " stroke="#235e94" stroke-width="1" stroke-opacity="1" stroke-miterlimit="4"/><path stroke-linecap="round" transform="matrix(0.73594, -0.1972, 0.19411, 0.72444, 610.157966, 73.258998)" fill="none" stroke-linejoin="miter" d="M 0.501866 0.000173963 L 28.059855 0.00133551 " stroke="#235e94" stroke-width="1" stroke-opacity="1" stroke-miterlimit="4"/><path stroke-linecap="round" transform="matrix(0.70095, 0.24737, -0.2496, 0.70725, 610.059974, 73.427997)" fill="none" stroke-linejoin="miter" d="M 0.499225 -0.0010021 L 32.800111 0.00170884 " stroke="#235e94" stroke-width="1" stroke-opacity="1" stroke-miterlimit="4"/><path stroke-linecap="round" transform="matrix(0.19142, 0.7144, -0.72444, 0.19411, 630.017965, 67.395998)" fill="none" stroke-linejoin="miter" d="M 0.500787 0.000751333 L 19.792395 -0.00271792 " stroke="#235e94" stroke-width="1" stroke-opacity="1" stroke-miterlimit="4"/><path stroke-linecap="round" transform="matrix(-0.53855, 0.51958, -0.52074, -0.53975, 611.06891, 20.377998)" fill="none" stroke-linejoin="miter" d="M 0.497906 -0.0000345363 L 62.643225 0.000710758 " stroke="#235e94" stroke-width="1" stroke-opacity="1" stroke-miterlimit="4"/><path stroke-linecap="round" transform="matrix(0.21086, 0.71464, -0.71934, 0.21224, 570.655985, -0.092)" fill="none" stroke-linejoin="miter" d="M 0.500508 -0.000272755 L 18.625286 0.00178187 " stroke="#235e94" stroke-width="1" stroke-opacity="1" stroke-miterlimit="4"/><path stroke-linecap="round" transform="matrix(0.73282, 0.12753, -0.12859, 0.7389, 574.820009, 13.772999)" fill="none" stroke-linejoin="miter" d="M 0.501241 -0.00133297 L 48.917875 0.000302539 " stroke="#235e94" stroke-width="1" stroke-opacity="1" stroke-miterlimit="4"/><path stroke-linecap="round" transform="matrix(0.67911, 0.32142, -0.32085, 0.6779, 574.603025, 13.668)" fill="none" stroke-linejoin="miter" d="M 0.498255 -0.0000355761 L 87.354171 0.00105645 " stroke="#235e94" stroke-width="1" stroke-opacity="1" stroke-miterlimit="4"/><path stroke-linecap="round" transform="matrix(0.41458, 0.6265, -0.62545, 0.4139, 574.441961, 13.662999)" fill="none" stroke-linejoin="miter" d="M 0.499751 0.00113572 L 84.362712 -0.00147179 " stroke="#235e94" stroke-width="1" stroke-opacity="1" stroke-miterlimit="4"/><path stroke-linecap="round" transform="matrix(-0.37483, 0.64923, -0.64952, -0.375, 648.942971, -1.141)" fill="none" stroke-linejoin="miter" d="M 0.501076 0.0019196 L 104.548528 0.00175578 " stroke="#235e94" stroke-width="1" stroke-opacity="1" stroke-miterlimit="4"/><path stroke-linecap="round" transform="matrix(0.28562, 0.69645, -0.69391, 0.28458, 616.49399, -0.045)" fill="none" stroke-linejoin="miter" d="M 0.501757 0.000839993 L 59.293696 -0.000335587 " stroke="#235e94" stroke-width="1" stroke-opacity="1" stroke-miterlimit="4"/><path stroke-linecap="round" transform="matrix(0.65121, 0.37598, -0.375, 0.64952, 610.284926, -0.65)" fill="none" stroke-linejoin="miter" d="M 0.499381 0.00200934 L 35.414305 -0.00154961 " stroke="#235e94" stroke-width="1" stroke-opacity="1" stroke-miterlimit="4"/><path stroke-linecap="round" transform="matrix(0.68662, 0.2766, -0.28024, 0.69568, 633.166957, 12.514999)" fill="none" stroke-linejoin="miter" d="M 0.501338 -0.00190455 L 31.922435 -0.00142986 " stroke="#235e94" stroke-width="1" stroke-opacity="1" stroke-miterlimit="4"/><path stroke-linecap="round" transform="matrix(-0.56685, 0.5015, -0.49696, -0.56172, 655.855979, 23.122998)" fill="none" stroke-linejoin="miter" d="M 0.499448 -0.00272109 L 37.169218 0.00292198 " stroke="#235e94" stroke-width="1" stroke-opacity="1" stroke-miterlimit="4"/><path stroke-linecap="round" transform="matrix(0.73649, 0.13102, -0.13137, 0.7384, 633.899965, 41.811995)" fill="none" stroke-linejoin="miter" d="M 0.502068 0.00153061 L 29.582831 -0.000592354 " stroke="#235e94" stroke-width="1" stroke-opacity="1" stroke-miterlimit="4"/><path stroke-linecap="round" transform="matrix(-0.1948, 0.72698, -0.72444, -0.19411, 647.840003, 0.003)" fill="none" stroke-linejoin="miter" d="M 0.501038 0.000294989 L 93.179337 0.00161693 " stroke="#235e94" stroke-width="1" stroke-opacity="1" stroke-miterlimit="4"/><path stroke-linecap="round" transform="matrix(-0.5809, 0.47875, -0.477, -0.57877, 656.761955, 46.133994)" fill="none" stroke-linejoin="miter" d="M 0.500198 -0.00265456 L 46.332862 -0.000956365 " stroke="#235e94" stroke-width="1" stroke-opacity="1" stroke-miterlimit="4"/><path stroke-linecap="round" transform="matrix(0.1798, 0.72829, -0.72814, 0.17976, 656.705939, 22.839998)" fill="none" stroke-linejoin="miter" d="M 0.499014 -0.00166656 L 152.475973 0.0000344186 " stroke="#235e94" stroke-width="1" stroke-opacity="1" stroke-miterlimit="4"/><path stroke-linecap="round" transform="matrix(0.69803, -0.26283, 0.26429, 0.7019, 659.236955, 20.995)" fill="none" stroke-linejoin="miter" d="M 0.500103 -0.000393636 L 78.941027 -0.00119088 " stroke="#235e94" stroke-width="1" stroke-opacity="1" stroke-miterlimit="4"/><path stroke-linecap="round" transform="matrix(-0.39295, 0.6441, -0.64026, -0.3906, 670.478938, -0.647)" fill="none" stroke-linejoin="miter" d="M 0.501664 0.000872539 L 33.310116 -0.00139984 " stroke="#235e94" stroke-width="1" stroke-opacity="1" stroke-miterlimit="4"/><path stroke-linecap="round" transform="matrix(0.62916, 0.39132, -0.39611, 0.63686, 653.405939, -0.191)" fill="none" stroke-linejoin="miter" d="M 0.497435 0.000392345 L 36.958638 -0.00333133 " stroke="#235e94" stroke-width="1" stroke-opacity="1" stroke-miterlimit="4"/><path stroke-linecap="round" transform="matrix(0.43727, 0.59928, -0.60586, 0.44207, 639.231948, -1.668)" fill="none" stroke-linejoin="miter" d="M 0.500193 0.00239091 L 36.907211 -0.00120542 " stroke="#235e94" stroke-width="1" stroke-opacity="1" stroke-miterlimit="4"/><path stroke-linecap="round" transform="matrix(0.70294, 0.26593, -0.26538, 0.70148, 658.841963, 22.749)" fill="none" stroke-linejoin="miter" d="M 0.497877 0.0020133 L 150.191102 -0.00258806 " stroke="#235e94" stroke-width="1" stroke-opacity="1" stroke-miterlimit="4"/><path stroke-linecap="round" transform="matrix(0.74303, 0.04758, -0.04793, 0.74847, 658.546955, 22.747998)" fill="none" stroke-linejoin="miter" d="M 0.49947 0.00223731 L 63.969496 0.00173961 " stroke="#235e94" stroke-width="1" stroke-opacity="1" stroke-miterlimit="4"/><path stroke-linecap="round" transform="matrix(0.25105, 0.70716, -0.70678, 0.25091, 487.401984, 381.040958)" fill="none" stroke-linejoin="miter" d="M 0.499918 0.000204767 L 87.466979 0.00168868 " stroke="#235e94" stroke-width="1" stroke-opacity="1" stroke-miterlimit="4"/><path stroke-linecap="round" transform="matrix(0.55856, 0.49652, -0.49828, 0.56055, 486.915, 381.316962)" fill="none" stroke-linejoin="miter" d="M 0.502085 0.000265224 L 109.894619 0.00174222 " stroke="#235e94" stroke-width="1" stroke-opacity="1" stroke-miterlimit="4"/><path stroke-linecap="round" transform="matrix(0.74216, -0.1097, 0.10967, 0.74194, 509.477974, 441.968966)" fill="none" stroke-linejoin="miter" d="M 0.498167 -0.000342566 L 52.494653 0.00085584 " stroke="#235e94" stroke-width="1" stroke-opacity="1" stroke-miterlimit="4"/><path stroke-linecap="round" transform="matrix(-0.36013, 0.65202, -0.65652, -0.3626, 537.14798, 404.999968)" fill="none" stroke-linejoin="miter" d="M 0.49739 0.000159913 L 67.96715 -0.00137542 " stroke="#235e94" stroke-width="1" stroke-opacity="1" stroke-miterlimit="4"/><path stroke-linecap="round" transform="matrix(-0.1519, 0.72692, -0.73414, -0.1534, 509.42095, 441.974966)" fill="none" stroke-linejoin="miter" d="M 0.502214 0.00124495 L 10.615228 -0.000131535 " stroke="#235e94" stroke-width="1" stroke-opacity="1" stroke-miterlimit="4"/><path stroke-linecap="round" transform="matrix(0.61425, 0.45986, -0.44948, 0.6004, 508.569982, 442.042982)" fill="none" stroke-linejoin="miter" d="M 0.502288 -0.000876163 L 17.093197 -0.00185762 " stroke="#235e94" stroke-width="1" stroke-opacity="1" stroke-miterlimit="4"/><path stroke-linecap="round" transform="matrix(0.10777, 0.7397, -0.74216, 0.10813, 537.71498, 404.823952)" fill="none" stroke-linejoin="miter" d="M 0.502127 -0.000588752 L 60.714307 0.000468621 " stroke="#235e94" stroke-width="1" stroke-opacity="1" stroke-miterlimit="4"/><path stroke-linecap="round" transform="matrix(0.74685, -0.05854, 0.05861, 0.7477, 537.34802, 403.902977)" fill="none" stroke-linejoin="miter" d="M 0.501477 0.00184555 L 122.639711 -0.00132605 " stroke="#235e94" stroke-width="1" stroke-opacity="1" stroke-miterlimit="4"/><path stroke-linecap="round" transform="matrix(-0.1374, 0.72923, -0.73703, -0.13888, 548.562931, 435.791942)" fill="none" stroke-linejoin="miter" d="M 0.500103 0.00275358 L 18.717379 -0.00138928 " stroke="#235e94" stroke-width="1" stroke-opacity="1" stroke-miterlimit="4"/><path stroke-linecap="round" transform="matrix(0.33435, 0.65268, -0.66751, 0.34195, 548.317003, 436.607966)" fill="none" stroke-linejoin="miter" d="M 0.499258 -0.000666493 L 10.762101 0.00187098 " stroke="#235e94" stroke-width="1" stroke-opacity="1" stroke-miterlimit="4"/><path stroke-linecap="round" transform="matrix(0.75187, -0.07363, 0.0731, 0.74643, 487.051968, 381.919979)" fill="none" stroke-linejoin="miter" d="M 0.502396 -0.000234594 L 40.210449 0.002216 " stroke="#235e94" stroke-width="1" stroke-opacity="1" stroke-miterlimit="4"/><path stroke-linecap="round" transform="matrix(0.72792, 0.17918, -0.17927, 0.72826, 517.85599, 379.24995)" fill="none" stroke-linejoin="miter" d="M 0.498543 0.000774948 L 65.537846 -0.00114563 " stroke="#235e94" stroke-width="1" stroke-opacity="1" stroke-miterlimit="4"/><path stroke-linecap="round" transform="matrix(0.47616, 0.57734, -0.5786, 0.4772, 517.473958, 379.340975)" fill="none" stroke-linejoin="miter" d="M 0.498303 0.00050465 L 42.597396 -0.0011757 " stroke="#235e94" stroke-width="1" stroke-opacity="1" stroke-miterlimit="4"/><path stroke-linecap="round" transform="matrix(0.64088, 0.39313, -0.39216, 0.6393, 517.473958, 379.340975)" fill="none" stroke-linejoin="miter" d="M 0.499439 0.0027263 L 37.416318 0.000517125 " stroke="#235e94" stroke-width="1" stroke-opacity="1" stroke-miterlimit="4"/><path stroke-linecap="round" transform="matrix(-0.61082, 0.43889, -0.43764, -0.60908, 613.841966, 344.085969)" fill="none" stroke-linejoin="miter" d="M 0.500948 0.00187595 L 114.177352 -0.00321197 " stroke="#235e94" stroke-width="1" stroke-opacity="1" stroke-miterlimit="4"/><path stroke-linecap="round" transform="matrix(0.739716, -0.123773, 0.123773, 0.739716, 566.06229, 391.026913)" fill="none" stroke-linejoin="miter" d="M 0.501941 0.0000779989 L 33.511899 -0.000196929 " stroke="#235e94" stroke-width="1" stroke-opacity="1" stroke-miterlimit="4"/><path stroke-linecap="round" transform="matrix(0.73081, 0.17986, -0.17923, 0.72827, 543.779972, 395.219998)" fill="none" stroke-linejoin="miter" d="M 0.498486 -0.00145814 L 138.02854 0.00145873 " stroke="#235e94" stroke-width="1" stroke-opacity="1" stroke-miterlimit="4"/><path stroke-linecap="round" transform="matrix(-0.10494, 0.73634, -0.7425, -0.10582, 566.032986, 391.288974)" fill="none" stroke-linejoin="miter" d="M 0.49882 0.000230215 L 42.87449 -0.00191188 " stroke="#235e94" stroke-width="1" stroke-opacity="1" stroke-miterlimit="4"/><path stroke-linecap="round" transform="matrix(0.66455, 0.35661, -0.35463, 0.66086, 561.078954, 423.196935)" fill="none" stroke-linejoin="miter" d="M 0.498596 0.000394424 L 75.084634 -0.00032148 " stroke="#235e94" stroke-width="1" stroke-opacity="1" stroke-miterlimit="4"/><path stroke-linecap="round" transform="matrix(-0.54995, 0.50075, -0.50494, -0.55456, 584.317, 415.326976)" fill="none" stroke-linejoin="miter" d="M 0.499763 -0.00161024 L 55.97993 -0.000812913 " stroke="#235e94" stroke-width="1" stroke-opacity="1" stroke-miterlimit="4"/><path stroke-linecap="round" transform="matrix(0.48455, -0.5894, 0.57935, 0.47629, 547.843963, 450.246973)" fill="none" stroke-linejoin="miter" d="M 0.498887 0.000411704 L 10.326872 -0.000333192 " stroke="#235e94" stroke-width="1" stroke-opacity="1" stroke-miterlimit="4"/><path stroke-linecap="round" transform="matrix(-0.72489, 0.19423, -0.19411, -0.72444, 644.659956, 419.969991)" fill="none" stroke-linejoin="miter" d="M 0.500577 0.00112096 L 127.433338 -0.00178053 " stroke="#235e94" stroke-width="1" stroke-opacity="1" stroke-miterlimit="4"/><path stroke-linecap="round" transform="matrix(0.55129, -0.52135, 0.51533, 0.54492, 548.849971, 435.259982)" fill="none" stroke-linejoin="miter" d="M 0.498783 0.000106738 L 22.243504 0.00133834 " stroke="#235e94" stroke-width="1" stroke-opacity="1" stroke-miterlimit="4"/><path stroke-linecap="round" transform="matrix(0.23137, 0.72028, -0.71407, 0.22937, 561.65001, 423.272991)" fill="none" stroke-linejoin="miter" d="M 0.499571 -0.0000407962 L 37.187675 0.000302544 " stroke="#235e94" stroke-width="1" stroke-opacity="1" stroke-miterlimit="4"/><path stroke-linecap="round" transform="matrix(-0.63583, 0.39533, -0.396, -0.63693, 627.789925, 397.960985)" fill="none" stroke-linejoin="miter" d="M 0.500329 -0.00216049 L 117.716223 0.00258345 " stroke="#235e94" stroke-width="1" stroke-opacity="1" stroke-miterlimit="4"/><path stroke-linecap="round" transform="matrix(0.6756, -0.32617, 0.32608, 0.6754, 574.777985, 450.270973)" fill="none" stroke-linejoin="miter" d="M 0.500822 0.00259853 L 51.487398 -0.00113334 " stroke="#235e94" stroke-width="1" stroke-opacity="1" stroke-miterlimit="4"/><path stroke-linecap="round" transform="matrix(0.58306, 0.4603, -0.46472, 0.58867, 586.705984, 415.04896)" fill="none" stroke-linejoin="miter" d="M 0.497026 -0.000674529 L 38.886917 0.00103827 " stroke="#235e94" stroke-width="1" stroke-opacity="1" stroke-miterlimit="4"/><path stroke-linecap="round" transform="matrix(-0.75337, -0.10802, 0.10645, -0.7424, 630.837973, 436.024958)" fill="none" stroke-linejoin="miter" d="M 0.500137 -0.00232087 L 28.089757 -0.00200008 " stroke="#235e94" stroke-width="1" stroke-opacity="1" stroke-miterlimit="4"/><path stroke-linecap="round" transform="matrix(-0.3597, 0.65914, -0.65835, -0.35928, 609.799958, 432.614966)" fill="none" stroke-linejoin="miter" d="M 0.500279 -0.00164899 L 25.481624 0.0021355 " stroke="#235e94" stroke-width="1" stroke-opacity="1" stroke-miterlimit="4"/><path stroke-linecap="round" transform="matrix(-0.27087, 0.69019, -0.69816, -0.274, 609.672926, 433.647974)" fill="none" stroke-linejoin="miter" d="M 0.498119 -0.00152048 L 22.775148 -0.000121097 " stroke="#235e94" stroke-width="1" stroke-opacity="1" stroke-miterlimit="4"/><path stroke-linecap="round" transform="matrix(0.28446, 0.68794, -0.69308, 0.28659, 609.759974, 433.649966)" fill="none" stroke-linejoin="miter" d="M 0.497901 -0.00106264 L 22.688366 -0.00135184 " stroke="#235e94" stroke-width="1" stroke-opacity="1" stroke-miterlimit="4"/><path stroke-linecap="round" transform="matrix(0.57751, 0.47164, -0.4744, 0.5809, 685.240977, 359.386964)" fill="none" stroke-linejoin="miter" d="M 0.500143 -0.00302617 L 47.788922 -0.00060167 " stroke="#235e94" stroke-width="1" stroke-opacity="1" stroke-miterlimit="4"/><path stroke-linecap="round" transform="matrix(-0.39486, 0.6379, -0.63771, -0.39475, 712.664958, 381.038966)" fill="none" stroke-linejoin="miter" d="M 0.500797 -0.00240918 L 107.476025 0.000648893 " stroke="#235e94" stroke-width="1" stroke-opacity="1" stroke-miterlimit="4"/><path stroke-linecap="round" transform="matrix(-0.63134, 0.41143, -0.40948, -0.62835, 761.542971, 404.515984)" fill="none" stroke-linejoin="miter" d="M 0.501514 -0.000531462 L 98.03266 -0.00319173 " stroke="#235e94" stroke-width="1" stroke-opacity="1" stroke-miterlimit="4"/><path stroke-linecap="round" transform="matrix(-0.36221, 0.65521, -0.65638, -0.36286, 763.012922, 404.275985)" fill="none" stroke-linejoin="miter" d="M 0.502059 -0.00146173 L 69.625176 0.00154905 " stroke="#235e94" stroke-width="1" stroke-opacity="1" stroke-miterlimit="4"/><path stroke-linecap="round" transform="matrix(0.74595, -0.11829, 0.11746, 0.74074, 733.424957, 442.339982)" fill="none" stroke-linejoin="miter" d="M 0.498532 0.000323793 L 46.177282 0.00166785 " stroke="#235e94" stroke-width="1" stroke-opacity="1" stroke-miterlimit="4"/><path stroke-linecap="round" transform="matrix(0.08634, 0.74627, -0.74503, 0.0862, 763.450922, 404.099969)" fill="none" stroke-linejoin="miter" d="M 0.499715 -0.00271926 L 46.436311 -0.000945327 " stroke="#235e94" stroke-width="1" stroke-opacity="1" stroke-miterlimit="4"/><path stroke-linecap="round" transform="matrix(-0.695, 0.25295, -0.2565, -0.70477, 734.354909, 442.341998)" fill="none" stroke-linejoin="miter" d="M 0.499615 -0.000531762 L 29.934117 -0.000326253 " stroke="#235e94" stroke-width="1" stroke-opacity="1" stroke-miterlimit="4"/><path stroke-linecap="round" transform="matrix(0.7019, -0.25212, 0.25354, 0.70584, 706.823935, 417.107968)" fill="none" stroke-linejoin="miter" d="M 0.501783 -0.00140139 L 85.9903 -0.00327995 " stroke="#235e94" stroke-width="1" stroke-opacity="1" stroke-miterlimit="4"/><path stroke-linecap="round" transform="matrix(0.25631, 0.70823, -0.70524, 0.25523, 712.758942, 382.294979)" fill="none" stroke-linejoin="miter" d="M 0.499009 0.000176841 L 84.146174 0.00315948 " stroke="#235e94" stroke-width="1" stroke-opacity="1" stroke-miterlimit="4"/><path stroke-linecap="round" transform="matrix(0.552, 0.50703, -0.50736, 0.55235, 707.712967, 417.462999)" fill="none" stroke-linejoin="miter" d="M 0.497819 -0.00102225 L 48.533378 -0.00101862 " stroke="#235e94" stroke-width="1" stroke-opacity="1" stroke-miterlimit="4"/><path stroke-linecap="round" transform="matrix(0.57195, 0.45658, -0.4679, 0.58614, 734.495933, 442.152974)" fill="none" stroke-linejoin="miter" d="M 0.500618 0.00216113 L 16.923134 -0.00141835 " stroke="#235e94" stroke-width="1" stroke-opacity="1" stroke-miterlimit="4"/><path stroke-linecap="round" transform="matrix(-0.19654, 0.7335, -0.72444, -0.19411, 706.821991, 417.100984)" fill="none" stroke-linejoin="miter" d="M 0.501656 0.00102035 L 37.03438 0.000394898 " stroke="#235e94" stroke-width="1" stroke-opacity="1" stroke-miterlimit="4"/><path stroke-linecap="round" transform="matrix(-0.59966, 0.45835, -0.45545, -0.59587, 706.695967, 416.827984)" fill="none" stroke-linejoin="miter" d="M 0.502845 -0.000220325 L 51.169223 0.000243959 " stroke="#235e94" stroke-width="1" stroke-opacity="1" stroke-miterlimit="4"/><path stroke-linecap="round" transform="matrix(0.73208, 0.11433, -0.11573, 0.74102, 675.586953, 440.659982)" fill="none" stroke-linejoin="miter" d="M 0.50051 0.00208506 L 31.896571 0.00253367 " stroke="#235e94" stroke-width="1" stroke-opacity="1" stroke-miterlimit="4"/><path stroke-linecap="round" transform="matrix(0.143, 0.71028, -0.73525, 0.14802, 699.422959, 444.115957)" fill="none" stroke-linejoin="miter" d="M 0.497269 -0.00275394 L 7.795055 -0.0019181 " stroke="#235e94" stroke-width="1" stroke-opacity="1" stroke-miterlimit="4"/><path stroke-linecap="round" transform="matrix(-0.31863, 0.68421, -0.6799, -0.31661, 664.353994, 414.756976)" fill="none" stroke-linejoin="miter" d="M 0.497935 0.0000362784 L 51.189678 0.000675231 " stroke="#235e94" stroke-width="1" stroke-opacity="1" stroke-miterlimit="4"/><path stroke-linecap="round" transform="matrix(0.6427, 0.38657, -0.38657, 0.6427, 631.993141, 437.346182)" fill="none" stroke-linejoin="miter" d="M 0.497447 0.000905864 L 31.502989 0.00473767 " stroke="#235e94" stroke-width="1" stroke-opacity="1" stroke-miterlimit="4"/><path stroke-linecap="round" transform="matrix(0.44774, 0.60535, -0.60299, 0.44599, 630.846949, 437.700974)" fill="none" stroke-linejoin="miter" d="M 0.499875 0.000746723 L 19.425061 0.00224864 " stroke="#235e94" stroke-width="1" stroke-opacity="1" stroke-miterlimit="4"/><path stroke-linecap="round" transform="matrix(0.63328, 0.41405, -0.41042, 0.62774, 644.666916, 420.019983)" fill="none" stroke-linejoin="miter" d="M 0.500584 -0.0010953 L 49.06918 -0.00181442 " stroke="#235e94" stroke-width="1" stroke-opacity="1" stroke-miterlimit="4"/><path stroke-linecap="round" transform="matrix(-0.49801, 0.55946, -0.5602, -0.49867, 666.395986, 394.577957)" fill="none" stroke-linejoin="miter" d="M 0.496495 0.000516266 L 70.596796 -0.000357263 " stroke="#235e94" stroke-width="1" stroke-opacity="1" stroke-miterlimit="4"/><path stroke-linecap="round" transform="matrix(0.68045, 0.3202, -0.31933, 0.67862, 665.77093, 394.856981)" fill="none" stroke-linejoin="miter" d="M 0.501734 -0.00296395 L 28.436361 -0.00201362 " stroke="#235e94" stroke-width="1" stroke-opacity="1" stroke-miterlimit="4"/><path stroke-linecap="round" transform="matrix(-0.34266, 0.67713, -0.6692, -0.33865, 685.046961, 404.205977)" fill="none" stroke-linejoin="miter" d="M 0.498526 0.001697 L 27.185205 0.00180844 " stroke="#235e94" stroke-width="1" stroke-opacity="1" stroke-miterlimit="4"/><path stroke-linecap="round" transform="matrix(0.75136, 0.06543, -0.06506, 0.74717, 644.461956, 419.979951)" fill="none" stroke-linejoin="miter" d="M 0.497648 -0.0010622 L 41.277839 -0.00143596 " stroke="#235e94" stroke-width="1" stroke-opacity="1" stroke-miterlimit="4"/><path stroke-linecap="round" transform="matrix(0.03332, 0.74408, -0.74925, 0.03355, 675.427929, 422.869959)" fill="none" stroke-linejoin="miter" d="M 0.500296 -0.000952059 L 35.763062 -0.00205435 " stroke="#235e94" stroke-width="1" stroke-opacity="1" stroke-miterlimit="4"/><path stroke-linecap="round" transform="matrix(0.56234, 0.49502, -0.49556, 0.56295, 711.694998, 381.293966)" fill="none" stroke-linejoin="miter" d="M 0.501712 0.0011473 L 99.620884 0.00192196 " stroke="#235e94" stroke-width="1" stroke-opacity="1" stroke-miterlimit="4"/><path stroke-linecap="round" transform="matrix(0.2268, 0.70878, -0.71432, 0.22858, 754.047915, 350.814964)" fill="none" stroke-linejoin="miter" d="M 0.497753 0.00090888 L 59.981089 -0.00100641 " stroke="#235e94" stroke-width="1" stroke-opacity="1" stroke-miterlimit="4"/><path stroke-linecap="round" transform="matrix(-0.27851, 0.69605, -0.69633, -0.27862, 753.694995, 350.701965)" fill="none" stroke-linejoin="miter" d="M 0.501502 0.000911082 L 39.531396 -0.00343669 " stroke="#235e94" stroke-width="1" stroke-opacity="1" stroke-miterlimit="4"/><path stroke-linecap="round" transform="matrix(0.63406, 0.39721, -0.39817, 0.63558, 743.023948, 379.101971)" fill="none" stroke-linejoin="miter" d="M 0.498861 0.0010345 L 38.596604 0.00104641 " stroke="#235e94" stroke-width="1" stroke-opacity="1" stroke-miterlimit="4"/><path stroke-linecap="round" transform="matrix(-0.74983, 0.06502, -0.06479, -0.7472, 742.189948, 379.19997)" fill="none" stroke-linejoin="miter" d="M 0.497952 0.00251408 L 39.376496 0.0032355 " stroke="#235e94" stroke-width="1" stroke-opacity="1" stroke-miterlimit="4"/><path stroke-linecap="round" transform="matrix(0.46849, 0.58603, -0.58581, 0.46832, 742.823932, 378.84797)" fill="none" stroke-linejoin="miter" d="M 0.499972 -0.00073343 L 42.492018 0.000932771 " stroke="#235e94" stroke-width="1" stroke-opacity="1" stroke-miterlimit="4"/><path stroke-linecap="round" transform="matrix(-0.10165, 0.73899, -0.743, -0.1022, 711.97995, 382.160975)" fill="none" stroke-linejoin="miter" d="M 0.500933 -0.000884127 L 45.764457 -0.00017741 " stroke="#235e94" stroke-width="1" stroke-opacity="1" stroke-miterlimit="4"/><path stroke-linecap="round" transform="matrix(0.14873, 0.73405, -0.73506, 0.14893, 679.947969, 281.813973)" fill="none" stroke-linejoin="miter" d="M 0.498577 -0.00178917 L 180.753683 -0.000776314 " stroke="#235e94" stroke-width="1" stroke-opacity="1" stroke-miterlimit="4"/><path stroke-linecap="round" transform="matrix(-0.41672, 0.62584, -0.62427, -0.41567, 654.341963, 93.081994)" fill="none" stroke-linejoin="miter" d="M 0.500159 0.00115976 L 49.384483 0.00119077 " stroke="#235e94" stroke-width="1" stroke-opacity="1" stroke-miterlimit="4"/><path stroke-linecap="round" transform="matrix(0.28255, 0.69848, -0.69527, 0.28125, 654.606947, 93.222994)" fill="none" stroke-linejoin="miter" d="M 0.501383 0.00362307 L 67.19887 0.000338847 " stroke="#235e94" stroke-width="1" stroke-opacity="1" stroke-miterlimit="4"/><path stroke-linecap="round" transform="matrix(0.73179, -0.13712, 0.13813, 0.73717, 633.263941, 124.10999)" fill="none" stroke-linejoin="miter" d="M 0.498393 0.00178792 L 33.764691 0.0003962 " stroke="#235e94" stroke-width="1" stroke-opacity="1" stroke-miterlimit="4"/><path stroke-linecap="round" transform="matrix(0.37199, 0.6443, -0.64952, 0.375, 633.191965, 124.095986)" fill="none" stroke-linejoin="miter" d="M 0.500441 -0.00120483 L 26.73353 -0.000229586 " stroke="#235e94" stroke-width="1" stroke-opacity="1" stroke-miterlimit="4"/><path stroke-linecap="round" transform="matrix(-0.42532, 0.61385, -0.61648, -0.42714, 657.543011, 120.006991)" fill="none" stroke-linejoin="miter" d="M 0.497159 -0.000766206 L 50.729227 -0.0030683 " stroke="#235e94" stroke-width="1" stroke-opacity="1" stroke-miterlimit="4"/><path stroke-linecap="round" transform="matrix(0.09472, 0.7384, -0.7439, 0.09543, 625.766965, 137.460004)" fill="none" stroke-linejoin="miter" d="M 0.498251 0.00223079 L 43.835299 0.0014459 " stroke="#235e94" stroke-width="1" stroke-opacity="1" stroke-miterlimit="4"/><path stroke-linecap="round" transform="matrix(-0.1555, 0.73097, -0.73359, -0.15605, 624.601957, 138.159995)" fill="none" stroke-linejoin="miter" d="M 0.497541 0.00157048 L 95.843296 -0.00121712 " stroke="#235e94" stroke-width="1" stroke-opacity="1" stroke-miterlimit="4"/><g clip-path="url(#id1)"><path fill="#ffde59" d="M 625.277344 132.195312 C 623.621094 132.195312 622.277344 133.539062 622.277344 135.195312 C 622.277344 136.851562 623.621094 138.195312 625.277344 138.195312 C 626.933594 138.195312 628.277344 136.851562 628.277344 135.195312 C 628.277344 133.539062 626.933594 132.195312 625.277344 132.195312 " fill-opacity="1" fill-rule="nonzero"/></g><path stroke-linecap="round" transform="matrix(-0.7572, -0.09231, 0.09076, -0.74449, 629.654965, 210.753982)" fill="none" stroke-linejoin="miter" d="M 0.498852 0.00121113 L 26.050545 0.00214935 " stroke="#235e94" stroke-width="1" stroke-opacity="1" stroke-miterlimit="4"/><path stroke-linecap="round" transform="matrix(-0.2881, -0.6905, 0.69217, -0.2888, 633.732925, 266.61698)" fill="none" stroke-linejoin="miter" d="M 0.502213 0.00232148 L 83.707973 0.000759927 " stroke="#235e94" stroke-width="1" stroke-opacity="1" stroke-miterlimit="4"/><path stroke-linecap="round" transform="matrix(-0.68662, -0.30527, 0.3047, -0.68532, 656.835971, 247.836981)" fill="none" stroke-linejoin="miter" d="M 0.500983 0.000660748 L 32.444399 -0.00133263 " stroke="#235e94" stroke-width="1" stroke-opacity="1" stroke-miterlimit="4"/><path stroke-linecap="round" transform="matrix(0.41462, -0.62611, 0.62532, 0.4141, 572.683961, 330.441975)" fill="none" stroke-linejoin="miter" d="M 0.49954 -0.000728645 L 147.327461 0.00105654 " stroke="#235e94" stroke-width="1" stroke-opacity="1" stroke-miterlimit="4"/><path stroke-linecap="round" transform="matrix(0.14268, -0.73893, 0.7364, 0.1422, 613.471958, 344.791965)" fill="none" stroke-linejoin="miter" d="M 0.500733 -0.000589226 L 144.99818 -0.000191422 " stroke="#235e94" stroke-width="1" stroke-opacity="1" stroke-miterlimit="4"/><path stroke-linecap="round" transform="matrix(-0.71178, 0.24634, -0.2453, -0.70875, 664.701994, 302.153972)" fill="none" stroke-linejoin="miter" d="M 0.49814 -0.000931453 L 102.064458 -0.00048951 " stroke="#235e94" stroke-width="1" stroke-opacity="1" stroke-miterlimit="4"/><path stroke-linecap="round" transform="matrix(-0.539841, -0.520645, 0.520645, -0.539841, 624.966637, 359.512179)" fill="none" stroke-linejoin="miter" d="M 0.503066 0.000482142 L 61.508401 -0.000289792 " stroke="#235e94" stroke-width="1" stroke-opacity="1" stroke-miterlimit="4"/><path stroke-linecap="round" transform="matrix(-0.65519, -0.36218, 0.36285, -0.65639, 625.429957, 359.80298)" fill="none" stroke-linejoin="miter" d="M 0.501449 0.000413281 L 76.647788 -0.000431667 " stroke="#235e94" stroke-width="1" stroke-opacity="1" stroke-miterlimit="4"/><path stroke-linecap="round" transform="matrix(-0.21247, -0.7207, 0.71939, -0.21208, 589.56496, 386.882958)" fill="none" stroke-linejoin="miter" d="M 0.498108 0.00251683 L 76.363731 -0.000158372 " stroke="#235e94" stroke-width="1" stroke-opacity="1" stroke-miterlimit="4"/><path stroke-linecap="round" transform="matrix(0.07499, -0.75098, 0.74629, 0.07452, 566.446962, 391.227978)" fill="none" stroke-linejoin="miter" d="M 0.501209 -0.000231067 L 79.007939 -0.000902669 " stroke="#235e94" stroke-width="1" stroke-opacity="1" stroke-miterlimit="4"/><path stroke-linecap="round" transform="matrix(-0.72822, 0.1689, -0.16944, -0.7306, 635.951964, 376.344962)" fill="none" stroke-linejoin="miter" d="M 0.502581 0.00021949 L 61.701508 0.000986828 " stroke="#235e94" stroke-width="1" stroke-opacity="1" stroke-miterlimit="4"/><path stroke-linecap="round" transform="matrix(-0.63833, -0.38775, 0.38938, -0.641, 643.202964, 419.635959)" fill="none" stroke-linejoin="miter" d="M 0.5016 0.0000899472 L 81.860214 0.000206417 " stroke="#235e94" stroke-width="1" stroke-opacity="1" stroke-miterlimit="4"/><path stroke-linecap="round" transform="matrix(-0.73217, -0.17057, 0.17017, -0.73044, 628.549957, 396.35496)" fill="none" stroke-linejoin="miter" d="M 0.500404 0.000102915 L 52.390467 0.00102526 " stroke="#235e94" stroke-width="1" stroke-opacity="1" stroke-miterlimit="4"/><path stroke-linecap="round" transform="matrix(-0.4894, -0.57648, 0.57175, -0.48539, 586.24396, 414.489952)" fill="none" stroke-linejoin="miter" d="M 0.497942 -0.000467611 L 39.169021 -0.000741418 " stroke="#235e94" stroke-width="1" stroke-opacity="1" stroke-miterlimit="4"/><path stroke-linecap="round" transform="matrix(0.1528, -0.73439, 0.73427, 0.15278, 609.84395, 433.229966)" fill="none" stroke-linejoin="miter" d="M 0.499748 0.00212869 L 98.49226 0.00131206 " stroke="#235e94" stroke-width="1" stroke-opacity="1" stroke-miterlimit="4"/><path stroke-linecap="round" transform="matrix(-0.7479, 0.08224, -0.08197, -0.7455, 753.681987, 351.024964)" fill="none" stroke-linejoin="miter" d="M 0.499312 -0.000508384 L 92.219661 -0.000356338 " stroke="#235e94" stroke-width="1" stroke-opacity="1" stroke-miterlimit="4"/><path stroke-linecap="round" transform="matrix(-0.73515, 0.14203, -0.14226, -0.73638, 684.517977, 358.69298)" fill="none" stroke-linejoin="miter" d="M 0.497866 -0.00262503 L 55.609073 0.00175435 " stroke="#235e94" stroke-width="1" stroke-opacity="1" stroke-miterlimit="4"/><path stroke-linecap="round" transform="matrix(-0.34337, -0.66829, 0.6671, -0.34276, 742.226956, 378.099962)" fill="none" stroke-linejoin="miter" d="M 0.500582 -0.000575288 L 69.38516 0.000250893 " stroke="#235e94" stroke-width="1" stroke-opacity="1" stroke-miterlimit="4"/><path stroke-linecap="round" transform="matrix(0.37821, -0.65508, 0.64952, 0.375, 717.943902, 327.97099)" fill="none" stroke-linejoin="miter" d="M 0.498634 0.000495954 L 45.114596 0.00172441 " stroke="#235e94" stroke-width="1" stroke-opacity="1" stroke-miterlimit="4"/><path stroke-linecap="round" transform="matrix(-0.6285, 0.40088, -0.40332, -0.63232, 735.374957, 297.227965)" fill="none" stroke-linejoin="miter" d="M 0.503315 0.0000730921 L 53.830721 -0.00153466 " stroke="#235e94" stroke-width="1" stroke-opacity="1" stroke-miterlimit="4"/><path stroke-linecap="round" transform="matrix(-0.65462, -0.36047, 0.36177, -0.65698, 717.615966, 329.170962)" fill="none" stroke-linejoin="miter" d="M 0.498581 -0.0014449 L 25.603591 0.000347933 " stroke="#235e94" stroke-width="1" stroke-opacity="1" stroke-miterlimit="4"/><path stroke-linecap="round" transform="matrix(-0.6743, 0.3352, -0.33385, -0.6716, 715.117926, 330.51595)" fill="none" stroke-linejoin="miter" d="M 0.499462 -0.000333123 L 108.075619 0.0010572 " stroke="#235e94" stroke-width="1" stroke-opacity="1" stroke-miterlimit="4"/><path stroke-linecap="round" transform="matrix(-0.39432, 0.64074, -0.63874, -0.39309, 716.274966, 330.177982)" fill="none" stroke-linejoin="miter" d="M 0.501643 -0.00151353 L 129.094646 -0.0011345 " stroke="#235e94" stroke-width="1" stroke-opacity="1" stroke-miterlimit="4"/><path stroke-linecap="round" transform="matrix(-0.14251, -0.73503, 0.73629, -0.14275, 712.54395, 382.28997)" fill="none" stroke-linejoin="miter" d="M 0.500771 0.0000959952 L 81.647082 -0.00295501 " stroke="#235e94" stroke-width="1" stroke-opacity="1" stroke-miterlimit="4"/><path stroke-linecap="round" transform="matrix(-0.3465, 0.66094, -0.66425, -0.34824, 684.157977, 359.790968)" fill="none" stroke-linejoin="miter" d="M 0.49981 0.000628318 L 52.779618 -0.00188734 " stroke="#235e94" stroke-width="1" stroke-opacity="1" stroke-miterlimit="4"/><path stroke-linecap="round" transform="matrix(-0.65192, 0.37638, -0.375, -0.64952, 684.997929, 358.631955)" fill="none" stroke-linejoin="miter" d="M 0.500219 -0.000130749 L 16.446515 -0.00327139 " stroke="#235e94" stroke-width="1" stroke-opacity="1" stroke-miterlimit="4"/><path stroke-linecap="round" transform="matrix(0.41913, -0.62221, 0.62204, 0.41901, 652.260971, 397.635965)" fill="none" stroke-linejoin="miter" d="M 0.502288 0.00186683 L 53.499468 -0.000977003 " stroke="#235e94" stroke-width="1" stroke-opacity="1" stroke-miterlimit="4"/><path stroke-linecap="round" transform="matrix(0.174766, -0.729354, 0.729354, 0.174766, 666.374026, 394.124237)" fill="none" stroke-linejoin="miter" d="M 0.50212 -0.00115429 L 37.504502 -0.00376715 " stroke="#235e94" stroke-width="1" stroke-opacity="1" stroke-miterlimit="4"/><path stroke-linecap="round" transform="matrix(-0.73097, -0.19586, 0.19411, -0.72444, 662.143954, 372.15498)" fill="none" stroke-linejoin="miter" d="M 0.500909 -0.00237688 L 27.258484 -0.000376105 " stroke="#235e94" stroke-width="1" stroke-opacity="1" stroke-miterlimit="4"/><path stroke-linecap="round" transform="matrix(-0.528456, -0.528456, 0.53033, -0.53033, 697.064672, 407.121616)" fill="none" stroke-linejoin="miter" d="M 0.497801 -0.00155476 L 65.737946 -0.00155476 " stroke="#235e94" stroke-width="1" stroke-opacity="1" stroke-miterlimit="4"/><path stroke-linecap="round" transform="matrix(-0.4317, 0.61818, -0.6149, -0.4294, 658.588955, 343.909982)" fill="none" stroke-linejoin="miter" d="M 0.498211 -0.00182614 L 52.226305 -0.000173857 " stroke="#235e94" stroke-width="1" stroke-opacity="1" stroke-miterlimit="4"/><path stroke-linecap="round" transform="matrix(-0.45777, -0.59662, 0.59503, -0.45655, 657.042971, 404.089985)" fill="none" stroke-linejoin="miter" d="M 0.499918 -0.0027279 L 46.387376 0.000624653 " stroke="#235e94" stroke-width="1" stroke-opacity="1" stroke-miterlimit="4"/><path stroke-linecap="round" transform="matrix(-0.195, 0.72776, -0.72444, -0.19411, 635.482932, 375.981972)" fill="none" stroke-linejoin="miter" d="M 0.501872 -0.00227948 L 23.400885 0.00247282 " stroke="#235e94" stroke-width="1" stroke-opacity="1" stroke-miterlimit="4"/><path stroke-linecap="round" transform="matrix(-0.75587, -0.03236, 0.03208, -0.74931, 651.853955, 397.807001)" fill="none" stroke-linejoin="miter" d="M 0.499383 0.00237348 L 26.266363 -0.0000129373 " stroke="#235e94" stroke-width="1" stroke-opacity="1" stroke-miterlimit="4"/><path stroke-linecap="round" transform="matrix(-0.33637, -0.68156, 0.67255, -0.33193, 642.036948, 366.749971)" fill="none" stroke-linejoin="miter" d="M 0.499779 -0.00245296 L 25.16711 -0.00174713 " stroke="#235e94" stroke-width="1" stroke-opacity="1" stroke-miterlimit="4"/><path stroke-linecap="round" transform="matrix(0.23111, 0.72003, -0.71412, 0.22922, 622.275973, 334.25599)" fill="none" stroke-linejoin="miter" d="M 0.501124 0.00162883 L 58.018342 0.00139842 " stroke="#235e94" stroke-width="1" stroke-opacity="1" stroke-miterlimit="4"/><path stroke-linecap="round" transform="matrix(-0.74342, 0.14858, -0.14699, -0.73546, 658.704971, 344.262981)" fill="none" stroke-linejoin="miter" d="M 0.501245 0.00206499 L 34.130517 -0.00250796 " stroke="#235e94" stroke-width="1" stroke-opacity="1" stroke-miterlimit="4"/><path stroke-linecap="round" transform="matrix(-0.6461, 0.37303, -0.375, -0.64952, 699.049951, 320.689984)" fill="none" stroke-linejoin="miter" d="M 0.502007 -0.00255387 L 61.836835 -0.00128532 " stroke="#235e94" stroke-width="1" stroke-opacity="1" stroke-miterlimit="4"/><path stroke-linecap="round" transform="matrix(-0.72218, -0.21675, 0.2156, -0.71835, 657.856955, 344.43299)" fill="none" stroke-linejoin="miter" d="M 0.49986 0.000593782 L 49.234395 -0.000393814 " stroke="#235e94" stroke-width="1" stroke-opacity="1" stroke-miterlimit="4"/><path stroke-linecap="round" transform="matrix(0.1308, -0.73719, 0.73847, 0.13102, 658.306955, 344.389982)" fill="none" stroke-linejoin="miter" d="M 0.502146 -0.00208757 L 53.596632 -0.00133626 " stroke="#235e94" stroke-width="1" stroke-opacity="1" stroke-miterlimit="4"/><path stroke-linecap="round" transform="matrix(-0.28501, 0.69478, -0.69389, -0.28464, 678.179961, 239.990986)" fill="none" stroke-linejoin="miter" d="M 0.50297 0.00209435 L 157.301801 -0.000403337 " stroke="#235e94" stroke-width="1" stroke-opacity="1" stroke-miterlimit="4"/><path stroke-linecap="round" transform="matrix(0.7489, -0.0557, 0.05563, 0.74793, 677.459961, 240.00499)" fill="none" stroke-linejoin="miter" d="M 0.502084 -0.000617072 L 71.41852 0.000488247 " stroke="#235e94" stroke-width="1" stroke-opacity="1" stroke-miterlimit="4"/><path stroke-linecap="round" transform="matrix(-0.25486, 0.7059, -0.70543, -0.25469, 731.442965, 235.764987)" fill="none" stroke-linejoin="miter" d="M 0.498666 -0.000753262 L 119.423473 -0.00157741 " stroke="#235e94" stroke-width="1" stroke-opacity="1" stroke-miterlimit="4"/><path stroke-linecap="round" transform="matrix(-0.74985, -0.05549, 0.05535, -0.74796, 707.179951, 250.945968)" fill="none" stroke-linejoin="miter" d="M 0.500474 0.000304321 L 67.336592 -0.00197516 " stroke="#235e94" stroke-width="1" stroke-opacity="1" stroke-miterlimit="4"/><path stroke-linecap="round" transform="matrix(-0.50435, 0.56261, -0.55846, -0.50063, 707.182927, 251.247988)" fill="none" stroke-linejoin="miter" d="M 0.499019 0.00279187 L 54.097687 0.000579452 " stroke="#235e94" stroke-width="1" stroke-opacity="1" stroke-miterlimit="4"/><path stroke-linecap="round" transform="matrix(-0.68161, -0.30519, 0.30649, -0.68452, 680.033937, 281.363973)" fill="none" stroke-linejoin="miter" d="M 0.50235 -0.000403876 L 32.648299 0.00234164 " stroke="#235e94" stroke-width="1" stroke-opacity="1" stroke-miterlimit="4"/><path stroke-linecap="round" transform="matrix(-0.17932, -0.72935, 0.7283, -0.17907, 684.494961, 358.909981)" fill="none" stroke-linejoin="miter" d="M 0.497669 0.000729768 L 153.287872 0.000595837 " stroke="#235e94" stroke-width="1" stroke-opacity="1" stroke-miterlimit="4"/><path stroke-linecap="round" transform="matrix(0.15532, -0.73358, 0.73373, 0.15536, 684.496953, 358.116973)" fill="none" stroke-linejoin="miter" d="M 0.50013 -0.000564246 L 145.534951 0.000167627 " stroke="#235e94" stroke-width="1" stroke-opacity="1" stroke-miterlimit="4"/><path stroke-linecap="round" transform="matrix(-0.74855, -0.12487, 0.12341, -0.73978, 657.194963, 270.901971)" fill="none" stroke-linejoin="miter" d="M 0.500421 -0.000487189 L 31.127306 -0.000703881 " stroke="#235e94" stroke-width="1" stroke-opacity="1" stroke-miterlimit="4"/><path stroke-linecap="round" transform="matrix(0.56947, -0.4903, 0.48935, 0.56836, 633.899965, 266.90497)" fill="none" stroke-linejoin="miter" d="M 0.498593 -0.000622645 L 39.429776 0.00292843 " stroke="#235e94" stroke-width="1" stroke-opacity="1" stroke-miterlimit="4"/><path stroke-linecap="round" transform="matrix(-0.01678, -0.75707, 0.74982, -0.01662, 657.349955, 271.270995)" fill="none" stroke-linejoin="miter" d="M 0.502473 -0.00223982 L 30.206767 0.000886672 " stroke="#235e94" stroke-width="1" stroke-opacity="1" stroke-miterlimit="4"/><path stroke-linecap="round" transform="matrix(-0.592, 0.47106, -0.46699, -0.58688, 657.714971, 271.005975)" fill="none" stroke-linejoin="miter" d="M 0.501598 0.000119614 L 46.109889 -0.000108657 " stroke="#235e94" stroke-width="1" stroke-opacity="1" stroke-miterlimit="4"/><path stroke-linecap="round" transform="matrix(-0.21345, -0.71706, 0.71883, -0.21397, 665.605978, 298.667965)" fill="none" stroke-linejoin="miter" d="M 0.500793 0.00127444 L 37.60515 -0.00143801 " stroke="#235e94" stroke-width="1" stroke-opacity="1" stroke-miterlimit="4"/><path stroke-linecap="round" transform="matrix(-0.40624, -0.62563, 0.62903, -0.40844, 736.434965, 296.907956)" fill="none" stroke-linejoin="miter" d="M 0.502569 -0.000528413 L 71.903517 0.00266943 " stroke="#235e94" stroke-width="1" stroke-opacity="1" stroke-miterlimit="4"/><path stroke-linecap="round" transform="matrix(0.07562, -0.74686, 0.74618, 0.07555, 700.815967, 316.303951)" fill="none" stroke-linejoin="miter" d="M 0.501331 0.00213188 L 85.434939 0.0010532 " stroke="#235e94" stroke-width="1" stroke-opacity="1" stroke-miterlimit="4"/><path stroke-linecap="round" transform="matrix(-0.67958, -0.33219, 0.32937, -0.6738, 699.425983, 318.787974)" fill="none" stroke-linejoin="miter" d="M 0.50076 0.000791239 L 45.111933 0.00216903 " stroke="#235e94" stroke-width="1" stroke-opacity="1" stroke-miterlimit="4"/><path stroke-linecap="round" transform="matrix(-0.4004, -0.63124, 0.63333, -0.40173, 644.666916, 420.311967)" fill="none" stroke-linejoin="miter" d="M 0.501628 -0.00192661 L 32.611115 -0.0000803046 " stroke="#235e94" stroke-width="1" stroke-opacity="1" stroke-miterlimit="4"/><path stroke-linecap="round" transform="matrix(-0.09744, -0.7484, 0.74372, -0.09683, 629.908957, 394.823964)" fill="none" stroke-linejoin="miter" d="M 0.500864 -0.00104557 L 44.223908 0.00239757 " stroke="#235e94" stroke-width="1" stroke-opacity="1" stroke-miterlimit="4"/><path stroke-linecap="round" transform="matrix(-0.45955, 0.60855, -0.59851, -0.45198, 633.995941, 348.639993)" fill="none" stroke-linejoin="miter" d="M 0.50152 -0.000264219 L 17.211055 0.00110725 " stroke="#235e94" stroke-width="1" stroke-opacity="1" stroke-miterlimit="4"/><path stroke-linecap="round" transform="matrix(-0.44488, -0.59917, 0.60216, -0.4471, 633.465013, 349.138977)" fill="none" stroke-linejoin="miter" d="M 0.499821 -0.00077145 L 24.63255 0.00220591 " stroke="#235e94" stroke-width="1" stroke-opacity="1" stroke-miterlimit="4"/><path stroke-linecap="round" transform="matrix(-0.1161, 0.74364, -0.74102, -0.1157, 633.830005, 307.177975)" fill="none" stroke-linejoin="miter" d="M 0.50099 -0.00215641 L 70.259752 0.00131324 " stroke="#235e94" stroke-width="1" stroke-opacity="1" stroke-miterlimit="4"/><path stroke-linecap="round" transform="matrix(-0.606, 0.4463, -0.44475, -0.6039, 665.60497, 302.024976)" fill="none" stroke-linejoin="miter" d="M 0.502748 -0.00107145 L 71.259356 -0.000164318 " stroke="#235e94" stroke-width="1" stroke-opacity="1" stroke-miterlimit="4"/><path stroke-linecap="round" transform="matrix(-0.69652, -0.26748, 0.26887, -0.70015, 634.075933, 307.260943)" fill="none" stroke-linejoin="miter" d="M 0.500571 -0.00265026 L 29.663554 -0.00226818 " stroke="#235e94" stroke-width="1" stroke-opacity="1" stroke-miterlimit="4"/><path stroke-linecap="round" transform="matrix(-0.74486, -0.05042, 0.05065, -0.74829, 663.860986, 301.989968)" fill="none" stroke-linejoin="miter" d="M 0.50036 -0.000139258 L 67.826346 -0.000199365 " stroke="#235e94" stroke-width="1" stroke-opacity="1" stroke-miterlimit="4"/><path stroke-linecap="round" transform="matrix(-0.71374, 0.19125, -0.19411, -0.72444, 630.659917, 292.866978)" fill="none" stroke-linejoin="miter" d="M 0.49864 -0.0034521 L 24.879542 0.000262374 " stroke="#235e94" stroke-width="1" stroke-opacity="1" stroke-miterlimit="4"/><path stroke-linecap="round" transform="matrix(-0.722, -0.19346, 0.19411, -0.72444, 663.575938, 301.683961)" fill="none" stroke-linejoin="miter" d="M 0.50057 0.00163264 L 45.654675 0.0000609865 " stroke="#235e94" stroke-width="1" stroke-opacity="1" stroke-miterlimit="4"/><path stroke-linecap="round" transform="matrix(-0.1954, -0.72924, 0.72444, -0.19411, 634.079965, 307.109976)" fill="none" stroke-linejoin="miter" d="M 0.499672 -0.00256734 L 18.384458 0.000882957 " stroke="#235e94" stroke-width="1" stroke-opacity="1" stroke-miterlimit="4"/><path stroke-linecap="round" transform="matrix(-0.19367, 0.7228, -0.72444, -0.19411, 647.497931, 228.25198)" fill="none" stroke-linejoin="miter" d="M 0.499441 -0.00157237 L 88.709766 0.00152731 " stroke="#235e94" stroke-width="1" stroke-opacity="1" stroke-miterlimit="4"/><path stroke-linecap="round" transform="matrix(-0.70173, 0.26502, -0.26499, -0.70163, 734.259965, 217.779974)" fill="none" stroke-linejoin="miter" d="M 0.499426 -0.00246634 L 110.489302 -0.000932797 " stroke="#235e94" stroke-width="1" stroke-opacity="1" stroke-miterlimit="4"/><path stroke-linecap="round" transform="matrix(-0.17599, -0.7338, 0.72932, -0.17492, 707.464999, 251.937988)" fill="none" stroke-linejoin="miter" d="M 0.500412 0.00270791 L 40.249816 0.00189096 " stroke="#235e94" stroke-width="1" stroke-opacity="1" stroke-miterlimit="4"/><path stroke-linecap="round" transform="matrix(-0.73659, -0.15127, 0.15087, -0.73467, 697.326992, 219.599997)" fill="none" stroke-linejoin="miter" d="M 0.502417 0.000761161 L 29.425753 0.0004436 " stroke="#235e94" stroke-width="1" stroke-opacity="1" stroke-miterlimit="4"/><path stroke-linecap="round" transform="matrix(-0.44443, -0.60063, 0.6029, -0.44611, 657.348011, 247.80798)" fill="none" stroke-linejoin="miter" d="M 0.500475 -0.000969911 L 61.737415 0.000171502 " stroke="#235e94" stroke-width="1" stroke-opacity="1" stroke-miterlimit="4"/><path stroke-linecap="round" transform="matrix(-0.63895, -0.38406, 0.38638, -0.64281, 678.414921, 239.939996)" fill="none" stroke-linejoin="miter" d="M 0.500544 -0.00348981 L 74.954144 0.00119076 " stroke="#235e94" stroke-width="1" stroke-opacity="1" stroke-miterlimit="4"/><path stroke-linecap="round" transform="matrix(-0.63195, -0.40873, 0.40731, -0.62976, 764.397962, 63.087996)" fill="none" stroke-linejoin="miter" d="M 0.500542 0.000948007 L 89.193863 -0.00161935 " stroke="#235e94" stroke-width="1" stroke-opacity="1" stroke-miterlimit="4"/><path stroke-linecap="round" transform="matrix(0.0712, -0.75, 0.74664, 0.07089, 700.886959, 93.855996)" fill="none" stroke-linejoin="miter" d="M 0.500611 -0.00097478 L 90.099998 0.00349194 " stroke="#235e94" stroke-width="1" stroke-opacity="1" stroke-miterlimit="4"/><path stroke-linecap="round" transform="matrix(0.15333, -0.7335, 0.73413, 0.15346, 684.495969, 133.811987)" fill="none" stroke-linejoin="miter" d="M 0.500334 0.00208938 L 145.630991 0.0034815 " stroke="#235e94" stroke-width="1" stroke-opacity="1" stroke-miterlimit="4"/><path stroke-linecap="round" transform="matrix(-0.71127, -0.23338, 0.23382, -0.71262, 754.049955, 125.853989)" fill="none" stroke-linejoin="miter" d="M 0.498331 -0.000832429 L 139.768828 0.00051351 " stroke="#235e94" stroke-width="1" stroke-opacity="1" stroke-miterlimit="4"/><path stroke-linecap="round" transform="matrix(-0.74477, 0.08282, -0.0829, -0.7454, 753.684963, 125.951988)" fill="none" stroke-linejoin="miter" d="M 0.499925 0.00161537 L 91.588105 0.00289474 " stroke="#235e94" stroke-width="1" stroke-opacity="1" stroke-miterlimit="4"/><path stroke-linecap="round" transform="matrix(-0.73887, -0.19798, 0.19411, -0.72444, 768.255962, 129.863985)" fill="none" stroke-linejoin="miter" d="M 0.499545 -0.000745117 L 19.115056 0.0020176 " stroke="#235e94" stroke-width="1" stroke-opacity="1" stroke-miterlimit="4"/><path stroke-linecap="round" transform="matrix(-0.64165, 0.39009, -0.38961, -0.64086, 733.361957, 73.821988)" fill="none" stroke-linejoin="miter" d="M 0.496936 0.000331616 L 114.370508 -0.00112895 " stroke="#235e94" stroke-width="1" stroke-opacity="1" stroke-miterlimit="4"/><path stroke-linecap="round" transform="matrix(-0.62027, -0.42548, 0.42425, -0.61847, 717.46995, 104.94999)" fill="none" stroke-linejoin="miter" d="M 0.498851 -0.000876315 L 26.421762 0.00166132 " stroke="#235e94" stroke-width="1" stroke-opacity="1" stroke-miterlimit="4"/><path stroke-linecap="round" transform="matrix(0.13194, 0.73426, -0.73818, 0.13264, 701.019967, 93.933991)" fill="none" stroke-linejoin="miter" d="M 0.499552 -0.0000803973 L 84.959797 -0.00122917 " stroke="#235e94" stroke-width="1" stroke-opacity="1" stroke-miterlimit="4"/><path stroke-linecap="round" transform="matrix(-0.748495, 0.0474849, -0.0474849, -0.748495, 732.100445, 11.564929)" fill="none" stroke-linejoin="miter" d="M 0.499283 0.00360777 L 72.50336 -0.0000940198 " stroke="#235e94" stroke-width="1" stroke-opacity="1" stroke-miterlimit="4"/><path stroke-linecap="round" transform="matrix(-0.68416, -0.2964, 0.29815, -0.6882, 768.357914, 27.416999)" fill="none" stroke-linejoin="miter" d="M 0.499867 -0.00100719 L 52.812339 0.00247317 " stroke="#235e94" stroke-width="1" stroke-opacity="1" stroke-miterlimit="4"/><path stroke-linecap="round" transform="matrix(0.25608, -0.70268, 0.70466, 0.2568, 701.017975, 93.55199)" fill="none" stroke-linejoin="miter" d="M 0.501119 -0.00251273 L 115.842119 0.00109291 " stroke="#235e94" stroke-width="1" stroke-opacity="1" stroke-miterlimit="4"/><path stroke-linecap="round" transform="matrix(0.34651, -0.6603, 0.66411, 0.3485, 731.292965, 11.365999)" fill="none" stroke-linejoin="miter" d="M 0.499965 -0.0020542 L 18.621764 0.000755049 " stroke="#235e94" stroke-width="1" stroke-opacity="1" stroke-miterlimit="4"/><path stroke-linecap="round" transform="matrix(0.09989, -0.73167, 0.7431, 0.10145, 731.340005, 11.369999)" fill="none" stroke-linejoin="miter" d="M 0.50047 0.000845286 L 14.739011 0.000289478 " stroke="#235e94" stroke-width="1" stroke-opacity="1" stroke-miterlimit="4"/><path stroke-linecap="round" transform="matrix(-0.17177, -0.73577, 0.73036, -0.1705, 706.817959, 25.558)" fill="none" stroke-linejoin="miter" d="M 0.498819 -0.00247542 L 33.265318 0.00204548 " stroke="#235e94" stroke-width="1" stroke-opacity="1" stroke-miterlimit="4"/><path stroke-linecap="round" transform="matrix(-0.59942, 0.45404, -0.45285, -0.59785, 768.50597, 6.432)" fill="none" stroke-linejoin="miter" d="M 0.500095 -0.00182884 L 190.00276 0.00271922 " stroke="#235e94" stroke-width="1" stroke-opacity="1" stroke-miterlimit="4"/><path stroke-linecap="round" transform="matrix(-0.68104, -0.33346, 0.32981, -0.67359, 679.590969, 56.570998)" fill="none" stroke-linejoin="miter" d="M 0.499382 -0.0026367 L 29.179835 0.00125741 " stroke="#235e94" stroke-width="1" stroke-opacity="1" stroke-miterlimit="4"/><path stroke-linecap="round" transform="matrix(-0.5955, -0.45657, 0.45633, -0.5952, 768.23597, 124.479996)" fill="none" stroke-linejoin="miter" d="M 0.502149 0.00122618 L 148.425278 -0.0023165 " stroke="#235e94" stroke-width="1" stroke-opacity="1" stroke-miterlimit="4"/><path stroke-linecap="round" transform="matrix(-0.74216, 0.12671, -0.12622, -0.7393, 768.349946, 95.599994)" fill="none" stroke-linejoin="miter" d="M 0.498061 -0.00129721 L 68.242254 0.00118445 " stroke="#235e94" stroke-width="1" stroke-opacity="1" stroke-miterlimit="4"/><path stroke-linecap="round" transform="matrix(-0.3444, -0.66678, 0.66636, -0.34419, 742.527964, 153.579994)" fill="none" stroke-linejoin="miter" d="M 0.500784 -0.0000378542 L 73.461895 -0.00168932 " stroke="#235e94" stroke-width="1" stroke-opacity="1" stroke-miterlimit="4"/><path stroke-linecap="round" transform="matrix(0.28329, -0.7015, 0.69543, 0.28084, 742.824964, 152.409994)" fill="none" stroke-linejoin="miter" d="M 0.499923 -0.00250702 L 37.174238 -0.000840205 " stroke="#235e94" stroke-width="1" stroke-opacity="1" stroke-miterlimit="4"/><path stroke-linecap="round" transform="matrix(-0.14656, -0.73352, 0.73546, -0.14695, 706.924951, 191.200987)" fill="none" stroke-linejoin="miter" d="M 0.497786 -0.000588607 L 182.997204 0.000798293 " stroke="#235e94" stroke-width="1" stroke-opacity="1" stroke-miterlimit="4"/><path stroke-linecap="round" transform="matrix(-0.56926, 0.49191, -0.49038, -0.56748, 764.679914, 62.872994)" fill="none" stroke-linejoin="miter" d="M 0.499226 0.00243393 L 84.236364 0.00195819 " stroke="#235e94" stroke-width="1" stroke-opacity="1" stroke-miterlimit="4"/><path stroke-linecap="round" transform="matrix(-0.67588, -0.30983, 0.31254, -0.68178, 767.864954, 86.216998)" fill="none" stroke-linejoin="miter" d="M 0.499363 -0.000322195 L 42.886286 -0.000217416 " stroke="#235e94" stroke-width="1" stroke-opacity="1" stroke-miterlimit="4"/><path stroke-linecap="round" transform="matrix(-0.39155, 0.63953, -0.63964, -0.39162, 734.933981, 74.374989)" fill="none" stroke-linejoin="miter" d="M 0.500583 -0.000475039 L 178.544427 0.00231444 " stroke="#235e94" stroke-width="1" stroke-opacity="1" stroke-miterlimit="4"/><path stroke-linecap="round" transform="matrix(-0.53033, -0.53033, 0.53033, -0.53033, 706.550167, 191.470679)" fill="none" stroke-linejoin="miter" d="M 0.502107 0.00239837 L 83.506138 0.00239837 " stroke="#235e94" stroke-width="1" stroke-opacity="1" stroke-miterlimit="4"/><path stroke-linecap="round" transform="matrix(-0.6307, 0.40651, -0.40631, -0.6304, 763.083002, 179.073984)" fill="none" stroke-linejoin="miter" d="M 0.502347 0.00134766 L 96.454605 -0.00224092 " stroke="#235e94" stroke-width="1" stroke-opacity="1" stroke-miterlimit="4"/><path stroke-linecap="round" transform="matrix(-0.7026, 0.25204, -0.25324, -0.70595, 767.867954, 170.021984)" fill="none" stroke-linejoin="miter" d="M 0.501494 -0.000080275 L 84.913618 0.00246105 " stroke="#235e94" stroke-width="1" stroke-opacity="1" stroke-miterlimit="4"/><path stroke-linecap="round" transform="matrix(-0.46514, -0.58126, 0.58559, -0.4686, 762.77297, 179.018981)" fill="none" stroke-linejoin="miter" d="M 0.502999 0.0000972474 L 41.820167 -0.000731653 " stroke="#235e94" stroke-width="1" stroke-opacity="1" stroke-miterlimit="4"/><path stroke-linecap="round" transform="matrix(-0.257, -0.704, 0.70452, -0.2572, 734.390933, 216.679963)" fill="none" stroke-linejoin="miter" d="M 0.500124 -0.00096823 L 83.568507 0.000332478 " stroke="#235e94" stroke-width="1" stroke-opacity="1" stroke-miterlimit="4"/><path stroke-linecap="round" transform="matrix(-0.75137, -0.06205, 0.06173, -0.74745, 707.707927, 191.996983)" fill="none" stroke-linejoin="miter" d="M 0.5004 0.00145705 L 56.211161 0.00169564 " stroke="#235e94" stroke-width="1" stroke-opacity="1" stroke-miterlimit="4"/><path stroke-linecap="round" transform="matrix(0.10815, -0.74672, 0.74226, 0.1075, 707.169919, 192.003983)" fill="none" stroke-linejoin="miter" d="M 0.501998 -0.0020932 L 46.217779 -0.000542622 " stroke="#235e94" stroke-width="1" stroke-opacity="1" stroke-miterlimit="4"/><path stroke-linecap="round" transform="matrix(-0.57341, 0.48188, -0.48252, -0.57417, 767.866946, 141.00699)" fill="none" stroke-linejoin="miter" d="M 0.499949 -0.00364878 L 105.651365 0.000510781 " stroke="#235e94" stroke-width="1" stroke-opacity="1" stroke-miterlimit="4"/><path stroke-linecap="round" transform="matrix(-0.19886, 0.74214, -0.72444, -0.19411, 768.069962, 49.650001)" fill="none" stroke-linejoin="miter" d="M 0.498665 0.00282651 L 18.051592 -0.000339778 " stroke="#235e94" stroke-width="1" stroke-opacity="1" stroke-miterlimit="4"/><path stroke-linecap="round" transform="matrix(-0.30518, 0.6868, -0.68538, -0.30455, 764.629946, 62.721996)" fill="none" stroke-linejoin="miter" d="M 0.501657 0.000420281 L 189.119859 0.000431641 " stroke="#235e94" stroke-width="1" stroke-opacity="1" stroke-miterlimit="4"/><path stroke-linecap="round" transform="matrix(-0.1962, 0.73226, -0.72444, -0.19411, 707.463943, 189.95398)" fill="none" stroke-linejoin="miter" d="M 0.499798 -0.00180158 L 40.066823 0.00175433 " stroke="#235e94" stroke-width="1" stroke-opacity="1" stroke-miterlimit="4"/><path stroke-linecap="round" transform="matrix(-0.59799, 0.44938, -0.45057, -0.59957, 706.919959, 192.179985)" fill="none" stroke-linejoin="miter" d="M 0.501126 -0.00178286 L 52.64817 -0.00137923 " stroke="#235e94" stroke-width="1" stroke-opacity="1" stroke-miterlimit="4"/><path stroke-linecap="round" transform="matrix(-0.39564, 0.63563, -0.63673, -0.39633, 711.43995, 157.96799)" fill="none" stroke-linejoin="miter" d="M 0.499224 0.000392611 L 89.668552 -0.00212902 " stroke="#235e94" stroke-width="1" stroke-opacity="1" stroke-miterlimit="4"/><path stroke-linecap="round" transform="matrix(0.33606, -0.6604, 0.66843, 0.34015, 675.710001, 197.966001)" fill="none" stroke-linejoin="miter" d="M 0.499431 0.00159497 L 26.831698 -0.000746589 " stroke="#235e94" stroke-width="1" stroke-opacity="1" stroke-miterlimit="4"/><path stroke-linecap="round" transform="matrix(-0.65557, -0.34419, 0.34863, -0.66404, 685.662969, 179.52498)" fill="none" stroke-linejoin="miter" d="M 0.499929 0.00202907 L 28.890634 -0.00138086 " stroke="#235e94" stroke-width="1" stroke-opacity="1" stroke-miterlimit="4"/><path stroke-linecap="round" transform="matrix(-0.75547, -0.05588, 0.05533, -0.74796, 675.906945, 197.764993)" fill="none" stroke-linejoin="miter" d="M 0.502338 -0.00181625 L 43.072086 -0.00167072 " stroke="#235e94" stroke-width="1" stroke-opacity="1" stroke-miterlimit="4"/><path stroke-linecap="round" transform="matrix(-0.6376, -0.39842, 0.39744, -0.63603, 676.136961, 215.573993)" fill="none" stroke-linejoin="miter" d="M 0.501826 -0.00148561 L 50.380051 0.00247407 " stroke="#235e94" stroke-width="1" stroke-opacity="1" stroke-miterlimit="4"/><path stroke-linecap="round" transform="matrix(0.38501, -0.63938, 0.6425, 0.3869, 656.838947, 246.599981)" fill="none" stroke-linejoin="miter" d="M 0.49876 0.000429262 L 47.741628 -0.00187135 " stroke="#235e94" stroke-width="1" stroke-opacity="1" stroke-miterlimit="4"/><path stroke-linecap="round" transform="matrix(0.12601, -0.73839, 0.73931, 0.12617, 731.247965, 236.363991)" fill="none" stroke-linejoin="miter" d="M 0.498636 0.00230203 L 24.542164 -0.000918781 " stroke="#235e94" stroke-width="1" stroke-opacity="1" stroke-miterlimit="4"/><path stroke-linecap="round" transform="matrix(0.3605, -0.6535, 0.6567, 0.36227, 731.139965, 236.279982)" fill="none" stroke-linejoin="miter" d="M 0.500188 0.0000452374 L 85.917638 0.0000163921 " stroke="#235e94" stroke-width="1" stroke-opacity="1" stroke-miterlimit="4"/><path stroke-linecap="round" transform="matrix(-0.3307, 0.66694, -0.67194, -0.33317, 665.330938, 188.429985)" fill="none" stroke-linejoin="miter" d="M 0.49882 0.00285096 L 47.862044 -0.0014067 " stroke="#235e94" stroke-width="1" stroke-opacity="1" stroke-miterlimit="4"/><path stroke-linecap="round" transform="matrix(-0.49294, 0.55981, -0.56288, -0.49564, 666.743986, 168.951988)" fill="none" stroke-linejoin="miter" d="M 0.499827 0.00267789 L 73.916462 -0.00175191 " stroke="#235e94" stroke-width="1" stroke-opacity="1" stroke-miterlimit="4"/><path stroke-linecap="round" transform="matrix(-0.38856, -0.63163, 0.6388, -0.39298, 644.208012, 195.193989)" fill="none" stroke-linejoin="miter" d="M 0.500581 -0.00279776 L 32.886481 0.0000712119 " stroke="#235e94" stroke-width="1" stroke-opacity="1" stroke-miterlimit="4"/><path stroke-linecap="round" transform="matrix(-0.467275, -0.586646, 0.586646, -0.467275, 665.329834, 188.557164)" fill="none" stroke-linejoin="miter" d="M 0.496926 0.0000399898 L 62.501313 0.000800769 " stroke="#235e94" stroke-width="1" stroke-opacity="1" stroke-miterlimit="4"/><path stroke-linecap="round" transform="matrix(-0.21382, 0.73175, -0.7199, -0.21035, 635.76798, 150.913992)" fill="none" stroke-linejoin="miter" d="M 0.502077 0.000652825 L 26.072696 0.00237588 " stroke="#235e94" stroke-width="1" stroke-opacity="1" stroke-miterlimit="4"/><path stroke-linecap="round" transform="matrix(-0.34024, 0.67603, -0.66994, -0.33717, 683.827977, 134.794002)" fill="none" stroke-linejoin="miter" d="M 0.499573 -0.00321548 L 51.043319 0.0000921085 " stroke="#235e94" stroke-width="1" stroke-opacity="1" stroke-miterlimit="4"/><path stroke-linecap="round" transform="matrix(-0.5793, -0.46898, 0.47191, -0.58293, 711.444966, 155.959997)" fill="none" stroke-linejoin="miter" d="M 0.498135 -0.000311017 L 44.785808 -0.00116783 " stroke="#235e94" stroke-width="1" stroke-opacity="1" stroke-miterlimit="4"/><path stroke-linecap="round" transform="matrix(-0.72866, -0.19524, 0.19411, -0.72444, 662.674954, 147.114994)" fill="none" stroke-linejoin="miter" d="M 0.496858 -0.00213088 L 26.346932 -0.00225875 " stroke="#235e94" stroke-width="1" stroke-opacity="1" stroke-miterlimit="4"/><path stroke-linecap="round" transform="matrix(-0.73338, 0.14022, -0.14085, -0.73665, 684.050985, 134.119984)" fill="none" stroke-linejoin="miter" d="M 0.501252 -0.00154312 L 55.761641 0.00187375 " stroke="#235e94" stroke-width="1" stroke-opacity="1" stroke-miterlimit="4"/><path stroke-linecap="round" transform="matrix(-0.64478, 0.37226, -0.375, -0.64952, 684.166017, 134.005991)" fill="none" stroke-linejoin="miter" d="M 0.499376 0.000743245 L 16.631318 0.00285208 " stroke="#235e94" stroke-width="1" stroke-opacity="1" stroke-miterlimit="4"/><path stroke-linecap="round" transform="matrix(-0.41736, 0.62695, -0.62432, -0.4156, 673.436961, 140.137988)" fill="none" stroke-linejoin="miter" d="M 0.503101 0.000680088 L 51.288082 0.000190854 " stroke="#235e94" stroke-width="1" stroke-opacity="1" stroke-miterlimit="4"/><path stroke-linecap="round" transform="matrix(0.17872, -0.72898, 0.72843, 0.17858, 666.16801, 170.144987)" fill="none" stroke-linejoin="miter" d="M 0.499166 0.000812135 L 40.47378 0.00118052 " stroke="#235e94" stroke-width="1" stroke-opacity="1" stroke-miterlimit="4"/><path stroke-linecap="round" transform="matrix(-0.55661, -0.50377, 0.50328, -0.55607, 734.021957, 216.53197)" fill="none" stroke-linejoin="miter" d="M 0.500404 -0.0024622 L 47.461527 0.00212874 " stroke="#235e94" stroke-width="1" stroke-opacity="1" stroke-miterlimit="4"/><path stroke-linecap="round" transform="matrix(-0.55692, -0.48206, 0.49085, -0.56707, 675.587961, 197.492987)" fill="none" stroke-linejoin="miter" d="M 0.502671 0.00118098 L 17.834833 0.00175789 " stroke="#235e94" stroke-width="1" stroke-opacity="1" stroke-miterlimit="4"/><path stroke-linecap="round" transform="matrix(-0.64196, -0.39785, 0.39509, -0.6375, 766.261946, 168.626984)" fill="none" stroke-linejoin="miter" d="M 0.498369 -0.00153605 L 35.26241 0.000278898 " stroke="#235e94" stroke-width="1" stroke-opacity="1" stroke-miterlimit="4"/><path stroke-linecap="round" transform="matrix(-0.2302, -0.7101, 0.71345, -0.23128, 766.26593, 164.438982)" fill="none" stroke-linejoin="miter" d="M 0.49682 0.00109524 L 52.761639 0.00125082 " stroke="#235e94" stroke-width="1" stroke-opacity="1" stroke-miterlimit="4"/><path stroke-linecap="round" transform="matrix(-0.3912, -0.63622, 0.6389, -0.39283, 734.773949, 69.777995)" fill="none" stroke-linejoin="miter" d="M 0.498957 -0.000988833 L 66.794946 0.00119475 " stroke="#235e94" stroke-width="1" stroke-opacity="1" stroke-miterlimit="4"/><g clip-path="url(#id2)"><path fill="#ffde59" d="M 572.765625 102.730469 C 571.109375 102.730469 569.765625 104.074219 569.765625 105.730469 C 569.765625 107.386719 571.109375 108.730469 572.765625 108.730469 C 574.421875 108.730469 575.765625 107.386719 575.765625 105.730469 C 575.765625 104.074219 574.421875 102.730469 572.765625 102.730469 " fill-opacity="1" fill-rule="nonzero"/></g><g clip-path="url(#id3)"><path fill="#ffde59" d="M 548.710938 26.753906 C 547.050781 26.753906 545.710938 28.097656 545.710938 29.753906 C 545.710938 31.410156 547.050781 32.753906 548.710938 32.753906 C 550.367188 32.753906 551.710938 31.410156 551.710938 29.753906 C 551.710938 28.097656 550.367188 26.753906 548.710938 26.753906 " fill-opacity="1" fill-rule="nonzero"/></g><path stroke-linecap="round" transform="matrix(0.03343, 0.74494, -0.74925, 0.03362, 656.341955, 23.979997)" fill="none" stroke-linejoin="miter" d="M 0.49883 -0.000993429 L 26.659733 -0.0015822 " stroke="#235e94" stroke-width="1" stroke-opacity="1" stroke-miterlimit="4"/><g clip-path="url(#id4)"><path fill="#ffde59" d="M 656.660156 19.367188 C 655.003906 19.367188 653.660156 20.710938 653.660156 22.367188 C 653.660156 24.023438 655.003906 25.367188 656.660156 25.367188 C 658.316406 25.367188 659.660156 24.023438 659.660156 22.367188 C 659.660156 20.710938 658.316406 19.367188 656.660156 19.367188 " fill-opacity="1" fill-rule="nonzero"/></g><g clip-path="url(#id5)"><path fill="#ffde59" d="M 657.117188 43.304688 C 655.460938 43.304688 654.117188 44.648438 654.117188 46.304688 C 654.117188 47.960938 655.460938 49.304688 657.117188 49.304688 C 658.773438 49.304688 660.117188 47.960938 660.117188 46.304688 C 660.117188 44.648438 658.773438 43.304688 657.117188 43.304688 " fill-opacity="1" fill-rule="nonzero"/></g><g clip-path="url(#id6)"><path fill="#ffde59" d="M 736.082031 67.558594 C 734.011719 67.558594 732.332031 69.238281 732.332031 71.308594 C 732.332031 73.378906 734.011719 75.058594 736.082031 75.058594 C 738.152344 75.058594 739.832031 73.378906 739.832031 71.308594 C 739.832031 69.238281 738.152344 67.558594 736.082031 67.558594 " fill-opacity="1" fill-rule="nonzero"/></g><g clip-path="url(#id7)"><path fill="#ffde59" d="M 707.285156 23.371094 C 706.042969 23.371094 705.035156 24.378906 705.035156 25.621094 C 705.035156 26.863281 706.042969 27.871094 707.285156 27.871094 C 708.527344 27.871094 709.535156 26.863281 709.535156 25.621094 C 709.535156 24.378906 708.527344 23.371094 707.285156 23.371094 " fill-opacity="1" fill-rule="nonzero"/></g><g clip-path="url(#id8)"><path fill="#ffde59" d="M 611.8125 17.867188 C 610.777344 17.867188 609.9375 18.707031 609.9375 19.742188 C 609.9375 20.777344 610.777344 21.617188 611.8125 21.617188 C 612.847656 21.617188 613.6875 20.777344 613.6875 19.742188 C 613.6875 18.707031 612.847656 17.867188 611.8125 17.867188 " fill-opacity="1" fill-rule="nonzero"/></g><g clip-path="url(#id9)"><path fill="#ffde59" d="M 630.878906 168.949219 C 629.222656 168.949219 627.878906 170.292969 627.878906 171.949219 C 627.878906 173.605469 629.222656 174.949219 630.878906 174.949219 C 632.535156 174.949219 633.878906 173.605469 633.878906 171.949219 C 633.878906 170.292969 632.535156 168.949219 630.878906 168.949219 " fill-opacity="1" fill-rule="nonzero"/></g><path stroke-linecap="round" transform="matrix(0.75095, 0.00605, -0.00604, 0.74998, 634.160989, 172.114995)" fill="none" stroke-linejoin="miter" d="M 0.49825 -0.00109644 L 23.479577 0.00102094 " stroke="#235e94" stroke-width="1" stroke-opacity="1" stroke-miterlimit="4"/><g clip-path="url(#id10)"><path fill="#ffde59" d="M 647.875 220.753906 C 645.597656 220.753906 643.75 222.601562 643.75 224.878906 C 643.75 227.15625 645.597656 229.003906 647.875 229.003906 C 650.152344 229.003906 652 227.15625 652 224.878906 C 652 222.601562 650.152344 220.753906 647.875 220.753906 " fill-opacity="1" fill-rule="nonzero"/></g><g clip-path="url(#id11)"><path fill="#ffde59" d="M 609.992188 295.332031 C 608.335938 295.332031 606.992188 296.671875 606.992188 298.332031 C 606.992188 299.988281 608.335938 301.332031 609.992188 301.332031 C 611.648438 301.332031 612.992188 299.988281 612.992188 298.332031 C 612.992188 296.671875 611.648438 295.332031 609.992188 295.332031 " fill-opacity="1" fill-rule="nonzero"/></g><g clip-path="url(#id12)"><path fill="#ffde59" d="M 666.273438 298.023438 C 663.996094 298.023438 662.148438 299.867188 662.148438 302.148438 C 662.148438 304.425781 663.996094 306.273438 666.273438 306.273438 C 668.550781 306.273438 670.398438 304.425781 670.398438 302.148438 C 670.398438 299.867188 668.550781 298.023438 666.273438 298.023438 " fill-opacity="1" fill-rule="nonzero"/></g><g clip-path="url(#id13)"><path fill="#ffde59" d="M 573.277344 328.160156 C 571.828125 328.160156 570.652344 329.335938 570.652344 330.785156 C 570.652344 332.234375 571.828125 333.410156 573.277344 333.410156 C 574.726562 333.410156 575.902344 332.234375 575.902344 330.785156 C 575.902344 329.335938 574.726562 328.160156 573.277344 328.160156 " fill-opacity="1" fill-rule="nonzero"/></g><g clip-path="url(#id14)"><path fill="#ffde59" d="M 625.128906 358.121094 C 623.886719 358.121094 622.878906 359.128906 622.878906 360.371094 C 622.878906 361.617188 623.886719 362.621094 625.128906 362.621094 C 626.371094 362.621094 627.378906 361.617188 627.378906 360.371094 C 627.378906 359.128906 626.371094 358.121094 625.128906 358.121094 " fill-opacity="1" fill-rule="nonzero"/></g><g clip-path="url(#id15)"><path fill="#ffde59" d="M 589.375 384.320312 C 587.925781 384.320312 586.75 385.496094 586.75 386.945312 C 586.75 388.394531 587.925781 389.570312 589.375 389.570312 C 590.824219 389.570312 592 388.394531 592 386.945312 C 592 385.496094 590.824219 384.320312 589.375 384.320312 " fill-opacity="1" fill-rule="nonzero"/></g><g clip-path="url(#id16)"><path fill="#ffde59" d="M 566.078125 389.019531 C 564.835938 389.019531 563.828125 390.027344 563.828125 391.269531 C 563.828125 392.511719 564.835938 393.519531 566.078125 393.519531 C 567.324219 393.519531 568.328125 392.511719 568.328125 391.269531 C 568.328125 390.027344 567.324219 389.019531 566.078125 389.019531 " fill-opacity="1" fill-rule="nonzero"/></g><g clip-path="url(#id17)"><path fill="#ffde59" d="M 542.902344 392.976562 C 541.867188 392.976562 541.027344 393.816406 541.027344 394.851562 C 541.027344 395.886719 541.867188 396.726562 542.902344 396.726562 C 543.9375 396.726562 544.777344 395.886719 544.777344 394.851562 C 544.777344 393.816406 543.9375 392.976562 542.902344 392.976562 " fill-opacity="1" fill-rule="nonzero"/></g><g clip-path="url(#id18)"><path fill="#ffde59" d="M 585.539062 411.164062 C 584.292969 411.164062 583.289062 412.171875 583.289062 413.414062 C 583.289062 414.65625 584.292969 415.664062 585.539062 415.664062 C 586.78125 415.664062 587.789062 414.65625 587.789062 413.414062 C 587.789062 412.171875 586.78125 411.164062 585.539062 411.164062 " fill-opacity="1" fill-rule="nonzero"/></g><path stroke-linecap="round" transform="matrix(0.1235, -0.74898, 0.74, 0.12203, 585.587968, 411.16396)" fill="none" stroke-linejoin="miter" d="M 0.500255 -0.00177339 L 29.14373 0.000380089 " stroke="#235e94" stroke-width="1" stroke-opacity="1" stroke-miterlimit="4"/><g clip-path="url(#id19)"><path fill="#ffde59" d="M 548.132812 433.644531 C 546.886719 433.644531 545.882812 434.652344 545.882812 435.894531 C 545.882812 437.136719 546.886719 438.144531 548.132812 438.144531 C 549.375 438.144531 550.382812 437.136719 550.382812 435.894531 C 550.382812 434.652344 549.375 433.644531 548.132812 433.644531 " fill-opacity="1" fill-rule="nonzero"/></g><g clip-path="url(#id20)"><path fill="#ffde59" d="M 629.460938 432.660156 C 627.597656 432.660156 626.085938 434.171875 626.085938 436.035156 C 626.085938 437.898438 627.597656 439.410156 629.460938 439.410156 C 631.324219 439.410156 632.835938 437.898438 632.835938 436.035156 C 632.835938 434.171875 631.324219 432.660156 629.460938 432.660156 " fill-opacity="1" fill-rule="nonzero"/></g><g clip-path="url(#id21)"><path fill="#ffde59" d="M 707.125 414.652344 C 705.671875 414.652344 704.5 415.828125 704.5 417.277344 C 704.5 418.726562 705.671875 419.902344 707.125 419.902344 C 708.574219 419.902344 709.75 418.726562 709.75 417.277344 C 709.75 415.828125 708.574219 414.652344 707.125 414.652344 " fill-opacity="1" fill-rule="nonzero"/></g><g clip-path="url(#id22)"><path fill="#ffde59" d="M 664.671875 410.386719 C 663.015625 410.386719 661.671875 411.730469 661.671875 413.386719 C 661.671875 415.042969 663.015625 416.386719 664.671875 416.386719 C 666.328125 416.386719 667.671875 415.042969 667.671875 413.386719 C 667.671875 411.730469 666.328125 410.386719 664.671875 410.386719 " fill-opacity="1" fill-rule="nonzero"/></g><g clip-path="url(#id23)"><path fill="#ffde59" d="M 734 440.582031 C 732.964844 440.582031 732.125 441.421875 732.125 442.457031 C 732.125 443.492188 732.964844 444.332031 734 444.332031 C 735.035156 444.332031 735.875 443.492188 735.875 442.457031 C 735.875 441.421875 735.035156 440.582031 734 440.582031 " fill-opacity="1" fill-rule="nonzero"/></g><g clip-path="url(#id24)"><path fill="#ffde59" d="M 762.363281 401.75 C 761.121094 401.75 760.113281 402.757812 760.113281 404 C 760.113281 405.242188 761.121094 406.25 762.363281 406.25 C 763.605469 406.25 764.613281 405.242188 764.613281 404 C 764.613281 402.757812 763.605469 401.75 762.363281 401.75 " fill-opacity="1" fill-rule="nonzero"/></g><g clip-path="url(#id25)"><path fill="#ffde59" d="M 742.472656 377.328125 C 741.4375 377.328125 740.597656 378.164062 740.597656 379.203125 C 740.597656 380.238281 741.4375 381.078125 742.472656 381.078125 C 743.507812 381.078125 744.347656 380.238281 744.347656 379.203125 C 744.347656 378.164062 743.507812 377.328125 742.472656 377.328125 " fill-opacity="1" fill-rule="nonzero"/></g><g clip-path="url(#id26)"><path fill="#ffde59" d="M 767.378906 393.089844 C 766.34375 393.089844 765.503906 393.929688 765.503906 394.964844 C 765.503906 396 766.34375 396.839844 767.378906 396.839844 C 768.414062 396.839844 769.253906 396 769.253906 394.964844 C 769.253906 393.929688 768.414062 393.089844 767.378906 393.089844 " fill-opacity="1" fill-rule="nonzero"/></g><g clip-path="url(#id27)"><path fill="#ffde59" d="M 753.441406 347.90625 C 751.992188 347.90625 750.816406 349.082031 750.816406 350.53125 C 750.816406 351.984375 751.992188 353.15625 753.441406 353.15625 C 754.890625 353.15625 756.066406 351.984375 756.066406 350.53125 C 756.066406 349.082031 754.890625 347.90625 753.441406 347.90625 " fill-opacity="1" fill-rule="nonzero"/></g><g clip-path="url(#id28)"><path fill="#ffde59" d="M 717.039062 326.839844 C 715.589844 326.839844 714.414062 328.015625 714.414062 329.464844 C 714.414062 330.914062 715.589844 332.089844 717.039062 332.089844 C 718.488281 332.089844 719.664062 330.914062 719.664062 329.464844 C 719.664062 328.015625 718.488281 326.839844 717.039062 326.839844 " fill-opacity="1" fill-rule="nonzero"/></g><g clip-path="url(#id29)"><path fill="#ffde59" d="M 684.136719 356.980469 C 683.101562 356.980469 682.261719 357.820312 682.261719 358.855469 C 682.261719 359.890625 683.101562 360.730469 684.136719 360.730469 C 685.171875 360.730469 686.011719 359.890625 686.011719 358.855469 C 686.011719 357.820312 685.171875 356.980469 684.136719 356.980469 " fill-opacity="1" fill-rule="nonzero"/></g><g clip-path="url(#id30)"><path fill="#ffde59" d="M 700.292969 316.457031 C 698.636719 316.457031 697.292969 317.800781 697.292969 319.457031 C 697.292969 321.113281 698.636719 322.457031 700.292969 322.457031 C 701.949219 322.457031 703.292969 321.113281 703.292969 319.457031 C 703.292969 317.800781 701.949219 316.457031 700.292969 316.457031 " fill-opacity="1" fill-rule="nonzero"/></g><g clip-path="url(#id31)"><path fill="#ffde59" d="M 735.832031 293.289062 C 733.96875 293.289062 732.457031 294.800781 732.457031 296.664062 C 732.457031 298.53125 733.96875 300.039062 735.832031 300.039062 C 737.695312 300.039062 739.207031 298.53125 739.207031 296.664062 C 739.207031 294.800781 737.695312 293.289062 735.832031 293.289062 " fill-opacity="1" fill-rule="nonzero"/></g><g clip-path="url(#id32)"><path fill="#ffde59" d="M 699.769531 217.175781 C 698.113281 217.175781 696.769531 218.519531 696.769531 220.175781 C 696.769531 221.832031 698.113281 223.175781 699.769531 223.175781 C 701.425781 223.175781 702.769531 221.832031 702.769531 220.175781 C 702.769531 218.519531 701.425781 217.175781 699.769531 217.175781 " fill-opacity="1" fill-rule="nonzero"/></g><g clip-path="url(#id33)"><path fill="#ffde59" d="M 712.816406 153.949219 C 711.367188 153.949219 710.191406 155.121094 710.191406 156.574219 C 710.191406 158.023438 711.367188 159.199219 712.816406 159.199219 C 714.265625 159.199219 715.441406 158.023438 715.441406 156.574219 C 715.441406 155.121094 714.265625 153.949219 712.816406 153.949219 " fill-opacity="1" fill-rule="nonzero"/></g><g clip-path="url(#id34)"><path fill="#ffde59" d="M 767.726562 167.84375 C 766.484375 167.84375 765.476562 168.851562 765.476562 170.09375 C 765.476562 171.335938 766.484375 172.34375 767.726562 172.34375 C 768.972656 172.34375 769.976562 171.335938 769.976562 170.09375 C 769.976562 168.851562 768.972656 167.84375 767.726562 167.84375 " fill-opacity="1" fill-rule="nonzero"/></g><g clip-path="url(#id35)"><path fill="#ffde59" d="M 742.128906 150.910156 C 740.679688 150.910156 739.503906 152.085938 739.503906 153.535156 C 739.503906 154.984375 740.679688 156.160156 742.128906 156.160156 C 743.578125 156.160156 744.753906 154.984375 744.753906 153.535156 C 744.753906 152.085938 743.578125 150.910156 742.128906 150.910156 " fill-opacity="1" fill-rule="nonzero"/></g><g clip-path="url(#id36)"><path fill="#ffde59" d="M 684.453125 176.300781 C 683.003906 176.300781 681.828125 177.476562 681.828125 178.925781 C 681.828125 180.375 683.003906 181.550781 684.453125 181.550781 C 685.902344 181.550781 687.078125 180.375 687.078125 178.925781 C 687.078125 177.476562 685.902344 176.300781 684.453125 176.300781 " fill-opacity="1" fill-rule="nonzero"/></g><g clip-path="url(#id37)"><path fill="#ffde59" d="M 684.527344 131.214844 C 683.285156 131.214844 682.277344 132.222656 682.277344 133.464844 C 682.277344 134.707031 683.285156 135.714844 684.527344 135.714844 C 685.769531 135.714844 686.777344 134.707031 686.777344 133.464844 C 686.777344 132.222656 685.769531 131.214844 684.527344 131.214844 " fill-opacity="1" fill-rule="nonzero"/></g><g clip-path="url(#id38)"><path fill="#ffde59" d="M 658.71875 116.945312 C 657.0625 116.945312 655.71875 118.289062 655.71875 119.945312 C 655.71875 121.601562 657.0625 122.945312 658.71875 122.945312 C 660.378906 122.945312 661.71875 121.601562 661.71875 119.945312 C 661.71875 118.289062 660.378906 116.945312 658.71875 116.945312 " fill-opacity="1" fill-rule="nonzero"/></g><path stroke-linecap="round" transform="matrix(-0.06382, -0.74399, 0.74726, -0.0641, 678.147969, 239.467995)" fill="none" stroke-linejoin="miter" d="M 0.497661 0.00131029 L 31.653565 0.00142843 " stroke="#235e94" stroke-width="1" stroke-opacity="1" stroke-miterlimit="4"/><g clip-path="url(#id39)"><path fill="#ffde59" d="M 733.695312 214.582031 C 732.453125 214.582031 731.445312 215.589844 731.445312 216.832031 C 731.445312 218.078125 732.453125 219.082031 733.695312 219.082031 C 734.9375 219.082031 735.945312 218.078125 735.945312 216.832031 C 735.945312 215.589844 734.9375 214.582031 733.695312 214.582031 " fill-opacity="1" fill-rule="nonzero"/></g><g clip-path="url(#id40)"><path fill="#ffde59" d="M 630.667969 392.867188 C 628.597656 392.867188 626.917969 394.546875 626.917969 396.617188 C 626.917969 398.6875 628.597656 400.367188 630.667969 400.367188 C 632.742188 400.367188 634.417969 398.6875 634.417969 396.617188 C 634.417969 394.546875 632.742188 392.867188 630.667969 392.867188 " fill-opacity="1" fill-rule="nonzero"/></g><path stroke-linecap="round" transform="matrix(-0.40321, -0.6165, 0.62767, -0.41052, 648.463955, 364.13798)" fill="none" stroke-linejoin="miter" d="M 0.502292 0.000466241 L 24.961197 -0.00145639 " stroke="#235e94" stroke-width="1" stroke-opacity="1" stroke-miterlimit="4"/></svg>