<svg xmlns="http://www.w3.org/2000/svg" xmlns:xlink="http://www.w3.org/1999/xlink" width="40" zoomAndPan="magnify" viewBox="0 0 30 30.000001" height="40" preserveAspectRatio="xMidYMid meet" version="1.0"><defs><clipPath id="id1"><path d="M 3.386719 0 L 25 0 L 25 29 L 3.386719 29 Z M 3.386719 0 " clip-rule="nonzero"/></clipPath></defs><g clip-path="url(#id1)"><path fill="#004aad" d="M 14.175781 28.625 C 11.253906 28.625 4.027344 28.164062 3.386719 19.769531 C 3.386719 19.769531 5.257812 23.117188 5.261719 22.722656 C 5.269531 21.445312 3.386719 16.773438 8.09375 13.589844 C 13.859375 9.695312 12.121094 4.917969 10.746094 4.828125 C 10.746094 4.828125 14.433594 4.449219 14.769531 9.382812 C 14.953125 12.066406 17.195312 4.320312 15.867188 0.03125 C 15.867188 0.03125 22.601562 3.628906 21.765625 12.484375 C 21.765625 12.484375 22.808594 10.476562 24.554688 11.550781 C 24.554688 11.550781 23.457031 11.929688 23.824219 14.882812 C 24.191406 17.832031 25.789062 28.625 14.175781 28.625 " fill-opacity="1" fill-rule="nonzero"/></g><path fill="#38b6ff" d="M 13.308594 28.320312 C 11.417969 28.234375 7.820312 27.8125 7.820312 23.0625 C 7.820312 18.3125 12.53125 17.664062 12.53125 13.285156 C 12.53125 13.285156 14.769531 14.066406 14.542969 16.234375 C 14.542969 16.234375 18.933594 13.46875 18.566406 10.195312 C 18.566406 10.195312 28.0625 29 13.308594 28.320312 " fill-opacity="1" fill-rule="nonzero"/><path fill="#38b6ff" d="M 13.308594 28.320312 C 11.417969 28.234375 7.820312 27.8125 7.820312 23.0625 C 7.820312 18.3125 12.53125 17.664062 12.53125 13.285156 C 12.53125 13.285156 14.769531 14.066406 14.542969 16.234375 C 14.542969 16.234375 18.933594 13.46875 18.566406 10.195312 C 18.566406 10.195312 28.0625 29 13.308594 28.320312 " fill-opacity="1" fill-rule="nonzero"/><path fill="#5ce1e6" d="M 14.222656 20.136719 C 14.222656 20.136719 15.367188 23.519531 13.492188 23.519531 C 12.1875 23.519531 12.347656 22.089844 12.347656 22.089844 C 12.347656 22.089844 8.710938 28.039062 14.222656 28.039062 C 15.339844 28.039062 17.285156 27.808594 17.285156 24.761719 C 17.285156 21.71875 15.59375 20.492188 14.222656 20.136719 " fill-opacity="1" fill-rule="nonzero"/></svg>