<svg xmlns="http://www.w3.org/2000/svg" xmlns:xlink="http://www.w3.org/1999/xlink" width="40" zoomAndPan="magnify" viewBox="0 0 30 30.000001" height="40" preserveAspectRatio="xMidYMid meet" version="1.0"><defs><clipPath id="id1"><path d="M 0.484375 0 L 29.515625 0 L 29.515625 29.03125 L 0.484375 29.03125 Z M 0.484375 0 " clip-rule="nonzero"/></clipPath><clipPath id="id2"><path d="M 4 18 L 8.46875 18 L 8.46875 25.367188 L 4 25.367188 Z M 4 18 " clip-rule="nonzero"/></clipPath><clipPath id="id3"><path d="M 0.484375 16.65625 L 8.46875 16.65625 L 8.46875 21 L 0.484375 21 Z M 0.484375 16.65625 " clip-rule="nonzero"/></clipPath><clipPath id="id4"><path d="M 0.484375 18 L 5 18 L 5 25.367188 L 0.484375 25.367188 Z M 0.484375 18 " clip-rule="nonzero"/></clipPath><clipPath id="id5"><path d="M 14 11 L 19.140625 11 L 19.140625 19 L 14 19 Z M 14 11 " clip-rule="nonzero"/></clipPath><clipPath id="id6"><path d="M 11.15625 10.289062 L 19.140625 10.289062 L 19.140625 15 L 11.15625 15 Z M 11.15625 10.289062 " clip-rule="nonzero"/></clipPath><clipPath id="id7"><path d="M 11.15625 11 L 16 11 L 16 19 L 11.15625 19 Z M 11.15625 11 " clip-rule="nonzero"/></clipPath><clipPath id="id8"><path d="M 14 1 L 19.140625 1 L 19.140625 8.710938 L 14 8.710938 Z M 14 1 " clip-rule="nonzero"/></clipPath><clipPath id="id9"><path d="M 11.15625 0 L 19.140625 0 L 19.140625 5 L 11.15625 5 Z M 11.15625 0 " clip-rule="nonzero"/></clipPath><clipPath id="id10"><path d="M 11.15625 1 L 16 1 L 16 8.710938 L 11.15625 8.710938 Z M 11.15625 1 " clip-rule="nonzero"/></clipPath><clipPath id="id11"><path d="M 25 18 L 29.515625 18 L 29.515625 25.367188 L 25 25.367188 Z M 25 18 " clip-rule="nonzero"/></clipPath><clipPath id="id12"><path d="M 21.746094 16.65625 L 29.515625 16.65625 L 29.515625 21 L 21.746094 21 Z M 21.746094 16.65625 " clip-rule="nonzero"/></clipPath><clipPath id="id13"><path d="M 21.746094 18 L 27 18 L 27 25.367188 L 21.746094 25.367188 Z M 21.746094 18 " clip-rule="nonzero"/></clipPath></defs><g clip-path="url(#id1)"><path fill="#ffde59" d="M 26.128906 23.84375 L 26.128906 21.089844 L 28.546875 19.703125 L 28.546875 22.460938 Z M 22.742188 19.703125 L 25.160156 21.089844 L 25.160156 23.84375 L 22.742188 22.460938 Z M 18.628906 22.324219 L 15.484375 20.523438 L 15.484375 18.667969 L 18.628906 16.871094 C 18.777344 16.785156 18.871094 16.625 18.871094 16.453125 L 18.871094 12.582031 C 18.871094 12.40625 18.777344 12.246094 18.628906 12.160156 L 15.484375 10.363281 L 15.484375 8.507812 L 18.402344 6.839844 L 21.773438 8.523438 L 21.773438 10.160156 C 21.773438 10.335938 21.867188 10.496094 22.019531 10.582031 L 25.160156 12.378906 L 25.160156 16.652344 L 22.019531 18.453125 C 21.867188 18.535156 21.773438 18.695312 21.773438 18.871094 L 21.773438 22.472656 L 18.871094 24.289062 L 18.871094 22.742188 C 18.871094 22.566406 18.777344 22.40625 18.628906 22.324219 Z M 15.484375 27.714844 L 15.484375 24.960938 L 17.902344 23.574219 L 17.902344 26.332031 Z M 12.097656 23.574219 L 14.515625 24.960938 L 14.515625 27.714844 L 12.097656 26.332031 Z M 8.226562 22.472656 L 8.226562 18.871094 C 8.226562 18.695312 8.132812 18.535156 7.980469 18.453125 L 4.839844 16.652344 L 4.839844 12.378906 L 7.980469 10.582031 C 8.132812 10.496094 8.226562 10.335938 8.226562 10.160156 L 8.226562 8.523438 L 11.597656 6.839844 L 14.515625 8.507812 L 14.515625 10.363281 L 11.371094 12.160156 C 11.222656 12.246094 11.128906 12.40625 11.128906 12.582031 L 11.128906 16.453125 C 11.128906 16.625 11.222656 16.785156 11.371094 16.871094 L 14.515625 18.667969 L 14.515625 20.523438 L 11.371094 22.324219 C 11.222656 22.40625 11.128906 22.566406 11.128906 22.742188 L 11.128906 24.289062 Z M 4.839844 23.84375 L 4.839844 21.089844 L 7.257812 19.703125 L 7.257812 22.460938 Z M 1.453125 19.703125 L 3.871094 21.089844 L 3.871094 23.84375 L 1.453125 22.460938 Z M 4.355469 20.25 L 1.941406 18.871094 L 4.355469 17.492188 L 6.765625 18.871094 Z M 1.453125 7.125 L 3.871094 8.507812 L 3.871094 11.261719 L 1.453125 9.878906 Z M 4.355469 4.914062 L 6.765625 6.289062 L 4.355469 7.667969 L 1.941406 6.289062 Z M 4.839844 8.507812 L 7.257812 7.125 L 7.257812 9.878906 L 4.839844 11.261719 Z M 15 1.042969 L 17.410156 2.417969 L 15 3.796875 L 12.589844 2.417969 Z M 15.484375 4.636719 L 17.902344 3.253906 L 17.902344 6.007812 L 15.484375 7.390625 Z M 12.097656 3.253906 L 14.515625 4.636719 L 14.515625 7.390625 L 12.097656 6.007812 Z M 15 13.957031 L 12.589844 12.582031 L 15 11.203125 L 17.410156 12.582031 Z M 15.484375 14.796875 L 17.902344 13.414062 L 17.902344 16.171875 L 15.484375 17.554688 Z M 12.097656 13.414062 L 14.515625 14.796875 L 14.515625 17.554688 L 12.097656 16.171875 Z M 15 24.121094 L 12.589844 22.742188 L 15 21.363281 L 17.410156 22.742188 Z M 25.644531 4.914062 L 28.058594 6.289062 L 25.644531 7.667969 L 23.234375 6.289062 Z M 22.742188 7.125 L 25.160156 8.507812 L 25.160156 11.261719 L 22.742188 9.878906 Z M 25.644531 20.25 L 23.234375 18.871094 L 25.644531 17.492188 L 28.058594 18.871094 Z M 26.128906 11.261719 L 26.128906 8.507812 L 28.546875 7.125 L 28.546875 9.878906 Z M 29.273438 10.582031 C 29.421875 10.496094 29.515625 10.335938 29.515625 10.160156 L 29.515625 6.289062 C 29.515625 6.117188 29.421875 5.957031 29.273438 5.871094 L 25.886719 3.933594 C 25.738281 3.851562 25.550781 3.851562 25.40625 3.933594 L 22.019531 5.871094 C 21.867188 5.957031 21.773438 6.117188 21.773438 6.289062 L 21.773438 7.441406 L 18.871094 5.992188 L 18.871094 2.417969 C 18.871094 2.246094 18.777344 2.085938 18.628906 2 L 15.238281 0.0625 C 15.09375 -0.0195312 14.90625 -0.0195312 14.761719 0.0625 L 11.371094 2 C 11.222656 2.085938 11.128906 2.246094 11.128906 2.417969 L 11.128906 5.992188 L 8.226562 7.441406 L 8.226562 6.289062 C 8.226562 6.117188 8.132812 5.957031 7.980469 5.871094 L 4.59375 3.933594 C 4.449219 3.851562 4.265625 3.851562 4.113281 3.933594 L 0.726562 5.871094 C 0.578125 5.957031 0.484375 6.117188 0.484375 6.289062 L 0.484375 10.160156 C 0.484375 10.335938 0.578125 10.496094 0.726562 10.582031 L 3.871094 12.378906 L 3.871094 16.652344 L 0.726562 18.453125 C 0.578125 18.535156 0.484375 18.695312 0.484375 18.871094 L 0.484375 22.742188 C 0.484375 22.914062 0.578125 23.078125 0.726562 23.160156 L 4.113281 25.097656 C 4.1875 25.140625 4.273438 25.160156 4.355469 25.160156 C 4.4375 25.160156 4.519531 25.140625 4.59375 25.097656 L 7.730469 23.304688 L 11.128906 25.429688 L 11.128906 26.613281 C 11.128906 26.785156 11.222656 26.949219 11.371094 27.03125 L 14.761719 28.96875 C 14.832031 29.011719 14.917969 29.03125 15 29.03125 C 15.082031 29.03125 15.167969 29.011719 15.238281 28.96875 L 18.628906 27.03125 C 18.777344 26.949219 18.871094 26.785156 18.871094 26.613281 L 18.871094 25.429688 L 22.269531 23.304688 L 25.40625 25.097656 C 25.480469 25.140625 25.5625 25.160156 25.644531 25.160156 C 25.726562 25.160156 25.8125 25.140625 25.886719 25.097656 L 29.273438 23.160156 C 29.421875 23.078125 29.515625 22.914062 29.515625 22.742188 L 29.515625 18.871094 C 29.515625 18.695312 29.421875 18.535156 29.273438 18.453125 L 26.128906 16.652344 L 26.128906 12.378906 L 29.273438 10.582031 " fill-opacity="1" fill-rule="nonzero"/></g><g clip-path="url(#id2)"><path fill="#004aad" d="M 8.253906 18.289062 C 8.375 18.359375 8.453125 18.488281 8.453125 18.628906 L 8.453125 23.132812 C 8.453125 23.28125 8.367188 23.417969 8.234375 23.484375 L 4.65625 25.285156 C 4.53125 25.347656 4.386719 25.339844 4.269531 25.269531 C 4.148438 25.199219 4.078125 25.070312 4.078125 24.933594 L 4.078125 20.597656 C 4.078125 20.457031 4.15625 20.324219 4.28125 20.253906 L 7.859375 18.285156 C 7.984375 18.214844 8.132812 18.21875 8.253906 18.289062 Z M 4.875 20.832031 L 4.875 24.292969 L 7.65625 22.890625 L 7.65625 19.296875 Z M 4.875 20.832031 " fill-opacity="1" fill-rule="evenodd"/></g><g clip-path="url(#id3)"><path fill="#004aad" d="M 4.3125 16.691406 C 4.417969 16.644531 4.535156 16.644531 4.636719 16.691406 L 8.214844 18.269531 C 8.351562 18.328125 8.445312 18.460938 8.449219 18.609375 C 8.457031 18.757812 8.378906 18.898438 8.246094 18.972656 L 4.667969 20.941406 C 4.546875 21.007812 4.402344 21.007812 4.28125 20.941406 L 0.703125 18.972656 C 0.574219 18.898438 0.492188 18.757812 0.5 18.609375 C 0.507812 18.460938 0.597656 18.328125 0.738281 18.269531 Z M 1.789062 18.667969 L 4.476562 20.148438 L 7.164062 18.667969 L 4.476562 17.484375 Z M 1.789062 18.667969 " fill-opacity="1" fill-rule="evenodd"/></g><g clip-path="url(#id4)"><path fill="#004aad" d="M 0.695312 18.289062 C 0.574219 18.359375 0.5 18.488281 0.5 18.628906 L 0.5 23.132812 C 0.5 23.28125 0.585938 23.417969 0.71875 23.484375 L 4.296875 25.285156 C 4.417969 25.347656 4.566406 25.339844 4.683594 25.269531 C 4.800781 25.199219 4.875 25.070312 4.875 24.933594 L 4.875 20.597656 C 4.875 20.457031 4.796875 20.324219 4.667969 20.253906 L 1.089844 18.285156 C 0.96875 18.214844 0.816406 18.21875 0.695312 18.289062 Z M 4.078125 20.832031 L 4.078125 24.292969 L 1.296875 22.890625 L 1.296875 19.296875 Z M 4.078125 20.832031 " fill-opacity="1" fill-rule="evenodd"/></g><g clip-path="url(#id5)"><path fill="#004aad" d="M 18.929688 11.917969 C 19.050781 11.988281 19.125 12.121094 19.125 12.257812 L 19.125 16.761719 C 19.125 16.910156 19.039062 17.046875 18.90625 17.113281 L 15.328125 18.914062 C 15.207031 18.976562 15.058594 18.972656 14.941406 18.902344 C 14.824219 18.828125 14.75 18.703125 14.75 18.566406 L 14.75 14.230469 C 14.75 14.085938 14.828125 13.953125 14.957031 13.886719 L 18.535156 11.914062 C 18.65625 11.847656 18.808594 11.847656 18.929688 11.917969 Z M 15.546875 14.460938 L 15.546875 17.921875 L 18.328125 16.519531 L 18.328125 12.929688 Z M 15.546875 14.460938 " fill-opacity="1" fill-rule="evenodd"/></g><g clip-path="url(#id6)"><path fill="#004aad" d="M 14.988281 10.324219 C 15.089844 10.277344 15.207031 10.277344 15.308594 10.324219 L 18.886719 11.898438 C 19.027344 11.960938 19.117188 12.09375 19.125 12.242188 C 19.128906 12.390625 19.050781 12.53125 18.917969 12.601562 L 15.339844 14.574219 C 15.222656 14.640625 15.074219 14.640625 14.957031 14.574219 L 11.378906 12.601562 C 11.246094 12.53125 11.167969 12.390625 11.171875 12.242188 C 11.179688 12.09375 11.269531 11.960938 11.410156 11.898438 Z M 12.460938 12.296875 L 15.148438 13.777344 L 17.835938 12.296875 L 15.148438 11.113281 Z M 12.460938 12.296875 " fill-opacity="1" fill-rule="evenodd"/></g><g clip-path="url(#id7)"><path fill="#004aad" d="M 11.367188 11.917969 C 11.246094 11.988281 11.171875 12.121094 11.171875 12.257812 L 11.171875 16.761719 C 11.171875 16.910156 11.257812 17.046875 11.390625 17.113281 L 14.96875 18.914062 C 15.089844 18.976562 15.238281 18.972656 15.355469 18.902344 C 15.472656 18.828125 15.546875 18.703125 15.546875 18.566406 L 15.546875 14.230469 C 15.546875 14.085938 15.46875 13.953125 15.339844 13.886719 L 11.765625 11.914062 C 11.640625 11.847656 11.492188 11.847656 11.367188 11.917969 Z M 14.75 14.460938 L 14.75 17.921875 L 11.96875 16.519531 L 11.96875 12.929688 Z M 14.75 14.460938 " fill-opacity="1" fill-rule="evenodd"/></g><g clip-path="url(#id8)"><path fill="#004aad" d="M 18.929688 1.628906 C 19.050781 1.703125 19.125 1.832031 19.125 1.96875 L 19.125 6.472656 C 19.125 6.621094 19.039062 6.757812 18.90625 6.824219 L 15.328125 8.628906 C 15.207031 8.691406 15.058594 8.683594 14.941406 8.613281 C 14.824219 8.539062 14.75 8.414062 14.75 8.277344 L 14.75 3.941406 C 14.75 3.796875 14.828125 3.667969 14.957031 3.597656 L 18.535156 1.625 C 18.65625 1.558594 18.808594 1.558594 18.929688 1.628906 Z M 15.546875 4.171875 L 15.546875 7.632812 L 18.328125 6.234375 L 18.328125 2.640625 Z M 15.546875 4.171875 " fill-opacity="1" fill-rule="evenodd"/></g><g clip-path="url(#id9)"><path fill="#004aad" d="M 14.988281 0.0351562 C 15.089844 -0.0117188 15.207031 -0.0117188 15.308594 0.0351562 L 18.886719 1.609375 C 19.027344 1.671875 19.117188 1.804688 19.125 1.953125 C 19.128906 2.101562 19.050781 2.242188 18.917969 2.316406 L 15.339844 4.285156 C 15.222656 4.351562 15.074219 4.351562 14.957031 4.285156 L 11.378906 2.316406 C 11.246094 2.242188 11.167969 2.101562 11.171875 1.953125 C 11.179688 1.804688 11.269531 1.671875 11.410156 1.609375 Z M 12.460938 2.007812 L 15.148438 3.488281 L 17.835938 2.007812 L 15.148438 0.824219 Z M 12.460938 2.007812 " fill-opacity="1" fill-rule="evenodd"/></g><g clip-path="url(#id10)"><path fill="#004aad" d="M 11.367188 1.628906 C 11.246094 1.703125 11.171875 1.832031 11.171875 1.96875 L 11.171875 6.472656 C 11.171875 6.621094 11.257812 6.757812 11.390625 6.824219 L 14.96875 8.628906 C 15.089844 8.691406 15.238281 8.683594 15.355469 8.613281 C 15.472656 8.539062 15.546875 8.414062 15.546875 8.277344 L 15.546875 3.941406 C 15.546875 3.796875 15.46875 3.667969 15.339844 3.597656 L 11.765625 1.625 C 11.640625 1.558594 11.492188 1.558594 11.367188 1.628906 Z M 14.75 4.171875 L 14.75 7.632812 L 11.96875 6.234375 L 11.96875 2.640625 Z M 14.75 4.171875 " fill-opacity="1" fill-rule="evenodd"/></g><g clip-path="url(#id11)"><path fill="#004aad" d="M 29.519531 18.289062 C 29.640625 18.359375 29.714844 18.488281 29.714844 18.628906 L 29.714844 23.132812 C 29.714844 23.28125 29.628906 23.417969 29.496094 23.484375 L 25.917969 25.285156 C 25.796875 25.347656 25.648438 25.339844 25.53125 25.269531 C 25.414062 25.199219 25.339844 25.070312 25.339844 24.933594 L 25.339844 20.597656 C 25.339844 20.457031 25.417969 20.324219 25.546875 20.253906 L 29.125 18.285156 C 29.246094 18.214844 29.398438 18.21875 29.519531 18.289062 Z M 26.136719 20.832031 L 26.136719 24.292969 L 28.917969 22.890625 L 28.917969 19.296875 Z M 26.136719 20.832031 " fill-opacity="1" fill-rule="evenodd"/></g><g clip-path="url(#id12)"><path fill="#004aad" d="M 25.578125 16.691406 C 25.679688 16.644531 25.796875 16.644531 25.898438 16.691406 L 29.476562 18.269531 C 29.617188 18.328125 29.707031 18.460938 29.714844 18.609375 C 29.71875 18.757812 29.640625 18.898438 29.507812 18.972656 L 25.929688 20.941406 C 25.8125 21.007812 25.664062 21.007812 25.546875 20.941406 L 21.96875 18.972656 C 21.835938 18.898438 21.757812 18.757812 21.761719 18.609375 C 21.769531 18.460938 21.863281 18.328125 22 18.269531 Z M 23.050781 18.667969 L 25.738281 20.148438 L 28.425781 18.667969 L 25.738281 17.484375 Z M 23.050781 18.667969 " fill-opacity="1" fill-rule="evenodd"/></g><g clip-path="url(#id13)"><path fill="#004aad" d="M 21.960938 18.289062 C 21.835938 18.359375 21.761719 18.488281 21.761719 18.628906 L 21.761719 23.132812 C 21.761719 23.28125 21.847656 23.417969 21.980469 23.484375 L 25.558594 25.285156 C 25.683594 25.347656 25.828125 25.339844 25.945312 25.269531 C 26.0625 25.199219 26.136719 25.070312 26.136719 24.933594 L 26.136719 20.597656 C 26.136719 20.457031 26.058594 20.324219 25.929688 20.253906 L 22.355469 18.285156 C 22.230469 18.214844 22.082031 18.21875 21.960938 18.289062 Z M 25.339844 20.832031 L 25.339844 24.292969 L 22.558594 22.890625 L 22.558594 19.296875 Z M 25.339844 20.832031 " fill-opacity="1" fill-rule="evenodd"/></g></svg>