<svg xmlns="http://www.w3.org/2000/svg" xmlns:xlink="http://www.w3.org/1999/xlink" width="40" zoomAndPan="magnify" viewBox="0 0 30 30.000001" height="40" preserveAspectRatio="xMidYMid meet" version="1.0"><defs><clipPath id="id1"><path d="M 0.484375 0 L 29.515625 0 L 29.515625 29 L 0.484375 29 Z M 0.484375 0 " clip-rule="nonzero"/></clipPath><clipPath id="id2"><path d="M 9 5 L 22 5 L 22 29.03125 L 9 29.03125 Z M 9 5 " clip-rule="nonzero"/></clipPath></defs><g clip-path="url(#id1)"><path fill="#1877f2" d="M 29.515625 14.515625 C 29.515625 6.5 23.015625 0 15 0 C 6.984375 0 0.484375 6.5 0.484375 14.515625 C 0.484375 21.761719 5.792969 27.765625 12.730469 28.855469 L 12.730469 18.710938 L 9.046875 18.710938 L 9.046875 14.515625 L 12.730469 14.515625 L 12.730469 11.316406 C 12.730469 7.679688 14.898438 5.671875 18.214844 5.671875 C 19.804688 5.671875 21.464844 5.953125 21.464844 5.953125 L 21.464844 9.527344 L 19.632812 9.527344 C 17.832031 9.527344 17.269531 10.644531 17.269531 11.792969 L 17.269531 14.515625 L 21.292969 14.515625 L 20.652344 18.710938 L 17.269531 18.710938 L 17.269531 28.855469 C 24.207031 27.765625 29.515625 21.761719 29.515625 14.515625 " fill-opacity="1" fill-rule="nonzero"/></g><g clip-path="url(#id2)"><path fill="#ffffff" d="M 20.652344 18.710938 L 21.292969 14.515625 L 17.269531 14.515625 L 17.269531 11.792969 C 17.269531 10.644531 17.832031 9.527344 19.632812 9.527344 L 21.464844 9.527344 L 21.464844 5.953125 C 21.464844 5.953125 19.804688 5.671875 18.214844 5.671875 C 14.898438 5.671875 12.730469 7.679688 12.730469 11.316406 L 12.730469 14.515625 L 9.046875 14.515625 L 9.046875 18.710938 L 12.730469 18.710938 L 12.730469 28.855469 C 13.472656 28.972656 14.226562 29.03125 15 29.03125 C 15.773438 29.03125 16.527344 28.972656 17.269531 28.855469 L 17.269531 18.710938 L 20.652344 18.710938 " fill-opacity="1" fill-rule="nonzero"/></g></svg>