<svg xmlns="http://www.w3.org/2000/svg" xmlns:xlink="http://www.w3.org/1999/xlink" width="40" zoomAndPan="magnify" viewBox="0 0 30 30.000001" height="40" preserveAspectRatio="xMidYMid meet" version="1.0"><defs><clipPath id="id1"><path d="M 5 8 L 29.515625 8 L 29.515625 28.488281 L 5 28.488281 Z M 5 8 " clip-rule="nonzero"/></clipPath><clipPath id="id2"><path d="M 0.484375 0.90625 L 24 0.90625 L 24 22 L 0.484375 22 Z M 0.484375 0.90625 " clip-rule="nonzero"/></clipPath></defs><g clip-path="url(#id1)"><path fill="#ffde59" d="M 26.828125 24.570312 C 28.453125 22.804688 29.335938 20.625 29.335938 18.351562 C 29.335938 12.808594 24.078125 8.300781 17.613281 8.300781 C 11.152344 8.300781 5.894531 12.808594 5.894531 18.351562 C 5.894531 23.890625 11.152344 28.402344 17.613281 28.402344 L 28.433594 28.402344 C 28.796875 28.402344 29.128906 28.179688 29.265625 27.835938 C 29.40625 27.496094 29.328125 27.101562 29.074219 26.839844 Z M 26.828125 24.570312 " fill-opacity="1" fill-rule="nonzero"/></g><path fill="#fafafa" d="M 25.726562 11.113281 C 23.617188 9.375 20.761719 8.300781 17.613281 8.300781 C 11.152344 8.300781 5.894531 12.808594 5.894531 18.351562 C 5.894531 20 6.367188 21.546875 7.1875 22.921875 L 12.203125 22.921875 C 19.636719 22.921875 25.679688 17.628906 25.726562 11.113281 Z M 25.726562 11.113281 " fill-opacity="1" fill-rule="nonzero"/><g clip-path="url(#id2)"><path fill="#004aad" d="M 12.203125 0.992188 C 5.742188 0.992188 0.484375 5.5 0.484375 11.042969 C 0.484375 13.316406 1.367188 15.492188 2.992188 17.261719 L 0.746094 19.535156 C 0.488281 19.796875 0.410156 20.1875 0.550781 20.53125 C 0.691406 20.871094 1.019531 21.09375 1.386719 21.09375 L 12.203125 21.09375 C 18.667969 21.09375 23.925781 16.585938 23.925781 11.042969 C 23.925781 5.5 18.667969 0.992188 12.203125 0.992188 Z M 12.203125 0.992188 " fill-opacity="1" fill-rule="nonzero"/></g><path fill="#fafafa" d="M 17.613281 8.300781 L 6.796875 8.300781 C 6.296875 8.300781 5.894531 8.710938 5.894531 9.214844 C 5.894531 9.71875 6.296875 10.128906 6.796875 10.128906 L 17.613281 10.128906 C 18.113281 10.128906 18.515625 9.71875 18.515625 9.214844 C 18.515625 8.710938 18.113281 8.300781 17.613281 8.300781 Z M 17.613281 8.300781 " fill-opacity="1" fill-rule="nonzero"/><path fill="#fafafa" d="M 14.007812 11.957031 L 6.796875 11.957031 C 6.296875 11.957031 5.894531 12.367188 5.894531 12.871094 C 5.894531 13.375 6.296875 13.785156 6.796875 13.785156 L 14.007812 13.785156 C 14.507812 13.785156 14.910156 13.375 14.910156 12.871094 C 14.910156 12.367188 14.507812 11.957031 14.007812 11.957031 Z M 14.007812 11.957031 " fill-opacity="1" fill-rule="nonzero"/></svg>