<svg xmlns="http://www.w3.org/2000/svg" xmlns:xlink="http://www.w3.org/1999/xlink" width="40" zoomAndPan="magnify" viewBox="0 0 30 30.000001" height="40" preserveAspectRatio="xMidYMid meet" version="1.0"><defs><clipPath id="id1"><path d="M 6.144531 0 L 23.566406 0 L 23.566406 29.03125 L 6.144531 29.03125 Z M 6.144531 0 " clip-rule="nonzero"/></clipPath></defs><path fill="#e1ebf4" d="M 16.703125 3.597656 C 16.6875 3.726562 16.667969 3.855469 16.652344 3.984375 C 16.460938 5.503906 15.972656 6.183594 14.964844 6.339844 C 14.898438 6.351562 14.828125 6.351562 14.761719 6.34375 C 13.757812 6.195312 13.246094 5.492188 13.054688 3.980469 C 13.039062 3.855469 13.023438 3.726562 13.003906 3.597656 C 12.894531 2.867188 12.804688 2.234375 13.207031 1.722656 C 13.554688 1.246094 14.023438 0.976562 14.605469 0.917969 C 14.660156 0.910156 14.761719 0.90625 14.867188 0.90625 C 14.957031 0.90625 15.042969 0.910156 15.097656 0.914062 C 15.683594 0.972656 16.152344 1.242188 16.5 1.722656 C 16.90625 2.234375 16.8125 2.867188 16.703125 3.597656 Z M 16.703125 3.597656 " fill-opacity="1" fill-rule="nonzero"/><path fill="#ffdb80" d="M 14.410156 9.980469 L 15.300781 9.980469 L 15.300781 11.792969 L 14.410156 11.792969 Z M 14.410156 9.980469 " fill-opacity="1" fill-rule="nonzero"/><path fill="#d68751" d="M 7.042969 14.96875 L 22.667969 14.96875 L 22.667969 16.332031 L 7.042969 16.332031 Z M 7.042969 14.96875 " fill-opacity="1" fill-rule="nonzero"/><path fill="#e1ebf4" d="M 10.085938 17.238281 L 11.191406 28.125 L 18.515625 28.125 L 19.621094 17.238281 Z M 15.042969 25.136719 C 14.980469 25.160156 14.910156 25.171875 14.839844 25.171875 C 14.800781 25.171875 14.761719 25.167969 14.722656 25.15625 C 14.699219 25.148438 14.683594 25.140625 14.664062 25.136719 C 12.679688 24.390625 12.320312 22.152344 12.410156 21.074219 C 12.417969 20.964844 12.460938 20.871094 12.535156 20.792969 C 12.609375 20.714844 12.703125 20.667969 12.808594 20.660156 C 13.457031 20.566406 14.03125 20.304688 14.53125 19.871094 C 14.539062 19.867188 14.546875 19.859375 14.550781 19.855469 C 14.566406 19.839844 14.582031 19.828125 14.597656 19.816406 C 14.792969 19.679688 14.976562 19.6875 15.152344 19.847656 C 15.65625 20.296875 16.238281 20.566406 16.902344 20.660156 C 17.007812 20.667969 17.101562 20.714844 17.175781 20.792969 C 17.25 20.871094 17.292969 20.964844 17.300781 21.074219 C 17.390625 22.152344 17.03125 24.390625 15.042969 25.136719 Z M 15.042969 25.136719 " fill-opacity="1" fill-rule="nonzero"/><path fill="#2d4356" d="M 17.300781 21.074219 C 17.292969 20.964844 17.25 20.871094 17.175781 20.792969 C 17.101562 20.714844 17.007812 20.667969 16.902344 20.660156 C 16.238281 20.566406 15.65625 20.296875 15.152344 19.847656 C 14.976562 19.6875 14.792969 19.679688 14.597656 19.816406 C 14.582031 19.828125 14.566406 19.839844 14.550781 19.855469 C 14.546875 19.859375 14.539062 19.867188 14.53125 19.871094 C 14.03125 20.304688 13.457031 20.566406 12.808594 20.660156 C 12.703125 20.667969 12.609375 20.714844 12.535156 20.792969 C 12.460938 20.871094 12.417969 20.964844 12.410156 21.074219 C 12.320312 22.152344 12.679688 24.390625 14.664062 25.136719 C 14.683594 25.140625 14.699219 25.148438 14.722656 25.15625 C 14.761719 25.167969 14.800781 25.171875 14.839844 25.171875 C 14.910156 25.171875 14.980469 25.160156 15.042969 25.136719 C 17.03125 24.390625 17.390625 22.152344 17.300781 21.074219 Z M 14.855469 24.234375 C 13.523438 23.65625 13.316406 22.175781 13.292969 21.496094 C 13.863281 21.359375 14.382812 21.113281 14.855469 20.765625 C 15.324219 21.117188 15.84375 21.363281 16.414062 21.496094 C 16.386719 22.171875 16.171875 23.648438 14.855469 24.234375 Z M 14.855469 24.234375 " fill-opacity="1" fill-rule="nonzero"/><path fill="#ffdb80" d="M 16.414062 21.496094 C 16.386719 22.171875 16.171875 23.648438 14.855469 24.234375 C 13.523438 23.65625 13.316406 22.175781 13.292969 21.496094 C 13.863281 21.359375 14.382812 21.113281 14.855469 20.765625 C 15.324219 21.117188 15.84375 21.363281 16.414062 21.496094 Z M 16.414062 21.496094 " fill-opacity="1" fill-rule="nonzero"/><path fill="#81d9e3" d="M 13.519531 14.0625 C 13.519531 14.046875 13.515625 14.035156 13.515625 14.019531 L 13.515625 13.367188 C 13.238281 13.203125 13.023438 12.980469 12.863281 12.703125 C 12.703125 12.421875 12.625 12.117188 12.621094 11.792969 L 12.621094 9.980469 C 12.625 9.773438 12.65625 9.574219 12.726562 9.378906 C 12.570312 8.753906 12.527344 8.125 12.589844 7.484375 C 12.574219 7.402344 12.441406 7.3125 12.46875 7.234375 L 12.371094 6.761719 L 10.253906 7.796875 C 9.589844 9.304688 9.097656 12.191406 8.832031 14.0625 L 9.78125 14.0625 C 10.246094 12.691406 10.835938 11.0625 10.875 10.964844 C 10.929688 10.8125 11.03125 10.71875 11.1875 10.679688 C 11.222656 10.671875 11.257812 10.667969 11.289062 10.667969 C 11.410156 10.667969 11.511719 10.707031 11.597656 10.789062 C 11.730469 10.917969 12.167969 11.472656 12.195312 13.316406 C 12.199219 13.566406 12.183594 13.816406 12.160156 14.0625 Z M 13.519531 14.0625 " fill-opacity="1" fill-rule="nonzero"/><path fill="#e1ebf4" d="M 13.402344 8.480469 C 13.46875 8.4375 13.539062 8.394531 13.609375 8.359375 C 13.625 8.351562 13.636719 8.34375 13.652344 8.339844 C 13.722656 8.304688 13.796875 8.273438 13.871094 8.25 L 13.875 8.25 C 13.949219 8.226562 14.027344 8.207031 14.105469 8.191406 C 14.125 8.191406 14.144531 8.1875 14.164062 8.183594 C 14.246094 8.171875 14.328125 8.164062 14.410156 8.164062 L 15.300781 8.164062 C 15.667969 8.164062 16.003906 8.269531 16.304688 8.480469 C 16.425781 8.035156 16.957031 7.753906 16.996094 7.589844 L 16.378906 6.691406 C 16 6.992188 15.574219 7.171875 15.101562 7.238281 C 15.019531 7.25 14.9375 7.257812 14.855469 7.257812 C 14.78125 7.257812 14.707031 7.25 14.632812 7.238281 C 14.148438 7.179688 13.714844 6.992188 13.332031 6.683594 L 12.78125 7.503906 C 12.820312 7.671875 13.28125 8.03125 13.402344 8.480469 Z M 13.402344 8.480469 " fill-opacity="1" fill-rule="nonzero"/><path fill="#81d9e3" d="M 19.457031 7.796875 L 17.339844 6.761719 L 16.96875 7.140625 C 16.945312 7.386719 16.902344 7.628906 16.835938 7.867188 C 17.09375 8.34375 17.140625 8.839844 16.976562 9.355469 C 17.050781 9.558594 17.085938 9.765625 17.085938 9.980469 L 17.085938 11.792969 C 17.085938 12.117188 17.007812 12.421875 16.847656 12.703125 C 16.6875 12.980469 16.46875 13.203125 16.195312 13.367188 L 16.195312 14.019531 C 16.195312 14.035156 16.191406 14.046875 16.191406 14.0625 L 17.550781 14.0625 C 17.523438 13.816406 17.511719 13.566406 17.511719 13.316406 C 17.542969 11.472656 17.980469 10.917969 18.113281 10.789062 C 18.167969 10.738281 18.230469 10.703125 18.304688 10.679688 C 18.375 10.660156 18.449219 10.660156 18.519531 10.679688 C 18.59375 10.695312 18.660156 10.730469 18.714844 10.78125 C 18.769531 10.832031 18.8125 10.894531 18.835938 10.964844 C 18.875 11.0625 19.464844 12.691406 19.929688 14.0625 L 20.878906 14.0625 C 20.609375 12.191406 20.121094 9.304688 19.457031 7.796875 Z M 19.457031 7.796875 " fill-opacity="1" fill-rule="nonzero"/><g clip-path="url(#id1)"><path fill="#2d4356" d="M 22.667969 14.0625 L 21.78125 14.0625 C 21.503906 12.089844 20.964844 8.875 20.199219 7.261719 C 20.152344 7.167969 20.082031 7.097656 19.988281 7.050781 L 17.140625 5.660156 C 17.347656 5.15625 17.480469 4.636719 17.539062 4.097656 C 17.554688 3.976562 17.570312 3.855469 17.589844 3.730469 C 17.710938 2.90625 17.847656 1.972656 17.195312 1.15625 C 16.6875 0.472656 16.015625 0.0898438 15.179688 0.0117188 C 15.101562 0.00390625 14.988281 0 14.871094 0 C 14.738281 0 14.601562 0.00390625 14.515625 0.0117188 C 13.683594 0.0976562 13.015625 0.476562 12.511719 1.15625 C 11.863281 1.976562 12 2.910156 12.121094 3.734375 C 12.140625 3.855469 12.15625 3.976562 12.171875 4.097656 C 12.226562 4.636719 12.359375 5.15625 12.570312 5.65625 L 9.722656 7.050781 C 9.628906 7.097656 9.558594 7.167969 9.511719 7.261719 C 8.746094 8.875 8.203125 12.089844 7.925781 14.0625 L 7.042969 14.0625 C 6.796875 14.0625 6.585938 14.152344 6.414062 14.328125 C 6.238281 14.503906 6.152344 14.71875 6.152344 14.96875 L 6.152344 16.332031 C 6.152344 16.582031 6.238281 16.796875 6.414062 16.972656 C 6.585938 17.148438 6.796875 17.238281 7.042969 17.238281 L 9.1875 17.238281 L 10.304688 28.21875 C 10.328125 28.449219 10.421875 28.644531 10.59375 28.800781 C 10.761719 28.957031 10.964844 29.03125 11.191406 29.03125 L 18.515625 29.03125 C 18.746094 29.03125 18.945312 28.957031 19.113281 28.800781 C 19.285156 28.644531 19.378906 28.449219 19.402344 28.21875 L 20.519531 17.238281 L 22.667969 17.238281 C 22.914062 17.238281 23.125 17.148438 23.296875 16.972656 C 23.472656 16.796875 23.558594 16.582031 23.558594 16.332031 L 23.558594 14.96875 C 23.558594 14.71875 23.472656 14.503906 23.296875 14.328125 C 23.125 14.152344 22.914062 14.0625 22.667969 14.0625 Z M 13.207031 1.722656 C 13.554688 1.246094 14.023438 0.976562 14.605469 0.917969 C 14.660156 0.910156 14.761719 0.90625 14.867188 0.90625 C 14.957031 0.90625 15.042969 0.910156 15.097656 0.914062 C 15.683594 0.972656 16.152344 1.242188 16.5 1.722656 C 16.90625 2.234375 16.8125 2.867188 16.703125 3.597656 C 16.6875 3.726562 16.667969 3.855469 16.652344 3.984375 C 16.460938 5.503906 15.972656 6.183594 14.964844 6.339844 C 14.898438 6.351562 14.828125 6.351562 14.761719 6.34375 C 13.757812 6.195312 13.246094 5.492188 13.054688 3.980469 C 13.039062 3.855469 13.023438 3.726562 13.003906 3.597656 C 12.894531 2.867188 12.804688 2.234375 13.207031 1.722656 Z M 10.253906 7.796875 L 12.371094 6.761719 L 12.226562 7.21875 C 12.203125 7.300781 12.199219 7.378906 12.21875 7.460938 C 12.234375 7.53125 12.453125 8.433594 12.726562 9.378906 C 12.855469 9.007812 13.078125 8.710938 13.398438 8.484375 C 13.28125 8.042969 13.15625 7.535156 13.117188 7.375 L 13.332031 6.683594 C 13.714844 6.992188 14.148438 7.179688 14.632812 7.238281 C 14.707031 7.25 14.78125 7.257812 14.855469 7.257812 C 14.9375 7.257812 15.019531 7.25 15.101562 7.238281 C 15.574219 7.171875 16 6.992188 16.378906 6.691406 L 16.59375 7.375 C 16.558594 7.523438 16.425781 8.042969 16.308594 8.484375 C 16.625 8.707031 16.851562 9 16.980469 9.367188 C 17.25 8.425781 17.476562 7.53125 17.492188 7.460938 C 17.511719 7.378906 17.507812 7.300781 17.480469 7.21875 L 17.339844 6.761719 L 19.457031 7.796875 C 20.121094 9.304688 20.609375 12.191406 20.878906 14.0625 L 19.929688 14.0625 C 19.464844 12.691406 18.875 11.0625 18.835938 10.964844 C 18.8125 10.894531 18.769531 10.832031 18.714844 10.78125 C 18.660156 10.730469 18.59375 10.695312 18.519531 10.679688 C 18.449219 10.660156 18.375 10.660156 18.304688 10.679688 C 18.230469 10.703125 18.167969 10.738281 18.113281 10.789062 C 17.980469 10.917969 17.542969 11.472656 17.511719 13.316406 C 17.511719 13.566406 17.523438 13.816406 17.550781 14.0625 L 15.300781 14.0625 L 15.300781 12.703125 C 15.546875 12.703125 15.757812 12.613281 15.933594 12.4375 C 16.105469 12.257812 16.195312 12.042969 16.195312 11.792969 L 16.195312 9.980469 C 16.195312 9.730469 16.105469 9.515625 15.933594 9.339844 C 15.757812 9.160156 15.546875 9.074219 15.300781 9.074219 L 14.410156 9.074219 C 14.160156 9.074219 13.953125 9.160156 13.777344 9.339844 C 13.601562 9.515625 13.515625 9.730469 13.515625 9.980469 L 13.515625 11.792969 C 13.515625 12.042969 13.601562 12.257812 13.777344 12.4375 C 13.953125 12.613281 14.160156 12.703125 14.410156 12.703125 L 14.410156 14.0625 L 12.160156 14.0625 C 12.183594 13.816406 12.199219 13.566406 12.195312 13.316406 C 12.167969 11.472656 11.730469 10.917969 11.597656 10.789062 C 11.511719 10.707031 11.410156 10.667969 11.289062 10.667969 C 11.257812 10.667969 11.222656 10.671875 11.1875 10.679688 C 11.03125 10.71875 10.929688 10.8125 10.875 10.964844 C 10.835938 11.0625 10.246094 12.691406 9.78125 14.0625 L 8.832031 14.0625 C 9.097656 12.191406 9.589844 9.304688 10.253906 7.796875 Z M 18.984375 14.0625 L 18.449219 14.0625 C 18.417969 13.820312 18.40625 13.574219 18.40625 13.328125 C 18.410156 13.019531 18.429688 12.761719 18.453125 12.539062 C 18.617188 13.003906 18.808594 13.542969 18.984375 14.0625 Z M 14.410156 11.792969 L 14.410156 9.980469 L 15.300781 9.980469 L 15.300781 11.792969 Z M 11.304688 13.328125 C 11.304688 13.574219 11.289062 13.820312 11.261719 14.0625 L 10.722656 14.0625 C 10.902344 13.542969 11.09375 13.003906 11.257812 12.539062 C 11.28125 12.761719 11.300781 13.019531 11.304688 13.328125 Z M 18.515625 28.125 L 11.191406 28.125 L 10.085938 17.238281 L 19.621094 17.238281 Z M 22.667969 16.332031 L 7.042969 16.332031 L 7.042969 14.96875 L 22.667969 14.96875 Z M 22.667969 16.332031 " fill-opacity="1" fill-rule="nonzero"/></g><path fill="#f9edd2" d="M 14.410156 9.980469 L 15.300781 9.980469 L 15.300781 10.433594 L 14.410156 10.433594 Z M 14.410156 9.980469 " fill-opacity="0.498" fill-rule="nonzero"/><path fill="#ad9359" d="M 14.410156 11.339844 L 15.300781 11.339844 L 15.300781 11.792969 L 14.410156 11.792969 Z M 14.410156 11.339844 " fill-opacity="0.4471" fill-rule="nonzero"/><path fill="#9fa5aa" d="M 16.703125 3.597656 C 16.6875 3.726562 16.667969 3.855469 16.652344 3.984375 C 16.460938 5.503906 15.972656 6.183594 14.964844 6.339844 C 14.898438 6.351562 14.828125 6.351562 14.761719 6.34375 C 13.757812 6.195312 13.246094 5.492188 13.054688 3.980469 C 13.039062 3.855469 13.023438 3.726562 13.003906 3.597656 C 12.933594 3.230469 12.90625 2.863281 12.921875 2.488281 C 12.9375 2.695312 12.96875 2.917969 13.003906 3.144531 C 13.023438 3.273438 13.039062 3.402344 13.054688 3.527344 C 13.246094 5.039062 13.757812 5.742188 14.761719 5.890625 C 14.828125 5.898438 14.898438 5.898438 14.964844 5.886719 C 15.972656 5.730469 16.460938 5.050781 16.652344 3.527344 C 16.667969 3.398438 16.6875 3.273438 16.703125 3.144531 C 16.742188 2.914062 16.773438 2.695312 16.789062 2.484375 C 16.804688 2.859375 16.777344 3.230469 16.703125 3.597656 Z M 16.703125 3.597656 " fill-opacity="0.498" fill-rule="nonzero"/><path fill="#ffffff" d="M 16.789062 2.941406 C 16.773438 2.65625 16.675781 2.398438 16.5 2.175781 C 16.152344 1.695312 15.683594 1.425781 15.097656 1.367188 C 15.042969 1.363281 14.957031 1.359375 14.867188 1.359375 C 14.761719 1.359375 14.660156 1.363281 14.605469 1.371094 C 14.023438 1.429688 13.554688 1.699219 13.207031 2.175781 C 13.03125 2.402344 12.9375 2.65625 12.921875 2.941406 C 12.851562 2.496094 12.945312 2.089844 13.207031 1.722656 C 13.554688 1.246094 14.023438 0.976562 14.605469 0.917969 C 14.660156 0.910156 14.761719 0.90625 14.867188 0.90625 C 14.957031 0.90625 15.042969 0.910156 15.097656 0.914062 C 15.683594 0.972656 16.152344 1.242188 16.5 1.722656 C 16.765625 2.089844 16.859375 2.492188 16.789062 2.941406 Z M 16.789062 2.941406 " fill-opacity="0.498" fill-rule="nonzero"/><path fill="#e8fbfc" d="M 20.878906 14.0625 L 20.8125 14.0625 C 20.53125 12.203125 20.070312 9.640625 19.457031 8.25 L 17.5 7.292969 C 17.496094 7.269531 17.488281 7.242188 17.480469 7.21875 L 17.339844 6.761719 L 19.457031 7.796875 C 20.121094 9.304688 20.609375 12.191406 20.878906 14.0625 Z M 20.878906 14.0625 " fill-opacity="0.4" fill-rule="nonzero"/><path fill="#e8fbfc" d="M 12.371094 6.761719 L 12.226562 7.21875 C 12.21875 7.242188 12.214844 7.269531 12.210938 7.292969 L 10.253906 8.25 C 9.640625 9.640625 9.175781 12.203125 8.898438 14.0625 L 8.832031 14.0625 C 9.097656 12.191406 9.589844 9.304688 10.253906 7.796875 Z M 12.371094 6.761719 " fill-opacity="0.4" fill-rule="nonzero"/><path fill="#e5d0c3" d="M 7.042969 14.96875 L 22.667969 14.96875 L 22.667969 15.421875 L 7.042969 15.421875 Z M 7.042969 14.96875 " fill-opacity="0.298" fill-rule="nonzero"/><path fill="#f9edd2" d="M 16.414062 21.496094 C 16.410156 21.621094 16.398438 21.773438 16.375 21.941406 C 15.820312 21.804688 15.316406 21.5625 14.855469 21.21875 C 14.394531 21.5625 13.886719 21.800781 13.332031 21.941406 C 13.308594 21.773438 13.300781 21.621094 13.292969 21.496094 C 13.863281 21.359375 14.382812 21.113281 14.855469 20.765625 C 15.324219 21.117188 15.84375 21.363281 16.414062 21.496094 Z M 16.414062 21.496094 " fill-opacity="0.498" fill-rule="nonzero"/><path fill="#ad9359" d="M 16.414062 21.496094 C 16.386719 22.171875 16.171875 23.648438 14.855469 24.234375 C 13.523438 23.65625 13.316406 22.175781 13.292969 21.496094 C 13.308594 21.492188 13.320312 21.492188 13.332031 21.484375 C 13.429688 22.234375 13.769531 23.308594 14.855469 23.78125 C 15.929688 23.304688 16.273438 22.230469 16.375 21.484375 C 16.390625 21.492188 16.402344 21.496094 16.414062 21.496094 Z M 16.414062 21.496094 " fill-opacity="0.4471" fill-rule="nonzero"/><path fill="#9fa5aa" d="M 19.621094 17.238281 L 18.515625 28.125 L 11.191406 28.125 L 10.085938 17.238281 L 10.132812 17.238281 L 11.191406 27.671875 L 18.515625 27.671875 L 19.574219 17.238281 Z M 19.621094 17.238281 " fill-opacity="0.498" fill-rule="nonzero"/></svg>