<svg id="Layer_1" data-name="Layer 1" xmlns="http://www.w3.org/2000/svg" viewBox="0 0 494.23 494.23"><defs><style>.cls-1{fill:#172852;}.cls-2{fill:#ffd83d;}.cls-3{fill:#ff6f03;}</style></defs><circle class="cls-1" cx="247.11" cy="247.11" r="247.11"/><path class="cls-2" d="M208.71,117.09c28.93-10.82,61.5-10.85,91-2,38.37,11.91,70.77,40.87,87.7,77.22,4.67,10.36,9.14,21.16,9.58,32.67-21.57-12.5-45.22-20.61-68.92-28-37.9-13.66-77.59-23.15-113.47-41.93-8.35-5-19-10.11-21.28-20.51-.91-9,8.6-14,15.4-17.5" transform="translate(-9.66 -6.66)"/><path class="cls-2" d="M121.35,204.57c8.38-22.73,22.12-43.84,40.78-59.48,4.74,39,21.35,76.73,48.78,105.1,32.89,34.17,79.74,55.15,127.41,54.36,18.93.6,37.44-3.78,55.9-7.31-18.17,65.63-90.1,109.2-156.75,98.72-40.23-5.14-77.37-29-99.78-62.59C112.41,296.2,106,246.85,121.35,204.57Z" transform="translate(-9.66 -6.66)"/><path class="cls-3" d="M328.06,197c23.7,7.39,47.35,15.5,68.92,28l1.46.77c2,15,3.46,30.39.79,45.47-10.85-4.6-19.64-12.68-28.84-19.82-17.69-14.73-35.75-31.58-42.33-54.42" transform="translate(-9.66 -6.66)"/></svg>