<svg xmlns="http://www.w3.org/2000/svg" xmlns:xlink="http://www.w3.org/1999/xlink" width="40" zoomAndPan="magnify" viewBox="0 0 30 30.000001" height="40" preserveAspectRatio="xMidYMid meet" version="1.0"><defs><clipPath id="id1"><path d="M 0.484375 0 L 29.515625 0 L 29.515625 29.03125 L 0.484375 29.03125 Z M 0.484375 0 " clip-rule="nonzero"/></clipPath></defs><g clip-path="url(#id1)"><path fill="#ffffff" d="M 29.515625 14.515625 C 29.515625 22.535156 23.019531 29.03125 15 29.03125 C 6.980469 29.03125 0.484375 22.535156 0.484375 14.515625 C 0.484375 6.496094 6.980469 0 15 0 C 23.019531 0 29.515625 6.496094 29.515625 14.515625 Z M 12.34375 22.171875 C 18.78125 22.171875 22.300781 16.839844 22.300781 12.214844 C 22.300781 12.0625 22.300781 11.910156 22.292969 11.765625 C 22.976562 11.273438 23.570312 10.65625 24.042969 9.949219 C 23.417969 10.226562 22.746094 10.414062 22.03125 10.503906 C 22.757812 10.066406 23.308594 9.382812 23.570312 8.566406 C 22.898438 8.964844 22.148438 9.253906 21.351562 9.414062 C 20.710938 8.730469 19.804688 8.308594 18.796875 8.308594 C 16.867188 8.308594 15.296875 9.878906 15.296875 11.808594 C 15.296875 12.085938 15.328125 12.351562 15.390625 12.605469 C 12.480469 12.460938 9.90625 11.070312 8.175781 8.949219 C 7.878906 9.464844 7.707031 10.066406 7.707031 10.707031 C 7.707031 11.917969 8.324219 12.992188 9.265625 13.617188 C 8.691406 13.601562 8.15625 13.441406 7.683594 13.179688 C 7.683594 13.195312 7.683594 13.210938 7.683594 13.222656 C 7.683594 14.921875 8.890625 16.332031 10.492188 16.65625 C 10.203125 16.738281 9.890625 16.78125 9.570312 16.78125 C 9.347656 16.78125 9.128906 16.757812 8.910156 16.714844 C 9.351562 18.109375 10.644531 19.117188 12.175781 19.148438 C 10.980469 20.082031 9.46875 20.640625 7.828125 20.640625 C 7.546875 20.640625 7.269531 20.628906 6.996094 20.589844 C 8.527344 21.59375 10.371094 22.171875 12.34375 22.171875 " fill-opacity="1" fill-rule="nonzero"/></g></svg>