<svg xmlns="http://www.w3.org/2000/svg" xmlns:xlink="http://www.w3.org/1999/xlink" width="40" zoomAndPan="magnify" viewBox="0 0 30 30.000001" height="40" preserveAspectRatio="xMidYMid meet" version="1.0"><defs><clipPath id="id1"><path d="M 2.382812 2 L 27.789062 2 L 27.789062 29 L 2.382812 29 Z M 2.382812 2 " clip-rule="nonzero"/></clipPath><clipPath id="id2"><path d="M 2.390625 0 L 27.78125 0 L 27.78125 29.03125 L 2.390625 29.03125 Z M 2.390625 0 " clip-rule="nonzero"/></clipPath></defs><g clip-path="url(#id1)"><path fill="#ffffff" d="M 27.417969 12.019531 L 27.417969 28.664062 L 2.664062 28.664062 L 2.664062 12.019531 L 6.9375 7.761719 L 14.492188 7.761719 C 13.1875 7.492188 12.207031 6.34375 12.207031 4.964844 C 12.207031 3.386719 13.496094 2.109375 15.085938 2.109375 C 16.675781 2.109375 17.960938 3.386719 17.960938 4.964844 C 17.960938 6.34375 16.984375 7.492188 15.679688 7.761719 L 23.144531 7.761719 L 27.421875 12.019531 " fill-opacity="1" fill-rule="nonzero"/></g><path fill="#ffde59" d="M 18.667969 18.621094 L 15.671875 18.621094 C 15.480469 18.621094 15.324219 18.773438 15.324219 18.960938 C 15.324219 19.152344 15.480469 19.304688 15.671875 19.304688 L 16.824219 19.304688 L 16.824219 22.453125 C 16.824219 22.640625 16.980469 22.796875 17.171875 22.796875 C 17.359375 22.796875 17.515625 22.640625 17.515625 22.453125 L 17.515625 19.304688 L 18.667969 19.304688 C 18.859375 19.304688 19.015625 19.152344 19.015625 18.960938 C 19.015625 18.773438 18.859375 18.621094 18.667969 18.621094 Z M 22.839844 22.109375 L 20.1875 22.109375 L 20.1875 21.050781 L 22.105469 21.050781 C 22.292969 21.050781 22.449219 20.898438 22.449219 20.707031 C 22.449219 20.519531 22.292969 20.363281 22.105469 20.363281 L 20.1875 20.363281 L 20.1875 19.304688 L 22.839844 19.304688 C 23.027344 19.304688 23.183594 19.152344 23.183594 18.960938 C 23.183594 18.773438 23.027344 18.621094 22.839844 18.621094 L 19.84375 18.621094 C 19.652344 18.621094 19.496094 18.773438 19.496094 18.960938 L 19.496094 22.453125 C 19.496094 22.640625 19.652344 22.796875 19.84375 22.796875 L 22.839844 22.796875 C 23.027344 22.796875 23.183594 22.640625 23.183594 22.453125 C 23.183594 22.261719 23.027344 22.109375 22.839844 22.109375 Z M 14.152344 19.570312 C 14.152344 19.425781 14.03125 19.304688 13.886719 19.304688 L 12.113281 19.304688 C 11.96875 19.304688 11.847656 19.425781 11.847656 19.570312 L 11.847656 21.84375 C 11.847656 21.988281 11.96875 22.109375 12.113281 22.109375 L 13.886719 22.109375 C 14.03125 22.109375 14.152344 21.988281 14.152344 21.84375 Z M 14.84375 19.570312 L 14.84375 21.84375 C 14.84375 22.367188 14.414062 22.796875 13.886719 22.796875 L 12.113281 22.796875 C 11.585938 22.796875 11.15625 22.367188 11.15625 21.84375 L 11.15625 19.570312 C 11.15625 19.046875 11.585938 18.621094 12.113281 18.621094 L 13.886719 18.621094 C 14.414062 18.621094 14.84375 19.046875 14.84375 19.570312 Z M 17.492188 4.964844 C 17.492188 3.644531 16.414062 2.574219 15.085938 2.574219 C 13.753906 2.574219 12.675781 3.644531 12.675781 4.964844 C 12.675781 6.285156 13.753906 7.359375 15.085938 7.359375 C 16.414062 7.359375 17.492188 6.285156 17.492188 4.964844 Z M 19.636719 9.589844 L 10.535156 9.589844 L 10.535156 0.34375 L 19.636719 0.34375 Z M 10.644531 19.097656 L 9.148438 22.585938 C 9.09375 22.714844 8.96875 22.796875 8.832031 22.796875 C 8.691406 22.796875 8.566406 22.714844 8.511719 22.585938 L 7.015625 19.097656 C 6.941406 18.921875 7.019531 18.722656 7.195312 18.648438 C 7.371094 18.574219 7.574219 18.652344 7.652344 18.828125 L 8.832031 21.578125 L 10.011719 18.828125 C 10.085938 18.652344 10.289062 18.574219 10.464844 18.648438 C 10.640625 18.722656 10.722656 18.921875 10.644531 19.097656 " fill-opacity="1" fill-rule="nonzero"/><g clip-path="url(#id2)"><path fill="#000000" d="M 13.597656 5.605469 C 13.464844 5.472656 13.464844 5.253906 13.597656 5.121094 C 13.734375 4.984375 13.953125 4.984375 14.085938 5.121094 L 14.621094 5.648438 L 16.082031 4.199219 C 16.21875 4.0625 16.4375 4.0625 16.570312 4.199219 C 16.707031 4.332031 16.707031 4.550781 16.570312 4.683594 L 14.867188 6.378906 C 14.796875 6.445312 14.710938 6.476562 14.621094 6.476562 C 14.53125 6.476562 14.445312 6.445312 14.375 6.378906 Z M 27.089844 28.347656 L 3.082031 28.347656 L 3.082031 12.355469 L 27.089844 12.355469 Z M 6.9375 8.066406 L 10.1875 8.066406 L 10.1875 9.246094 L 8.429688 9.246094 C 8.238281 9.246094 8.085938 9.398438 8.085938 9.589844 C 8.085938 9.777344 8.238281 9.933594 8.429688 9.933594 L 21.738281 9.933594 C 21.929688 9.933594 22.085938 9.777344 22.085938 9.589844 C 22.085938 9.398438 21.929688 9.246094 21.738281 9.246094 L 19.980469 9.246094 L 19.980469 8.066406 L 23.230469 8.066406 L 26.636719 11.667969 L 3.53125 11.667969 Z M 10.878906 0.6875 L 19.289062 0.6875 L 19.289062 9.246094 L 10.878906 9.246094 Z M 27.78125 12.007812 C 27.78125 11.988281 27.777344 11.96875 27.773438 11.949219 C 27.773438 11.941406 27.769531 11.9375 27.769531 11.933594 C 27.765625 11.917969 27.761719 11.902344 27.757812 11.890625 C 27.753906 11.882812 27.753906 11.878906 27.75 11.871094 C 27.742188 11.855469 27.734375 11.84375 27.726562 11.828125 C 27.722656 11.824219 27.722656 11.824219 27.71875 11.820312 C 27.710938 11.804688 27.699219 11.792969 27.6875 11.777344 L 23.632812 7.488281 C 23.566406 7.417969 23.476562 7.378906 23.382812 7.378906 L 19.980469 7.378906 L 19.980469 0.34375 C 19.980469 0.152344 19.828125 0 19.636719 0 L 10.535156 0 C 10.34375 0 10.1875 0.152344 10.1875 0.34375 L 10.1875 7.378906 L 6.789062 7.378906 C 6.691406 7.378906 6.601562 7.417969 6.535156 7.488281 L 2.484375 11.777344 C 2.46875 11.792969 2.460938 11.804688 2.449219 11.820312 C 2.445312 11.824219 2.445312 11.824219 2.445312 11.828125 C 2.433594 11.84375 2.425781 11.855469 2.421875 11.871094 C 2.417969 11.878906 2.414062 11.882812 2.414062 11.890625 C 2.40625 11.902344 2.402344 11.917969 2.398438 11.933594 C 2.398438 11.9375 2.398438 11.941406 2.394531 11.949219 C 2.390625 11.96875 2.390625 11.988281 2.390625 12.007812 C 2.390625 12.011719 2.390625 12.011719 2.390625 12.011719 L 2.390625 28.6875 C 2.390625 28.878906 2.542969 29.03125 2.734375 29.03125 L 27.433594 29.03125 C 27.625 29.03125 27.78125 28.878906 27.78125 28.6875 L 27.78125 12.007812 " fill-opacity="1" fill-rule="nonzero"/></g></svg>